G75*
%MOIN*%
%OFA0B0*%
%FSLAX25Y25*%
%IPPOS*%
%LPD*%
%AMOC8*
5,1,8,0,0,1.08239X$1,22.5*
%
%ADD10C,0.01000*%
%ADD11C,0.00000*%
%ADD12C,0.07400*%
%ADD13R,0.07400X0.07400*%
%ADD14OC8,0.07400*%
%ADD15C,0.05200*%
%ADD16OC8,0.06000*%
%ADD17C,0.06600*%
%ADD18OC8,0.06600*%
%ADD19OC8,0.05600*%
%ADD20C,0.09370*%
%ADD21OC8,0.07500*%
%ADD22C,0.08858*%
%ADD23R,0.05315X0.01575*%
%ADD24C,0.03577*%
%ADD25C,0.01600*%
%ADD26C,0.03200*%
%ADD27C,0.02400*%
D10*
X0006695Y0005737D02*
X0006695Y0207863D01*
X0006697Y0207987D01*
X0006703Y0208110D01*
X0006712Y0208234D01*
X0006726Y0208356D01*
X0006743Y0208479D01*
X0006765Y0208601D01*
X0006790Y0208722D01*
X0006819Y0208842D01*
X0006851Y0208961D01*
X0006888Y0209080D01*
X0006928Y0209197D01*
X0006971Y0209312D01*
X0007019Y0209427D01*
X0007070Y0209539D01*
X0007124Y0209650D01*
X0007182Y0209760D01*
X0007243Y0209867D01*
X0007308Y0209973D01*
X0007376Y0210076D01*
X0007447Y0210177D01*
X0007521Y0210276D01*
X0007598Y0210373D01*
X0007679Y0210467D01*
X0007762Y0210558D01*
X0007848Y0210647D01*
X0007937Y0210733D01*
X0008028Y0210816D01*
X0008122Y0210897D01*
X0008219Y0210974D01*
X0008318Y0211048D01*
X0008419Y0211119D01*
X0008522Y0211187D01*
X0008628Y0211252D01*
X0008735Y0211313D01*
X0008845Y0211371D01*
X0008956Y0211425D01*
X0009068Y0211476D01*
X0009183Y0211524D01*
X0009298Y0211567D01*
X0009415Y0211607D01*
X0009534Y0211644D01*
X0009653Y0211676D01*
X0009773Y0211705D01*
X0009894Y0211730D01*
X0010016Y0211752D01*
X0010139Y0211769D01*
X0010261Y0211783D01*
X0010385Y0211792D01*
X0010508Y0211798D01*
X0010632Y0211800D01*
X0260695Y0211800D01*
X0266695Y0205800D01*
X0266695Y0160800D01*
X0276695Y0150800D01*
X0276695Y0021800D01*
X0266695Y0011800D01*
X0266695Y0005737D01*
X0266693Y0005613D01*
X0266687Y0005490D01*
X0266678Y0005366D01*
X0266664Y0005244D01*
X0266647Y0005121D01*
X0266625Y0004999D01*
X0266600Y0004878D01*
X0266571Y0004758D01*
X0266539Y0004639D01*
X0266502Y0004520D01*
X0266462Y0004403D01*
X0266419Y0004288D01*
X0266371Y0004173D01*
X0266320Y0004061D01*
X0266266Y0003950D01*
X0266208Y0003840D01*
X0266147Y0003733D01*
X0266082Y0003627D01*
X0266014Y0003524D01*
X0265943Y0003423D01*
X0265869Y0003324D01*
X0265792Y0003227D01*
X0265711Y0003133D01*
X0265628Y0003042D01*
X0265542Y0002953D01*
X0265453Y0002867D01*
X0265362Y0002784D01*
X0265268Y0002703D01*
X0265171Y0002626D01*
X0265072Y0002552D01*
X0264971Y0002481D01*
X0264868Y0002413D01*
X0264762Y0002348D01*
X0264655Y0002287D01*
X0264545Y0002229D01*
X0264434Y0002175D01*
X0264322Y0002124D01*
X0264207Y0002076D01*
X0264092Y0002033D01*
X0263975Y0001993D01*
X0263856Y0001956D01*
X0263737Y0001924D01*
X0263617Y0001895D01*
X0263496Y0001870D01*
X0263374Y0001848D01*
X0263251Y0001831D01*
X0263129Y0001817D01*
X0263005Y0001808D01*
X0262882Y0001802D01*
X0262758Y0001800D01*
X0010632Y0001800D01*
X0010508Y0001802D01*
X0010385Y0001808D01*
X0010261Y0001817D01*
X0010139Y0001831D01*
X0010016Y0001848D01*
X0009894Y0001870D01*
X0009773Y0001895D01*
X0009653Y0001924D01*
X0009534Y0001956D01*
X0009415Y0001993D01*
X0009298Y0002033D01*
X0009183Y0002076D01*
X0009068Y0002124D01*
X0008956Y0002175D01*
X0008845Y0002229D01*
X0008735Y0002287D01*
X0008628Y0002348D01*
X0008522Y0002413D01*
X0008419Y0002481D01*
X0008318Y0002552D01*
X0008219Y0002626D01*
X0008122Y0002703D01*
X0008028Y0002784D01*
X0007937Y0002867D01*
X0007848Y0002953D01*
X0007762Y0003042D01*
X0007679Y0003133D01*
X0007598Y0003227D01*
X0007521Y0003324D01*
X0007447Y0003423D01*
X0007376Y0003524D01*
X0007308Y0003627D01*
X0007243Y0003733D01*
X0007182Y0003840D01*
X0007124Y0003950D01*
X0007070Y0004061D01*
X0007019Y0004173D01*
X0006971Y0004288D01*
X0006928Y0004403D01*
X0006888Y0004520D01*
X0006851Y0004639D01*
X0006819Y0004758D01*
X0006790Y0004878D01*
X0006765Y0004999D01*
X0006743Y0005121D01*
X0006726Y0005244D01*
X0006712Y0005366D01*
X0006703Y0005490D01*
X0006697Y0005613D01*
X0006695Y0005737D01*
X0024825Y0146682D02*
X0035327Y0146682D01*
X0045445Y0156800D01*
X0051695Y0156800D01*
X0046695Y0163050D02*
X0035445Y0151800D01*
X0024825Y0151800D01*
X0024825Y0154359D02*
X0033004Y0154359D01*
X0041695Y0163050D01*
X0035445Y0160550D02*
X0031813Y0156918D01*
X0024825Y0156918D01*
D11*
X0023940Y0160560D02*
X0023942Y0160641D01*
X0023948Y0160723D01*
X0023958Y0160804D01*
X0023972Y0160884D01*
X0023989Y0160963D01*
X0024011Y0161042D01*
X0024036Y0161119D01*
X0024065Y0161196D01*
X0024098Y0161270D01*
X0024135Y0161343D01*
X0024174Y0161414D01*
X0024218Y0161483D01*
X0024264Y0161550D01*
X0024314Y0161614D01*
X0024367Y0161676D01*
X0024423Y0161736D01*
X0024481Y0161792D01*
X0024543Y0161846D01*
X0024607Y0161897D01*
X0024673Y0161944D01*
X0024741Y0161988D01*
X0024812Y0162029D01*
X0024884Y0162066D01*
X0024959Y0162100D01*
X0025034Y0162130D01*
X0025112Y0162156D01*
X0025190Y0162179D01*
X0025269Y0162197D01*
X0025349Y0162212D01*
X0025430Y0162223D01*
X0025511Y0162230D01*
X0025593Y0162233D01*
X0025674Y0162232D01*
X0025755Y0162227D01*
X0025836Y0162218D01*
X0025917Y0162205D01*
X0025997Y0162188D01*
X0026075Y0162168D01*
X0026153Y0162143D01*
X0026230Y0162115D01*
X0026305Y0162083D01*
X0026378Y0162048D01*
X0026449Y0162009D01*
X0026519Y0161966D01*
X0026586Y0161921D01*
X0026652Y0161872D01*
X0026714Y0161820D01*
X0026774Y0161764D01*
X0026831Y0161706D01*
X0026886Y0161646D01*
X0026937Y0161582D01*
X0026985Y0161517D01*
X0027030Y0161449D01*
X0027072Y0161379D01*
X0027110Y0161307D01*
X0027145Y0161233D01*
X0027176Y0161158D01*
X0027203Y0161081D01*
X0027226Y0161003D01*
X0027246Y0160924D01*
X0027262Y0160844D01*
X0027274Y0160763D01*
X0027282Y0160682D01*
X0027286Y0160601D01*
X0027286Y0160519D01*
X0027282Y0160438D01*
X0027274Y0160357D01*
X0027262Y0160276D01*
X0027246Y0160196D01*
X0027226Y0160117D01*
X0027203Y0160039D01*
X0027176Y0159962D01*
X0027145Y0159887D01*
X0027110Y0159813D01*
X0027072Y0159741D01*
X0027030Y0159671D01*
X0026985Y0159603D01*
X0026937Y0159538D01*
X0026886Y0159474D01*
X0026831Y0159414D01*
X0026774Y0159356D01*
X0026714Y0159300D01*
X0026652Y0159248D01*
X0026586Y0159199D01*
X0026519Y0159154D01*
X0026450Y0159111D01*
X0026378Y0159072D01*
X0026305Y0159037D01*
X0026230Y0159005D01*
X0026153Y0158977D01*
X0026075Y0158952D01*
X0025997Y0158932D01*
X0025917Y0158915D01*
X0025836Y0158902D01*
X0025755Y0158893D01*
X0025674Y0158888D01*
X0025593Y0158887D01*
X0025511Y0158890D01*
X0025430Y0158897D01*
X0025349Y0158908D01*
X0025269Y0158923D01*
X0025190Y0158941D01*
X0025112Y0158964D01*
X0025034Y0158990D01*
X0024959Y0159020D01*
X0024884Y0159054D01*
X0024812Y0159091D01*
X0024741Y0159132D01*
X0024673Y0159176D01*
X0024607Y0159223D01*
X0024543Y0159274D01*
X0024481Y0159328D01*
X0024423Y0159384D01*
X0024367Y0159444D01*
X0024314Y0159506D01*
X0024264Y0159570D01*
X0024218Y0159637D01*
X0024174Y0159706D01*
X0024135Y0159777D01*
X0024098Y0159850D01*
X0024065Y0159924D01*
X0024036Y0160001D01*
X0024011Y0160078D01*
X0023989Y0160157D01*
X0023972Y0160236D01*
X0023958Y0160316D01*
X0023948Y0160397D01*
X0023942Y0160479D01*
X0023940Y0160560D01*
X0023940Y0143040D02*
X0023942Y0143121D01*
X0023948Y0143203D01*
X0023958Y0143284D01*
X0023972Y0143364D01*
X0023989Y0143443D01*
X0024011Y0143522D01*
X0024036Y0143599D01*
X0024065Y0143676D01*
X0024098Y0143750D01*
X0024135Y0143823D01*
X0024174Y0143894D01*
X0024218Y0143963D01*
X0024264Y0144030D01*
X0024314Y0144094D01*
X0024367Y0144156D01*
X0024423Y0144216D01*
X0024481Y0144272D01*
X0024543Y0144326D01*
X0024607Y0144377D01*
X0024673Y0144424D01*
X0024741Y0144468D01*
X0024812Y0144509D01*
X0024884Y0144546D01*
X0024959Y0144580D01*
X0025034Y0144610D01*
X0025112Y0144636D01*
X0025190Y0144659D01*
X0025269Y0144677D01*
X0025349Y0144692D01*
X0025430Y0144703D01*
X0025511Y0144710D01*
X0025593Y0144713D01*
X0025674Y0144712D01*
X0025755Y0144707D01*
X0025836Y0144698D01*
X0025917Y0144685D01*
X0025997Y0144668D01*
X0026075Y0144648D01*
X0026153Y0144623D01*
X0026230Y0144595D01*
X0026305Y0144563D01*
X0026378Y0144528D01*
X0026449Y0144489D01*
X0026519Y0144446D01*
X0026586Y0144401D01*
X0026652Y0144352D01*
X0026714Y0144300D01*
X0026774Y0144244D01*
X0026831Y0144186D01*
X0026886Y0144126D01*
X0026937Y0144062D01*
X0026985Y0143997D01*
X0027030Y0143929D01*
X0027072Y0143859D01*
X0027110Y0143787D01*
X0027145Y0143713D01*
X0027176Y0143638D01*
X0027203Y0143561D01*
X0027226Y0143483D01*
X0027246Y0143404D01*
X0027262Y0143324D01*
X0027274Y0143243D01*
X0027282Y0143162D01*
X0027286Y0143081D01*
X0027286Y0142999D01*
X0027282Y0142918D01*
X0027274Y0142837D01*
X0027262Y0142756D01*
X0027246Y0142676D01*
X0027226Y0142597D01*
X0027203Y0142519D01*
X0027176Y0142442D01*
X0027145Y0142367D01*
X0027110Y0142293D01*
X0027072Y0142221D01*
X0027030Y0142151D01*
X0026985Y0142083D01*
X0026937Y0142018D01*
X0026886Y0141954D01*
X0026831Y0141894D01*
X0026774Y0141836D01*
X0026714Y0141780D01*
X0026652Y0141728D01*
X0026586Y0141679D01*
X0026519Y0141634D01*
X0026450Y0141591D01*
X0026378Y0141552D01*
X0026305Y0141517D01*
X0026230Y0141485D01*
X0026153Y0141457D01*
X0026075Y0141432D01*
X0025997Y0141412D01*
X0025917Y0141395D01*
X0025836Y0141382D01*
X0025755Y0141373D01*
X0025674Y0141368D01*
X0025593Y0141367D01*
X0025511Y0141370D01*
X0025430Y0141377D01*
X0025349Y0141388D01*
X0025269Y0141403D01*
X0025190Y0141421D01*
X0025112Y0141444D01*
X0025034Y0141470D01*
X0024959Y0141500D01*
X0024884Y0141534D01*
X0024812Y0141571D01*
X0024741Y0141612D01*
X0024673Y0141656D01*
X0024607Y0141703D01*
X0024543Y0141754D01*
X0024481Y0141808D01*
X0024423Y0141864D01*
X0024367Y0141924D01*
X0024314Y0141986D01*
X0024264Y0142050D01*
X0024218Y0142117D01*
X0024174Y0142186D01*
X0024135Y0142257D01*
X0024098Y0142330D01*
X0024065Y0142404D01*
X0024036Y0142481D01*
X0024011Y0142558D01*
X0023989Y0142637D01*
X0023972Y0142716D01*
X0023958Y0142796D01*
X0023948Y0142877D01*
X0023942Y0142959D01*
X0023940Y0143040D01*
X0060396Y0201800D02*
X0060398Y0201958D01*
X0060404Y0202116D01*
X0060414Y0202274D01*
X0060428Y0202432D01*
X0060446Y0202589D01*
X0060467Y0202746D01*
X0060493Y0202902D01*
X0060523Y0203058D01*
X0060556Y0203213D01*
X0060594Y0203366D01*
X0060635Y0203519D01*
X0060680Y0203671D01*
X0060729Y0203822D01*
X0060782Y0203971D01*
X0060838Y0204119D01*
X0060898Y0204265D01*
X0060962Y0204410D01*
X0061030Y0204553D01*
X0061101Y0204695D01*
X0061175Y0204835D01*
X0061253Y0204972D01*
X0061335Y0205108D01*
X0061419Y0205242D01*
X0061508Y0205373D01*
X0061599Y0205502D01*
X0061694Y0205629D01*
X0061791Y0205754D01*
X0061892Y0205876D01*
X0061996Y0205995D01*
X0062103Y0206112D01*
X0062213Y0206226D01*
X0062326Y0206337D01*
X0062441Y0206446D01*
X0062559Y0206551D01*
X0062680Y0206653D01*
X0062803Y0206753D01*
X0062929Y0206849D01*
X0063057Y0206942D01*
X0063187Y0207032D01*
X0063320Y0207118D01*
X0063455Y0207202D01*
X0063591Y0207281D01*
X0063730Y0207358D01*
X0063871Y0207430D01*
X0064013Y0207500D01*
X0064157Y0207565D01*
X0064303Y0207627D01*
X0064450Y0207685D01*
X0064599Y0207740D01*
X0064749Y0207791D01*
X0064900Y0207838D01*
X0065052Y0207881D01*
X0065205Y0207920D01*
X0065360Y0207956D01*
X0065515Y0207987D01*
X0065671Y0208015D01*
X0065827Y0208039D01*
X0065984Y0208059D01*
X0066142Y0208075D01*
X0066299Y0208087D01*
X0066458Y0208095D01*
X0066616Y0208099D01*
X0066774Y0208099D01*
X0066932Y0208095D01*
X0067091Y0208087D01*
X0067248Y0208075D01*
X0067406Y0208059D01*
X0067563Y0208039D01*
X0067719Y0208015D01*
X0067875Y0207987D01*
X0068030Y0207956D01*
X0068185Y0207920D01*
X0068338Y0207881D01*
X0068490Y0207838D01*
X0068641Y0207791D01*
X0068791Y0207740D01*
X0068940Y0207685D01*
X0069087Y0207627D01*
X0069233Y0207565D01*
X0069377Y0207500D01*
X0069519Y0207430D01*
X0069660Y0207358D01*
X0069799Y0207281D01*
X0069935Y0207202D01*
X0070070Y0207118D01*
X0070203Y0207032D01*
X0070333Y0206942D01*
X0070461Y0206849D01*
X0070587Y0206753D01*
X0070710Y0206653D01*
X0070831Y0206551D01*
X0070949Y0206446D01*
X0071064Y0206337D01*
X0071177Y0206226D01*
X0071287Y0206112D01*
X0071394Y0205995D01*
X0071498Y0205876D01*
X0071599Y0205754D01*
X0071696Y0205629D01*
X0071791Y0205502D01*
X0071882Y0205373D01*
X0071971Y0205242D01*
X0072055Y0205108D01*
X0072137Y0204972D01*
X0072215Y0204835D01*
X0072289Y0204695D01*
X0072360Y0204553D01*
X0072428Y0204410D01*
X0072492Y0204265D01*
X0072552Y0204119D01*
X0072608Y0203971D01*
X0072661Y0203822D01*
X0072710Y0203671D01*
X0072755Y0203519D01*
X0072796Y0203366D01*
X0072834Y0203213D01*
X0072867Y0203058D01*
X0072897Y0202902D01*
X0072923Y0202746D01*
X0072944Y0202589D01*
X0072962Y0202432D01*
X0072976Y0202274D01*
X0072986Y0202116D01*
X0072992Y0201958D01*
X0072994Y0201800D01*
X0072992Y0201642D01*
X0072986Y0201484D01*
X0072976Y0201326D01*
X0072962Y0201168D01*
X0072944Y0201011D01*
X0072923Y0200854D01*
X0072897Y0200698D01*
X0072867Y0200542D01*
X0072834Y0200387D01*
X0072796Y0200234D01*
X0072755Y0200081D01*
X0072710Y0199929D01*
X0072661Y0199778D01*
X0072608Y0199629D01*
X0072552Y0199481D01*
X0072492Y0199335D01*
X0072428Y0199190D01*
X0072360Y0199047D01*
X0072289Y0198905D01*
X0072215Y0198765D01*
X0072137Y0198628D01*
X0072055Y0198492D01*
X0071971Y0198358D01*
X0071882Y0198227D01*
X0071791Y0198098D01*
X0071696Y0197971D01*
X0071599Y0197846D01*
X0071498Y0197724D01*
X0071394Y0197605D01*
X0071287Y0197488D01*
X0071177Y0197374D01*
X0071064Y0197263D01*
X0070949Y0197154D01*
X0070831Y0197049D01*
X0070710Y0196947D01*
X0070587Y0196847D01*
X0070461Y0196751D01*
X0070333Y0196658D01*
X0070203Y0196568D01*
X0070070Y0196482D01*
X0069935Y0196398D01*
X0069799Y0196319D01*
X0069660Y0196242D01*
X0069519Y0196170D01*
X0069377Y0196100D01*
X0069233Y0196035D01*
X0069087Y0195973D01*
X0068940Y0195915D01*
X0068791Y0195860D01*
X0068641Y0195809D01*
X0068490Y0195762D01*
X0068338Y0195719D01*
X0068185Y0195680D01*
X0068030Y0195644D01*
X0067875Y0195613D01*
X0067719Y0195585D01*
X0067563Y0195561D01*
X0067406Y0195541D01*
X0067248Y0195525D01*
X0067091Y0195513D01*
X0066932Y0195505D01*
X0066774Y0195501D01*
X0066616Y0195501D01*
X0066458Y0195505D01*
X0066299Y0195513D01*
X0066142Y0195525D01*
X0065984Y0195541D01*
X0065827Y0195561D01*
X0065671Y0195585D01*
X0065515Y0195613D01*
X0065360Y0195644D01*
X0065205Y0195680D01*
X0065052Y0195719D01*
X0064900Y0195762D01*
X0064749Y0195809D01*
X0064599Y0195860D01*
X0064450Y0195915D01*
X0064303Y0195973D01*
X0064157Y0196035D01*
X0064013Y0196100D01*
X0063871Y0196170D01*
X0063730Y0196242D01*
X0063591Y0196319D01*
X0063455Y0196398D01*
X0063320Y0196482D01*
X0063187Y0196568D01*
X0063057Y0196658D01*
X0062929Y0196751D01*
X0062803Y0196847D01*
X0062680Y0196947D01*
X0062559Y0197049D01*
X0062441Y0197154D01*
X0062326Y0197263D01*
X0062213Y0197374D01*
X0062103Y0197488D01*
X0061996Y0197605D01*
X0061892Y0197724D01*
X0061791Y0197846D01*
X0061694Y0197971D01*
X0061599Y0198098D01*
X0061508Y0198227D01*
X0061419Y0198358D01*
X0061335Y0198492D01*
X0061253Y0198628D01*
X0061175Y0198765D01*
X0061101Y0198905D01*
X0061030Y0199047D01*
X0060962Y0199190D01*
X0060898Y0199335D01*
X0060838Y0199481D01*
X0060782Y0199629D01*
X0060729Y0199778D01*
X0060680Y0199929D01*
X0060635Y0200081D01*
X0060594Y0200234D01*
X0060556Y0200387D01*
X0060523Y0200542D01*
X0060493Y0200698D01*
X0060467Y0200854D01*
X0060446Y0201011D01*
X0060428Y0201168D01*
X0060414Y0201326D01*
X0060404Y0201484D01*
X0060398Y0201642D01*
X0060396Y0201800D01*
X0260396Y0141800D02*
X0260398Y0141958D01*
X0260404Y0142116D01*
X0260414Y0142274D01*
X0260428Y0142432D01*
X0260446Y0142589D01*
X0260467Y0142746D01*
X0260493Y0142902D01*
X0260523Y0143058D01*
X0260556Y0143213D01*
X0260594Y0143366D01*
X0260635Y0143519D01*
X0260680Y0143671D01*
X0260729Y0143822D01*
X0260782Y0143971D01*
X0260838Y0144119D01*
X0260898Y0144265D01*
X0260962Y0144410D01*
X0261030Y0144553D01*
X0261101Y0144695D01*
X0261175Y0144835D01*
X0261253Y0144972D01*
X0261335Y0145108D01*
X0261419Y0145242D01*
X0261508Y0145373D01*
X0261599Y0145502D01*
X0261694Y0145629D01*
X0261791Y0145754D01*
X0261892Y0145876D01*
X0261996Y0145995D01*
X0262103Y0146112D01*
X0262213Y0146226D01*
X0262326Y0146337D01*
X0262441Y0146446D01*
X0262559Y0146551D01*
X0262680Y0146653D01*
X0262803Y0146753D01*
X0262929Y0146849D01*
X0263057Y0146942D01*
X0263187Y0147032D01*
X0263320Y0147118D01*
X0263455Y0147202D01*
X0263591Y0147281D01*
X0263730Y0147358D01*
X0263871Y0147430D01*
X0264013Y0147500D01*
X0264157Y0147565D01*
X0264303Y0147627D01*
X0264450Y0147685D01*
X0264599Y0147740D01*
X0264749Y0147791D01*
X0264900Y0147838D01*
X0265052Y0147881D01*
X0265205Y0147920D01*
X0265360Y0147956D01*
X0265515Y0147987D01*
X0265671Y0148015D01*
X0265827Y0148039D01*
X0265984Y0148059D01*
X0266142Y0148075D01*
X0266299Y0148087D01*
X0266458Y0148095D01*
X0266616Y0148099D01*
X0266774Y0148099D01*
X0266932Y0148095D01*
X0267091Y0148087D01*
X0267248Y0148075D01*
X0267406Y0148059D01*
X0267563Y0148039D01*
X0267719Y0148015D01*
X0267875Y0147987D01*
X0268030Y0147956D01*
X0268185Y0147920D01*
X0268338Y0147881D01*
X0268490Y0147838D01*
X0268641Y0147791D01*
X0268791Y0147740D01*
X0268940Y0147685D01*
X0269087Y0147627D01*
X0269233Y0147565D01*
X0269377Y0147500D01*
X0269519Y0147430D01*
X0269660Y0147358D01*
X0269799Y0147281D01*
X0269935Y0147202D01*
X0270070Y0147118D01*
X0270203Y0147032D01*
X0270333Y0146942D01*
X0270461Y0146849D01*
X0270587Y0146753D01*
X0270710Y0146653D01*
X0270831Y0146551D01*
X0270949Y0146446D01*
X0271064Y0146337D01*
X0271177Y0146226D01*
X0271287Y0146112D01*
X0271394Y0145995D01*
X0271498Y0145876D01*
X0271599Y0145754D01*
X0271696Y0145629D01*
X0271791Y0145502D01*
X0271882Y0145373D01*
X0271971Y0145242D01*
X0272055Y0145108D01*
X0272137Y0144972D01*
X0272215Y0144835D01*
X0272289Y0144695D01*
X0272360Y0144553D01*
X0272428Y0144410D01*
X0272492Y0144265D01*
X0272552Y0144119D01*
X0272608Y0143971D01*
X0272661Y0143822D01*
X0272710Y0143671D01*
X0272755Y0143519D01*
X0272796Y0143366D01*
X0272834Y0143213D01*
X0272867Y0143058D01*
X0272897Y0142902D01*
X0272923Y0142746D01*
X0272944Y0142589D01*
X0272962Y0142432D01*
X0272976Y0142274D01*
X0272986Y0142116D01*
X0272992Y0141958D01*
X0272994Y0141800D01*
X0272992Y0141642D01*
X0272986Y0141484D01*
X0272976Y0141326D01*
X0272962Y0141168D01*
X0272944Y0141011D01*
X0272923Y0140854D01*
X0272897Y0140698D01*
X0272867Y0140542D01*
X0272834Y0140387D01*
X0272796Y0140234D01*
X0272755Y0140081D01*
X0272710Y0139929D01*
X0272661Y0139778D01*
X0272608Y0139629D01*
X0272552Y0139481D01*
X0272492Y0139335D01*
X0272428Y0139190D01*
X0272360Y0139047D01*
X0272289Y0138905D01*
X0272215Y0138765D01*
X0272137Y0138628D01*
X0272055Y0138492D01*
X0271971Y0138358D01*
X0271882Y0138227D01*
X0271791Y0138098D01*
X0271696Y0137971D01*
X0271599Y0137846D01*
X0271498Y0137724D01*
X0271394Y0137605D01*
X0271287Y0137488D01*
X0271177Y0137374D01*
X0271064Y0137263D01*
X0270949Y0137154D01*
X0270831Y0137049D01*
X0270710Y0136947D01*
X0270587Y0136847D01*
X0270461Y0136751D01*
X0270333Y0136658D01*
X0270203Y0136568D01*
X0270070Y0136482D01*
X0269935Y0136398D01*
X0269799Y0136319D01*
X0269660Y0136242D01*
X0269519Y0136170D01*
X0269377Y0136100D01*
X0269233Y0136035D01*
X0269087Y0135973D01*
X0268940Y0135915D01*
X0268791Y0135860D01*
X0268641Y0135809D01*
X0268490Y0135762D01*
X0268338Y0135719D01*
X0268185Y0135680D01*
X0268030Y0135644D01*
X0267875Y0135613D01*
X0267719Y0135585D01*
X0267563Y0135561D01*
X0267406Y0135541D01*
X0267248Y0135525D01*
X0267091Y0135513D01*
X0266932Y0135505D01*
X0266774Y0135501D01*
X0266616Y0135501D01*
X0266458Y0135505D01*
X0266299Y0135513D01*
X0266142Y0135525D01*
X0265984Y0135541D01*
X0265827Y0135561D01*
X0265671Y0135585D01*
X0265515Y0135613D01*
X0265360Y0135644D01*
X0265205Y0135680D01*
X0265052Y0135719D01*
X0264900Y0135762D01*
X0264749Y0135809D01*
X0264599Y0135860D01*
X0264450Y0135915D01*
X0264303Y0135973D01*
X0264157Y0136035D01*
X0264013Y0136100D01*
X0263871Y0136170D01*
X0263730Y0136242D01*
X0263591Y0136319D01*
X0263455Y0136398D01*
X0263320Y0136482D01*
X0263187Y0136568D01*
X0263057Y0136658D01*
X0262929Y0136751D01*
X0262803Y0136847D01*
X0262680Y0136947D01*
X0262559Y0137049D01*
X0262441Y0137154D01*
X0262326Y0137263D01*
X0262213Y0137374D01*
X0262103Y0137488D01*
X0261996Y0137605D01*
X0261892Y0137724D01*
X0261791Y0137846D01*
X0261694Y0137971D01*
X0261599Y0138098D01*
X0261508Y0138227D01*
X0261419Y0138358D01*
X0261335Y0138492D01*
X0261253Y0138628D01*
X0261175Y0138765D01*
X0261101Y0138905D01*
X0261030Y0139047D01*
X0260962Y0139190D01*
X0260898Y0139335D01*
X0260838Y0139481D01*
X0260782Y0139629D01*
X0260729Y0139778D01*
X0260680Y0139929D01*
X0260635Y0140081D01*
X0260594Y0140234D01*
X0260556Y0140387D01*
X0260523Y0140542D01*
X0260493Y0140698D01*
X0260467Y0140854D01*
X0260446Y0141011D01*
X0260428Y0141168D01*
X0260414Y0141326D01*
X0260404Y0141484D01*
X0260398Y0141642D01*
X0260396Y0141800D01*
X0260396Y0031800D02*
X0260398Y0031958D01*
X0260404Y0032116D01*
X0260414Y0032274D01*
X0260428Y0032432D01*
X0260446Y0032589D01*
X0260467Y0032746D01*
X0260493Y0032902D01*
X0260523Y0033058D01*
X0260556Y0033213D01*
X0260594Y0033366D01*
X0260635Y0033519D01*
X0260680Y0033671D01*
X0260729Y0033822D01*
X0260782Y0033971D01*
X0260838Y0034119D01*
X0260898Y0034265D01*
X0260962Y0034410D01*
X0261030Y0034553D01*
X0261101Y0034695D01*
X0261175Y0034835D01*
X0261253Y0034972D01*
X0261335Y0035108D01*
X0261419Y0035242D01*
X0261508Y0035373D01*
X0261599Y0035502D01*
X0261694Y0035629D01*
X0261791Y0035754D01*
X0261892Y0035876D01*
X0261996Y0035995D01*
X0262103Y0036112D01*
X0262213Y0036226D01*
X0262326Y0036337D01*
X0262441Y0036446D01*
X0262559Y0036551D01*
X0262680Y0036653D01*
X0262803Y0036753D01*
X0262929Y0036849D01*
X0263057Y0036942D01*
X0263187Y0037032D01*
X0263320Y0037118D01*
X0263455Y0037202D01*
X0263591Y0037281D01*
X0263730Y0037358D01*
X0263871Y0037430D01*
X0264013Y0037500D01*
X0264157Y0037565D01*
X0264303Y0037627D01*
X0264450Y0037685D01*
X0264599Y0037740D01*
X0264749Y0037791D01*
X0264900Y0037838D01*
X0265052Y0037881D01*
X0265205Y0037920D01*
X0265360Y0037956D01*
X0265515Y0037987D01*
X0265671Y0038015D01*
X0265827Y0038039D01*
X0265984Y0038059D01*
X0266142Y0038075D01*
X0266299Y0038087D01*
X0266458Y0038095D01*
X0266616Y0038099D01*
X0266774Y0038099D01*
X0266932Y0038095D01*
X0267091Y0038087D01*
X0267248Y0038075D01*
X0267406Y0038059D01*
X0267563Y0038039D01*
X0267719Y0038015D01*
X0267875Y0037987D01*
X0268030Y0037956D01*
X0268185Y0037920D01*
X0268338Y0037881D01*
X0268490Y0037838D01*
X0268641Y0037791D01*
X0268791Y0037740D01*
X0268940Y0037685D01*
X0269087Y0037627D01*
X0269233Y0037565D01*
X0269377Y0037500D01*
X0269519Y0037430D01*
X0269660Y0037358D01*
X0269799Y0037281D01*
X0269935Y0037202D01*
X0270070Y0037118D01*
X0270203Y0037032D01*
X0270333Y0036942D01*
X0270461Y0036849D01*
X0270587Y0036753D01*
X0270710Y0036653D01*
X0270831Y0036551D01*
X0270949Y0036446D01*
X0271064Y0036337D01*
X0271177Y0036226D01*
X0271287Y0036112D01*
X0271394Y0035995D01*
X0271498Y0035876D01*
X0271599Y0035754D01*
X0271696Y0035629D01*
X0271791Y0035502D01*
X0271882Y0035373D01*
X0271971Y0035242D01*
X0272055Y0035108D01*
X0272137Y0034972D01*
X0272215Y0034835D01*
X0272289Y0034695D01*
X0272360Y0034553D01*
X0272428Y0034410D01*
X0272492Y0034265D01*
X0272552Y0034119D01*
X0272608Y0033971D01*
X0272661Y0033822D01*
X0272710Y0033671D01*
X0272755Y0033519D01*
X0272796Y0033366D01*
X0272834Y0033213D01*
X0272867Y0033058D01*
X0272897Y0032902D01*
X0272923Y0032746D01*
X0272944Y0032589D01*
X0272962Y0032432D01*
X0272976Y0032274D01*
X0272986Y0032116D01*
X0272992Y0031958D01*
X0272994Y0031800D01*
X0272992Y0031642D01*
X0272986Y0031484D01*
X0272976Y0031326D01*
X0272962Y0031168D01*
X0272944Y0031011D01*
X0272923Y0030854D01*
X0272897Y0030698D01*
X0272867Y0030542D01*
X0272834Y0030387D01*
X0272796Y0030234D01*
X0272755Y0030081D01*
X0272710Y0029929D01*
X0272661Y0029778D01*
X0272608Y0029629D01*
X0272552Y0029481D01*
X0272492Y0029335D01*
X0272428Y0029190D01*
X0272360Y0029047D01*
X0272289Y0028905D01*
X0272215Y0028765D01*
X0272137Y0028628D01*
X0272055Y0028492D01*
X0271971Y0028358D01*
X0271882Y0028227D01*
X0271791Y0028098D01*
X0271696Y0027971D01*
X0271599Y0027846D01*
X0271498Y0027724D01*
X0271394Y0027605D01*
X0271287Y0027488D01*
X0271177Y0027374D01*
X0271064Y0027263D01*
X0270949Y0027154D01*
X0270831Y0027049D01*
X0270710Y0026947D01*
X0270587Y0026847D01*
X0270461Y0026751D01*
X0270333Y0026658D01*
X0270203Y0026568D01*
X0270070Y0026482D01*
X0269935Y0026398D01*
X0269799Y0026319D01*
X0269660Y0026242D01*
X0269519Y0026170D01*
X0269377Y0026100D01*
X0269233Y0026035D01*
X0269087Y0025973D01*
X0268940Y0025915D01*
X0268791Y0025860D01*
X0268641Y0025809D01*
X0268490Y0025762D01*
X0268338Y0025719D01*
X0268185Y0025680D01*
X0268030Y0025644D01*
X0267875Y0025613D01*
X0267719Y0025585D01*
X0267563Y0025561D01*
X0267406Y0025541D01*
X0267248Y0025525D01*
X0267091Y0025513D01*
X0266932Y0025505D01*
X0266774Y0025501D01*
X0266616Y0025501D01*
X0266458Y0025505D01*
X0266299Y0025513D01*
X0266142Y0025525D01*
X0265984Y0025541D01*
X0265827Y0025561D01*
X0265671Y0025585D01*
X0265515Y0025613D01*
X0265360Y0025644D01*
X0265205Y0025680D01*
X0265052Y0025719D01*
X0264900Y0025762D01*
X0264749Y0025809D01*
X0264599Y0025860D01*
X0264450Y0025915D01*
X0264303Y0025973D01*
X0264157Y0026035D01*
X0264013Y0026100D01*
X0263871Y0026170D01*
X0263730Y0026242D01*
X0263591Y0026319D01*
X0263455Y0026398D01*
X0263320Y0026482D01*
X0263187Y0026568D01*
X0263057Y0026658D01*
X0262929Y0026751D01*
X0262803Y0026847D01*
X0262680Y0026947D01*
X0262559Y0027049D01*
X0262441Y0027154D01*
X0262326Y0027263D01*
X0262213Y0027374D01*
X0262103Y0027488D01*
X0261996Y0027605D01*
X0261892Y0027724D01*
X0261791Y0027846D01*
X0261694Y0027971D01*
X0261599Y0028098D01*
X0261508Y0028227D01*
X0261419Y0028358D01*
X0261335Y0028492D01*
X0261253Y0028628D01*
X0261175Y0028765D01*
X0261101Y0028905D01*
X0261030Y0029047D01*
X0260962Y0029190D01*
X0260898Y0029335D01*
X0260838Y0029481D01*
X0260782Y0029629D01*
X0260729Y0029778D01*
X0260680Y0029929D01*
X0260635Y0030081D01*
X0260594Y0030234D01*
X0260556Y0030387D01*
X0260523Y0030542D01*
X0260493Y0030698D01*
X0260467Y0030854D01*
X0260446Y0031011D01*
X0260428Y0031168D01*
X0260414Y0031326D01*
X0260404Y0031484D01*
X0260398Y0031642D01*
X0260396Y0031800D01*
X0055396Y0011800D02*
X0055398Y0011958D01*
X0055404Y0012116D01*
X0055414Y0012274D01*
X0055428Y0012432D01*
X0055446Y0012589D01*
X0055467Y0012746D01*
X0055493Y0012902D01*
X0055523Y0013058D01*
X0055556Y0013213D01*
X0055594Y0013366D01*
X0055635Y0013519D01*
X0055680Y0013671D01*
X0055729Y0013822D01*
X0055782Y0013971D01*
X0055838Y0014119D01*
X0055898Y0014265D01*
X0055962Y0014410D01*
X0056030Y0014553D01*
X0056101Y0014695D01*
X0056175Y0014835D01*
X0056253Y0014972D01*
X0056335Y0015108D01*
X0056419Y0015242D01*
X0056508Y0015373D01*
X0056599Y0015502D01*
X0056694Y0015629D01*
X0056791Y0015754D01*
X0056892Y0015876D01*
X0056996Y0015995D01*
X0057103Y0016112D01*
X0057213Y0016226D01*
X0057326Y0016337D01*
X0057441Y0016446D01*
X0057559Y0016551D01*
X0057680Y0016653D01*
X0057803Y0016753D01*
X0057929Y0016849D01*
X0058057Y0016942D01*
X0058187Y0017032D01*
X0058320Y0017118D01*
X0058455Y0017202D01*
X0058591Y0017281D01*
X0058730Y0017358D01*
X0058871Y0017430D01*
X0059013Y0017500D01*
X0059157Y0017565D01*
X0059303Y0017627D01*
X0059450Y0017685D01*
X0059599Y0017740D01*
X0059749Y0017791D01*
X0059900Y0017838D01*
X0060052Y0017881D01*
X0060205Y0017920D01*
X0060360Y0017956D01*
X0060515Y0017987D01*
X0060671Y0018015D01*
X0060827Y0018039D01*
X0060984Y0018059D01*
X0061142Y0018075D01*
X0061299Y0018087D01*
X0061458Y0018095D01*
X0061616Y0018099D01*
X0061774Y0018099D01*
X0061932Y0018095D01*
X0062091Y0018087D01*
X0062248Y0018075D01*
X0062406Y0018059D01*
X0062563Y0018039D01*
X0062719Y0018015D01*
X0062875Y0017987D01*
X0063030Y0017956D01*
X0063185Y0017920D01*
X0063338Y0017881D01*
X0063490Y0017838D01*
X0063641Y0017791D01*
X0063791Y0017740D01*
X0063940Y0017685D01*
X0064087Y0017627D01*
X0064233Y0017565D01*
X0064377Y0017500D01*
X0064519Y0017430D01*
X0064660Y0017358D01*
X0064799Y0017281D01*
X0064935Y0017202D01*
X0065070Y0017118D01*
X0065203Y0017032D01*
X0065333Y0016942D01*
X0065461Y0016849D01*
X0065587Y0016753D01*
X0065710Y0016653D01*
X0065831Y0016551D01*
X0065949Y0016446D01*
X0066064Y0016337D01*
X0066177Y0016226D01*
X0066287Y0016112D01*
X0066394Y0015995D01*
X0066498Y0015876D01*
X0066599Y0015754D01*
X0066696Y0015629D01*
X0066791Y0015502D01*
X0066882Y0015373D01*
X0066971Y0015242D01*
X0067055Y0015108D01*
X0067137Y0014972D01*
X0067215Y0014835D01*
X0067289Y0014695D01*
X0067360Y0014553D01*
X0067428Y0014410D01*
X0067492Y0014265D01*
X0067552Y0014119D01*
X0067608Y0013971D01*
X0067661Y0013822D01*
X0067710Y0013671D01*
X0067755Y0013519D01*
X0067796Y0013366D01*
X0067834Y0013213D01*
X0067867Y0013058D01*
X0067897Y0012902D01*
X0067923Y0012746D01*
X0067944Y0012589D01*
X0067962Y0012432D01*
X0067976Y0012274D01*
X0067986Y0012116D01*
X0067992Y0011958D01*
X0067994Y0011800D01*
X0067992Y0011642D01*
X0067986Y0011484D01*
X0067976Y0011326D01*
X0067962Y0011168D01*
X0067944Y0011011D01*
X0067923Y0010854D01*
X0067897Y0010698D01*
X0067867Y0010542D01*
X0067834Y0010387D01*
X0067796Y0010234D01*
X0067755Y0010081D01*
X0067710Y0009929D01*
X0067661Y0009778D01*
X0067608Y0009629D01*
X0067552Y0009481D01*
X0067492Y0009335D01*
X0067428Y0009190D01*
X0067360Y0009047D01*
X0067289Y0008905D01*
X0067215Y0008765D01*
X0067137Y0008628D01*
X0067055Y0008492D01*
X0066971Y0008358D01*
X0066882Y0008227D01*
X0066791Y0008098D01*
X0066696Y0007971D01*
X0066599Y0007846D01*
X0066498Y0007724D01*
X0066394Y0007605D01*
X0066287Y0007488D01*
X0066177Y0007374D01*
X0066064Y0007263D01*
X0065949Y0007154D01*
X0065831Y0007049D01*
X0065710Y0006947D01*
X0065587Y0006847D01*
X0065461Y0006751D01*
X0065333Y0006658D01*
X0065203Y0006568D01*
X0065070Y0006482D01*
X0064935Y0006398D01*
X0064799Y0006319D01*
X0064660Y0006242D01*
X0064519Y0006170D01*
X0064377Y0006100D01*
X0064233Y0006035D01*
X0064087Y0005973D01*
X0063940Y0005915D01*
X0063791Y0005860D01*
X0063641Y0005809D01*
X0063490Y0005762D01*
X0063338Y0005719D01*
X0063185Y0005680D01*
X0063030Y0005644D01*
X0062875Y0005613D01*
X0062719Y0005585D01*
X0062563Y0005561D01*
X0062406Y0005541D01*
X0062248Y0005525D01*
X0062091Y0005513D01*
X0061932Y0005505D01*
X0061774Y0005501D01*
X0061616Y0005501D01*
X0061458Y0005505D01*
X0061299Y0005513D01*
X0061142Y0005525D01*
X0060984Y0005541D01*
X0060827Y0005561D01*
X0060671Y0005585D01*
X0060515Y0005613D01*
X0060360Y0005644D01*
X0060205Y0005680D01*
X0060052Y0005719D01*
X0059900Y0005762D01*
X0059749Y0005809D01*
X0059599Y0005860D01*
X0059450Y0005915D01*
X0059303Y0005973D01*
X0059157Y0006035D01*
X0059013Y0006100D01*
X0058871Y0006170D01*
X0058730Y0006242D01*
X0058591Y0006319D01*
X0058455Y0006398D01*
X0058320Y0006482D01*
X0058187Y0006568D01*
X0058057Y0006658D01*
X0057929Y0006751D01*
X0057803Y0006847D01*
X0057680Y0006947D01*
X0057559Y0007049D01*
X0057441Y0007154D01*
X0057326Y0007263D01*
X0057213Y0007374D01*
X0057103Y0007488D01*
X0056996Y0007605D01*
X0056892Y0007724D01*
X0056791Y0007846D01*
X0056694Y0007971D01*
X0056599Y0008098D01*
X0056508Y0008227D01*
X0056419Y0008358D01*
X0056335Y0008492D01*
X0056253Y0008628D01*
X0056175Y0008765D01*
X0056101Y0008905D01*
X0056030Y0009047D01*
X0055962Y0009190D01*
X0055898Y0009335D01*
X0055838Y0009481D01*
X0055782Y0009629D01*
X0055729Y0009778D01*
X0055680Y0009929D01*
X0055635Y0010081D01*
X0055594Y0010234D01*
X0055556Y0010387D01*
X0055523Y0010542D01*
X0055493Y0010698D01*
X0055467Y0010854D01*
X0055446Y0011011D01*
X0055428Y0011168D01*
X0055414Y0011326D01*
X0055404Y0011484D01*
X0055398Y0011642D01*
X0055396Y0011800D01*
D12*
X0061695Y0031800D03*
X0061695Y0051800D03*
X0046695Y0066800D03*
X0036695Y0066800D03*
X0015695Y0066800D03*
X0016695Y0076800D03*
X0015695Y0086800D03*
X0016695Y0096800D03*
X0015695Y0106800D03*
X0016695Y0116800D03*
X0036695Y0106800D03*
X0046695Y0106800D03*
X0046695Y0126800D03*
X0036695Y0126800D03*
X0036695Y0086800D03*
X0046695Y0086800D03*
X0094195Y0051800D03*
X0101695Y0056800D03*
X0101695Y0046800D03*
X0136695Y0011800D03*
X0146695Y0011800D03*
X0156695Y0011800D03*
X0166695Y0011800D03*
X0176695Y0011800D03*
X0186695Y0011800D03*
X0206695Y0011800D03*
X0216695Y0011800D03*
X0226695Y0011800D03*
X0236695Y0011800D03*
X0246695Y0011800D03*
X0256695Y0011800D03*
X0106695Y0101800D03*
X0106695Y0121800D03*
X0110695Y0201800D03*
X0100695Y0201800D03*
X0120695Y0201800D03*
X0130695Y0201800D03*
X0140695Y0201800D03*
X0150695Y0201800D03*
X0160695Y0201800D03*
X0186695Y0201800D03*
X0196695Y0201800D03*
X0206695Y0201800D03*
X0216695Y0201800D03*
X0226695Y0201800D03*
X0236695Y0201800D03*
X0246695Y0201800D03*
D13*
X0256695Y0201800D03*
X0170695Y0201800D03*
D14*
X0257195Y0121800D03*
X0267195Y0121800D03*
X0267195Y0111800D03*
X0257195Y0111800D03*
X0257195Y0101800D03*
X0267195Y0101800D03*
D15*
X0256695Y0084400D02*
X0256695Y0079200D01*
X0246695Y0079200D02*
X0246695Y0084400D01*
X0236695Y0084400D02*
X0236695Y0079200D01*
X0226695Y0079200D02*
X0226695Y0084400D01*
X0216695Y0084400D02*
X0216695Y0079200D01*
X0206695Y0079200D02*
X0206695Y0084400D01*
X0196695Y0084400D02*
X0196695Y0079200D01*
X0186695Y0079200D02*
X0186695Y0084400D01*
X0176695Y0084400D02*
X0176695Y0079200D01*
X0166695Y0079200D02*
X0166695Y0084400D01*
X0156695Y0084400D02*
X0156695Y0079200D01*
X0146695Y0079200D02*
X0146695Y0084400D01*
X0136695Y0084400D02*
X0136695Y0079200D01*
X0126695Y0079200D02*
X0126695Y0084400D01*
X0126695Y0054400D02*
X0126695Y0049200D01*
X0136695Y0049200D02*
X0136695Y0054400D01*
X0146695Y0054400D02*
X0146695Y0049200D01*
X0156695Y0049200D02*
X0156695Y0054400D01*
X0166695Y0054400D02*
X0166695Y0049200D01*
X0176695Y0049200D02*
X0176695Y0054400D01*
X0186695Y0054400D02*
X0186695Y0049200D01*
X0196695Y0049200D02*
X0196695Y0054400D01*
X0206695Y0054400D02*
X0206695Y0049200D01*
X0216695Y0049200D02*
X0216695Y0054400D01*
X0226695Y0054400D02*
X0226695Y0049200D01*
X0236695Y0049200D02*
X0236695Y0054400D01*
X0246695Y0054400D02*
X0246695Y0049200D01*
X0256695Y0049200D02*
X0256695Y0054400D01*
X0191538Y0094200D02*
X0191538Y0099400D01*
X0181695Y0099400D02*
X0181695Y0094200D01*
X0171853Y0094200D02*
X0171853Y0099400D01*
X0121695Y0139200D02*
X0121695Y0144400D01*
X0111695Y0144400D02*
X0111695Y0139200D01*
X0101695Y0139200D02*
X0101695Y0144400D01*
X0091695Y0144400D02*
X0091695Y0139200D01*
X0081695Y0139200D02*
X0081695Y0144400D01*
X0071695Y0144400D02*
X0071695Y0139200D01*
X0061695Y0139200D02*
X0061695Y0144400D01*
X0061695Y0169200D02*
X0061695Y0174400D01*
X0071695Y0174400D02*
X0071695Y0169200D01*
X0081695Y0169200D02*
X0081695Y0174400D01*
X0091695Y0174400D02*
X0091695Y0169200D01*
X0101695Y0169200D02*
X0101695Y0174400D01*
X0111695Y0174400D02*
X0111695Y0169200D01*
X0121695Y0169200D02*
X0121695Y0174400D01*
D16*
X0086695Y0126800D03*
X0086695Y0111800D03*
X0086695Y0091800D03*
X0086695Y0076800D03*
X0056695Y0076800D03*
X0056695Y0091800D03*
X0056695Y0111800D03*
X0056695Y0126800D03*
X0121695Y0096800D03*
X0161695Y0096800D03*
X0207945Y0149300D03*
X0205445Y0164300D03*
X0245445Y0164300D03*
X0247945Y0149300D03*
X0241695Y0040550D03*
X0211695Y0040550D03*
D17*
X0111695Y0031800D03*
X0111695Y0016800D03*
X0081695Y0016800D03*
X0081695Y0031800D03*
X0079195Y0046800D03*
X0101695Y0071800D03*
D18*
X0101695Y0081800D03*
X0079195Y0056800D03*
D19*
X0166695Y0040550D03*
X0176695Y0040550D03*
X0186695Y0040550D03*
X0196695Y0040550D03*
X0201695Y0093050D03*
X0211695Y0093050D03*
X0191695Y0149300D03*
X0181695Y0149300D03*
X0051695Y0146800D03*
X0051695Y0156800D03*
D20*
X0028152Y0041643D02*
X0018782Y0041643D01*
X0018782Y0021957D02*
X0028152Y0021957D01*
D21*
X0018895Y0182900D03*
X0018895Y0200700D03*
X0044495Y0200700D03*
X0044495Y0182900D03*
D22*
X0014195Y0168237D03*
X0014195Y0135363D03*
D23*
X0024825Y0146682D03*
X0024825Y0149241D03*
X0024825Y0151800D03*
X0024825Y0154359D03*
X0024825Y0156918D03*
D24*
X0035445Y0163050D03*
X0041695Y0163050D03*
X0079195Y0131800D03*
X0074195Y0119300D03*
X0074195Y0084300D03*
X0121695Y0121800D03*
X0144195Y0115550D03*
X0149195Y0121800D03*
X0154195Y0126800D03*
X0161695Y0131800D03*
X0169195Y0129300D03*
X0201695Y0136800D03*
X0191695Y0166800D03*
X0171695Y0166800D03*
X0155445Y0196800D03*
X0179195Y0205550D03*
X0211695Y0196800D03*
X0221695Y0196800D03*
X0231695Y0194300D03*
X0241695Y0193050D03*
X0251695Y0193050D03*
X0261695Y0156800D03*
X0241695Y0106800D03*
X0201695Y0103050D03*
X0171695Y0070550D03*
X0126695Y0103050D03*
X0131695Y0141800D03*
X0131695Y0166800D03*
X0090445Y0153050D03*
X0231695Y0066800D03*
X0266695Y0048050D03*
X0241695Y0023050D03*
X0211695Y0021800D03*
X0196695Y0021800D03*
X0152945Y0034300D03*
X0136695Y0030550D03*
X0046695Y0011800D03*
D25*
X0053396Y0011391D02*
X0009195Y0011391D01*
X0009195Y0009793D02*
X0053544Y0009793D01*
X0053396Y0010149D02*
X0054660Y0007099D01*
X0056994Y0004764D01*
X0058115Y0004300D01*
X0010632Y0004300D01*
X0010352Y0004328D01*
X0009834Y0004542D01*
X0009437Y0004939D01*
X0009223Y0005457D01*
X0009195Y0005737D01*
X0009195Y0131647D01*
X0009444Y0131305D01*
X0010137Y0130612D01*
X0010930Y0130035D01*
X0011804Y0129590D01*
X0012737Y0129287D01*
X0013519Y0129163D01*
X0013519Y0134687D01*
X0014872Y0134687D01*
X0014872Y0136039D01*
X0020395Y0136039D01*
X0020271Y0136822D01*
X0019968Y0137754D01*
X0019523Y0138628D01*
X0018947Y0139421D01*
X0018253Y0140114D01*
X0017460Y0140691D01*
X0016586Y0141136D01*
X0015654Y0141439D01*
X0014872Y0141563D01*
X0014872Y0136039D01*
X0013519Y0136039D01*
X0013519Y0141563D01*
X0012737Y0141439D01*
X0011804Y0141136D01*
X0010930Y0140691D01*
X0010137Y0140114D01*
X0009444Y0139421D01*
X0009195Y0139079D01*
X0009195Y0164521D01*
X0009444Y0164179D01*
X0010137Y0163486D01*
X0010930Y0162909D01*
X0011804Y0162464D01*
X0012737Y0162161D01*
X0013519Y0162037D01*
X0013519Y0167561D01*
X0014872Y0167561D01*
X0014872Y0168913D01*
X0020395Y0168913D01*
X0020271Y0169696D01*
X0019968Y0170628D01*
X0019523Y0171502D01*
X0018947Y0172295D01*
X0018253Y0172988D01*
X0017460Y0173565D01*
X0016586Y0174010D01*
X0015654Y0174313D01*
X0014872Y0174437D01*
X0014872Y0168913D01*
X0013519Y0168913D01*
X0013519Y0174437D01*
X0012737Y0174313D01*
X0011804Y0174010D01*
X0010930Y0173565D01*
X0010137Y0172988D01*
X0009444Y0172295D01*
X0009195Y0171953D01*
X0009195Y0207863D01*
X0009223Y0208143D01*
X0009437Y0208661D01*
X0009834Y0209058D01*
X0010352Y0209272D01*
X0010632Y0209300D01*
X0063115Y0209300D01*
X0061994Y0208836D01*
X0059660Y0206501D01*
X0058396Y0203451D01*
X0058396Y0200149D01*
X0059660Y0197099D01*
X0061994Y0194764D01*
X0065044Y0193501D01*
X0068346Y0193501D01*
X0071396Y0194764D01*
X0073731Y0197099D01*
X0074994Y0200149D01*
X0074994Y0203451D01*
X0073731Y0206501D01*
X0071396Y0208836D01*
X0070276Y0209300D01*
X0259660Y0209300D01*
X0264195Y0204764D01*
X0264195Y0160303D01*
X0264576Y0159384D01*
X0265279Y0158681D01*
X0265279Y0158681D01*
X0274195Y0149764D01*
X0274195Y0145380D01*
X0273731Y0146501D01*
X0271396Y0148836D01*
X0268346Y0150099D01*
X0265044Y0150099D01*
X0261994Y0148836D01*
X0259660Y0146501D01*
X0258396Y0143451D01*
X0258396Y0140149D01*
X0259660Y0137099D01*
X0261994Y0134764D01*
X0265044Y0133501D01*
X0268346Y0133501D01*
X0271396Y0134764D01*
X0273731Y0137099D01*
X0274195Y0138220D01*
X0274195Y0035380D01*
X0273731Y0036501D01*
X0271396Y0038836D01*
X0268346Y0040099D01*
X0265044Y0040099D01*
X0261994Y0038836D01*
X0259660Y0036501D01*
X0258396Y0033451D01*
X0258396Y0030149D01*
X0259660Y0027099D01*
X0261994Y0024764D01*
X0265044Y0023501D01*
X0268346Y0023501D01*
X0271396Y0024764D01*
X0273731Y0027099D01*
X0274195Y0028220D01*
X0274195Y0022836D01*
X0265279Y0013919D01*
X0264576Y0013216D01*
X0264195Y0012297D01*
X0264195Y0005737D01*
X0264168Y0005457D01*
X0263953Y0004939D01*
X0263557Y0004542D01*
X0263039Y0004328D01*
X0262758Y0004300D01*
X0065276Y0004300D01*
X0066396Y0004764D01*
X0068731Y0007099D01*
X0069994Y0010149D01*
X0069994Y0013451D01*
X0068731Y0016501D01*
X0066396Y0018836D01*
X0063346Y0020099D01*
X0060044Y0020099D01*
X0056994Y0018836D01*
X0054660Y0016501D01*
X0053396Y0013451D01*
X0053396Y0010149D01*
X0054206Y0008194D02*
X0009195Y0008194D01*
X0009195Y0006596D02*
X0055163Y0006596D01*
X0056761Y0004997D02*
X0009413Y0004997D01*
X0009195Y0012990D02*
X0053396Y0012990D01*
X0053867Y0014588D02*
X0009195Y0014588D01*
X0009195Y0016187D02*
X0015245Y0016187D01*
X0014995Y0016290D02*
X0017452Y0015272D01*
X0029482Y0015272D01*
X0031939Y0016290D01*
X0033819Y0018171D01*
X0033831Y0018200D01*
X0037411Y0018200D01*
X0038735Y0018748D01*
X0048186Y0028200D01*
X0057234Y0028200D01*
X0058466Y0026968D01*
X0060561Y0026100D01*
X0062829Y0026100D01*
X0064924Y0026968D01*
X0066527Y0028571D01*
X0067395Y0030666D01*
X0067395Y0032934D01*
X0066527Y0035029D01*
X0064924Y0036632D01*
X0062829Y0037500D01*
X0060561Y0037500D01*
X0058466Y0036632D01*
X0057234Y0035400D01*
X0045979Y0035400D01*
X0044656Y0034852D01*
X0043643Y0033839D01*
X0035204Y0025400D01*
X0033962Y0025400D01*
X0033819Y0025744D01*
X0031939Y0027625D01*
X0029482Y0028643D01*
X0017452Y0028643D01*
X0014995Y0027625D01*
X0013115Y0025744D01*
X0012097Y0023287D01*
X0012097Y0020628D01*
X0013115Y0018171D01*
X0014995Y0016290D01*
X0013500Y0017785D02*
X0009195Y0017785D01*
X0009195Y0019384D02*
X0012612Y0019384D01*
X0012097Y0020982D02*
X0009195Y0020982D01*
X0009195Y0022581D02*
X0012097Y0022581D01*
X0012466Y0024179D02*
X0009195Y0024179D01*
X0009195Y0025778D02*
X0013148Y0025778D01*
X0014747Y0027376D02*
X0009195Y0027376D01*
X0009195Y0028975D02*
X0038779Y0028975D01*
X0040377Y0030573D02*
X0009195Y0030573D01*
X0009195Y0032172D02*
X0041976Y0032172D01*
X0043574Y0033770D02*
X0009195Y0033770D01*
X0009195Y0035369D02*
X0017140Y0035369D01*
X0017514Y0035268D02*
X0018357Y0035157D01*
X0022889Y0035157D01*
X0022889Y0041064D01*
X0024045Y0041064D01*
X0024045Y0035157D01*
X0028577Y0035157D01*
X0029420Y0035268D01*
X0030241Y0035488D01*
X0031026Y0035814D01*
X0031763Y0036239D01*
X0032437Y0036756D01*
X0033038Y0037357D01*
X0033556Y0038032D01*
X0033981Y0038768D01*
X0034306Y0039553D01*
X0034526Y0040375D01*
X0034617Y0041065D01*
X0024045Y0041065D01*
X0024045Y0042220D01*
X0034617Y0042220D01*
X0034526Y0042910D01*
X0034306Y0043732D01*
X0033981Y0044517D01*
X0033556Y0045253D01*
X0033038Y0045928D01*
X0032437Y0046529D01*
X0031763Y0047046D01*
X0031026Y0047471D01*
X0030241Y0047797D01*
X0029420Y0048017D01*
X0028577Y0048128D01*
X0024045Y0048128D01*
X0024045Y0042221D01*
X0022889Y0042221D01*
X0022889Y0048128D01*
X0018357Y0048128D01*
X0017514Y0048017D01*
X0016693Y0047797D01*
X0015907Y0047471D01*
X0015171Y0047046D01*
X0014497Y0046529D01*
X0013896Y0045928D01*
X0013378Y0045253D01*
X0012953Y0044517D01*
X0012628Y0043732D01*
X0012408Y0042910D01*
X0012317Y0042220D01*
X0022889Y0042220D01*
X0022889Y0041065D01*
X0012317Y0041065D01*
X0012408Y0040375D01*
X0012628Y0039553D01*
X0012953Y0038768D01*
X0013378Y0038032D01*
X0013896Y0037357D01*
X0014497Y0036756D01*
X0015171Y0036239D01*
X0015907Y0035814D01*
X0016693Y0035488D01*
X0017514Y0035268D01*
X0014286Y0036967D02*
X0009195Y0036967D01*
X0009195Y0038566D02*
X0013070Y0038566D01*
X0012464Y0040164D02*
X0009195Y0040164D01*
X0009195Y0041763D02*
X0022889Y0041763D01*
X0024045Y0041763D02*
X0075595Y0041763D01*
X0075595Y0042905D02*
X0075595Y0033584D01*
X0076143Y0032261D01*
X0076395Y0032009D01*
X0076395Y0030746D01*
X0077202Y0028798D01*
X0078095Y0027905D01*
X0078095Y0020695D01*
X0077202Y0019802D01*
X0076395Y0017854D01*
X0076395Y0015746D01*
X0077202Y0013798D01*
X0078693Y0012307D01*
X0080641Y0011500D01*
X0082750Y0011500D01*
X0084697Y0012307D01*
X0086188Y0013798D01*
X0086995Y0015746D01*
X0086995Y0017854D01*
X0086188Y0019802D01*
X0085295Y0020695D01*
X0085295Y0027905D01*
X0086188Y0028798D01*
X0086457Y0029447D01*
X0087156Y0028748D01*
X0094656Y0021248D01*
X0095979Y0020700D01*
X0108387Y0020700D01*
X0108373Y0020690D01*
X0107805Y0020122D01*
X0107333Y0019473D01*
X0106969Y0018758D01*
X0106721Y0017994D01*
X0106595Y0017201D01*
X0106595Y0016800D01*
X0106595Y0016399D01*
X0106721Y0015606D01*
X0106969Y0014842D01*
X0107333Y0014127D01*
X0107805Y0013478D01*
X0108373Y0012910D01*
X0109022Y0012438D01*
X0109738Y0012074D01*
X0110501Y0011826D01*
X0111294Y0011700D01*
X0111695Y0011700D01*
X0111695Y0016800D01*
X0111695Y0016800D01*
X0106595Y0016800D01*
X0111695Y0016800D01*
X0111695Y0016800D01*
X0111695Y0011700D01*
X0112097Y0011700D01*
X0112890Y0011826D01*
X0113653Y0012074D01*
X0114368Y0012438D01*
X0115018Y0012910D01*
X0115585Y0013478D01*
X0116057Y0014127D01*
X0116422Y0014842D01*
X0116670Y0015606D01*
X0116795Y0016399D01*
X0116795Y0016800D01*
X0111695Y0016800D01*
X0116795Y0016800D01*
X0116795Y0017201D01*
X0116670Y0017994D01*
X0116422Y0018758D01*
X0116057Y0019473D01*
X0115585Y0020122D01*
X0115018Y0020690D01*
X0115004Y0020700D01*
X0180204Y0020700D01*
X0183095Y0017809D01*
X0183095Y0016261D01*
X0181863Y0015029D01*
X0181576Y0014336D01*
X0181399Y0014683D01*
X0180890Y0015383D01*
X0180278Y0015995D01*
X0179578Y0016504D01*
X0178807Y0016897D01*
X0177983Y0017165D01*
X0177128Y0017300D01*
X0176895Y0017300D01*
X0176895Y0012000D01*
X0176495Y0012000D01*
X0176495Y0011600D01*
X0171195Y0011600D01*
X0166895Y0011600D01*
X0166895Y0006300D01*
X0167128Y0006300D01*
X0167983Y0006435D01*
X0168807Y0006703D01*
X0169578Y0007096D01*
X0170278Y0007605D01*
X0170890Y0008217D01*
X0171399Y0008917D01*
X0171695Y0009498D01*
X0171991Y0008917D01*
X0172500Y0008217D01*
X0173112Y0007605D01*
X0173813Y0007096D01*
X0174584Y0006703D01*
X0175407Y0006435D01*
X0176262Y0006300D01*
X0176495Y0006300D01*
X0176495Y0011600D01*
X0176895Y0011600D01*
X0176895Y0006300D01*
X0177128Y0006300D01*
X0177983Y0006435D01*
X0178807Y0006703D01*
X0179578Y0007096D01*
X0180278Y0007605D01*
X0180890Y0008217D01*
X0181399Y0008917D01*
X0181576Y0009264D01*
X0181863Y0008571D01*
X0183466Y0006968D01*
X0185561Y0006100D01*
X0187829Y0006100D01*
X0189924Y0006968D01*
X0191527Y0008571D01*
X0192395Y0010666D01*
X0192395Y0012934D01*
X0191527Y0015029D01*
X0190295Y0016261D01*
X0190295Y0020016D01*
X0189747Y0021339D01*
X0185836Y0025250D01*
X0238502Y0025250D01*
X0239531Y0025676D01*
X0243281Y0029426D01*
X0244069Y0030214D01*
X0244495Y0031243D01*
X0244495Y0036279D01*
X0246695Y0038479D01*
X0246695Y0042621D01*
X0243766Y0045550D01*
X0239624Y0045550D01*
X0236695Y0042621D01*
X0236695Y0038479D01*
X0238895Y0036279D01*
X0238895Y0032960D01*
X0236785Y0030850D01*
X0140484Y0030850D01*
X0140484Y0031304D01*
X0139907Y0032696D01*
X0138841Y0033762D01*
X0137449Y0034339D01*
X0135942Y0034339D01*
X0134549Y0033762D01*
X0133483Y0032696D01*
X0132907Y0031304D01*
X0132907Y0029796D01*
X0133483Y0028404D01*
X0133987Y0027900D01*
X0115291Y0027900D01*
X0116188Y0028798D01*
X0116995Y0030746D01*
X0116995Y0032854D01*
X0116188Y0034802D01*
X0114895Y0036095D01*
X0114895Y0042140D01*
X0118859Y0038176D01*
X0119888Y0037750D01*
X0155535Y0037750D01*
X0160109Y0033176D01*
X0161138Y0032750D01*
X0182252Y0032750D01*
X0183281Y0033176D01*
X0184069Y0033964D01*
X0185855Y0035750D01*
X0188683Y0035750D01*
X0191495Y0038562D01*
X0191495Y0042538D01*
X0189495Y0044538D01*
X0189495Y0045495D01*
X0190595Y0046594D01*
X0191295Y0048285D01*
X0191295Y0055315D01*
X0190595Y0057006D01*
X0189301Y0058300D01*
X0187610Y0059000D01*
X0185780Y0059000D01*
X0184090Y0058300D01*
X0182796Y0057006D01*
X0182095Y0055315D01*
X0182095Y0048285D01*
X0182796Y0046594D01*
X0183895Y0045495D01*
X0183895Y0044538D01*
X0181895Y0042538D01*
X0181895Y0039710D01*
X0181495Y0039310D01*
X0181495Y0042538D01*
X0178899Y0045134D01*
X0179301Y0045300D01*
X0180595Y0046594D01*
X0181295Y0048285D01*
X0181295Y0055315D01*
X0180595Y0057006D01*
X0179301Y0058300D01*
X0177610Y0059000D01*
X0175780Y0059000D01*
X0174090Y0058300D01*
X0172796Y0057006D01*
X0172095Y0055315D01*
X0172095Y0048285D01*
X0172796Y0046594D01*
X0174090Y0045300D01*
X0174491Y0045134D01*
X0171895Y0042538D01*
X0171895Y0038562D01*
X0172107Y0038350D01*
X0171001Y0038350D01*
X0171295Y0038645D01*
X0171295Y0040550D01*
X0171295Y0042455D01*
X0168699Y0045051D01*
X0169301Y0045300D01*
X0170595Y0046594D01*
X0171295Y0048285D01*
X0171295Y0055315D01*
X0170595Y0057006D01*
X0169301Y0058300D01*
X0167610Y0059000D01*
X0165780Y0059000D01*
X0164090Y0058300D01*
X0162796Y0057006D01*
X0162095Y0055315D01*
X0162095Y0048285D01*
X0162796Y0046594D01*
X0164090Y0045300D01*
X0164691Y0045051D01*
X0162095Y0042455D01*
X0162095Y0040550D01*
X0162095Y0039110D01*
X0159069Y0042136D01*
X0158281Y0042924D01*
X0157252Y0043350D01*
X0121605Y0043350D01*
X0118245Y0046710D01*
X0118245Y0093179D01*
X0119624Y0091800D01*
X0121485Y0091800D01*
X0119322Y0089636D01*
X0118895Y0088607D01*
X0118895Y0068743D01*
X0119322Y0067714D01*
X0120109Y0066926D01*
X0123895Y0063140D01*
X0123895Y0058105D01*
X0122796Y0057006D01*
X0122095Y0055315D01*
X0122095Y0048285D01*
X0122796Y0046594D01*
X0124090Y0045300D01*
X0125780Y0044600D01*
X0127610Y0044600D01*
X0129301Y0045300D01*
X0130595Y0046594D01*
X0131295Y0048285D01*
X0131295Y0055315D01*
X0130595Y0057006D01*
X0129495Y0058105D01*
X0129495Y0064857D01*
X0129069Y0065886D01*
X0124495Y0070460D01*
X0124495Y0075132D01*
X0125780Y0074600D01*
X0127610Y0074600D01*
X0129301Y0075300D01*
X0130595Y0076594D01*
X0131295Y0078285D01*
X0131295Y0084940D01*
X0132396Y0086041D01*
X0132095Y0085315D01*
X0132095Y0078285D01*
X0132796Y0076594D01*
X0134090Y0075300D01*
X0135780Y0074600D01*
X0137610Y0074600D01*
X0139301Y0075300D01*
X0140595Y0076594D01*
X0141295Y0078285D01*
X0141295Y0085315D01*
X0140595Y0087006D01*
X0139495Y0088105D01*
X0139495Y0088140D01*
X0143895Y0092540D01*
X0143895Y0088105D01*
X0142796Y0087006D01*
X0142095Y0085315D01*
X0142095Y0078285D01*
X0142796Y0076594D01*
X0144090Y0075300D01*
X0145780Y0074600D01*
X0147610Y0074600D01*
X0149301Y0075300D01*
X0150595Y0076594D01*
X0151295Y0078285D01*
X0151295Y0085315D01*
X0150595Y0087006D01*
X0149495Y0088105D01*
X0149495Y0093140D01*
X0153895Y0097540D01*
X0153895Y0088105D01*
X0152796Y0087006D01*
X0152095Y0085315D01*
X0152095Y0078285D01*
X0152796Y0076594D01*
X0154090Y0075300D01*
X0155780Y0074600D01*
X0157610Y0074600D01*
X0159301Y0075300D01*
X0160595Y0076594D01*
X0161295Y0078285D01*
X0161295Y0085315D01*
X0160595Y0087006D01*
X0159495Y0088105D01*
X0159495Y0091929D01*
X0159624Y0091800D01*
X0163766Y0091800D01*
X0166695Y0094729D01*
X0166695Y0098871D01*
X0163766Y0101800D01*
X0163155Y0101800D01*
X0166605Y0105250D01*
X0212435Y0105250D01*
X0205109Y0097924D01*
X0204359Y0097174D01*
X0203683Y0097850D01*
X0199707Y0097850D01*
X0196895Y0095038D01*
X0196895Y0091062D01*
X0199707Y0088250D01*
X0203683Y0088250D01*
X0203895Y0088462D01*
X0203895Y0088105D01*
X0202796Y0087006D01*
X0202095Y0085315D01*
X0202095Y0078285D01*
X0202796Y0076594D01*
X0204090Y0075300D01*
X0205780Y0074600D01*
X0207610Y0074600D01*
X0209301Y0075300D01*
X0210595Y0076594D01*
X0211295Y0078285D01*
X0211295Y0085315D01*
X0210595Y0087006D01*
X0209495Y0088105D01*
X0209495Y0088745D01*
X0209790Y0088450D01*
X0211695Y0088450D01*
X0211695Y0093050D01*
X0211695Y0093050D01*
X0211695Y0088450D01*
X0213601Y0088450D01*
X0216295Y0091145D01*
X0216295Y0093050D01*
X0216295Y0094955D01*
X0213601Y0097650D01*
X0212755Y0097650D01*
X0218895Y0103790D01*
X0218895Y0088468D01*
X0217610Y0089000D01*
X0215780Y0089000D01*
X0214090Y0088300D01*
X0212796Y0087006D01*
X0212095Y0085315D01*
X0212095Y0078285D01*
X0212796Y0076594D01*
X0214090Y0075300D01*
X0215780Y0074600D01*
X0217610Y0074600D01*
X0219301Y0075300D01*
X0220595Y0076594D01*
X0221295Y0078285D01*
X0221295Y0082440D01*
X0222095Y0083240D01*
X0222095Y0078285D01*
X0222796Y0076594D01*
X0224090Y0075300D01*
X0225780Y0074600D01*
X0227610Y0074600D01*
X0229301Y0075300D01*
X0230595Y0076594D01*
X0231295Y0078285D01*
X0231295Y0085315D01*
X0230595Y0087006D01*
X0229495Y0088105D01*
X0229495Y0104390D01*
X0233895Y0108790D01*
X0233895Y0088105D01*
X0232796Y0087006D01*
X0232095Y0085315D01*
X0232095Y0078285D01*
X0232796Y0076594D01*
X0234090Y0075300D01*
X0235780Y0074600D01*
X0237610Y0074600D01*
X0239301Y0075300D01*
X0240595Y0076594D01*
X0241295Y0078285D01*
X0241295Y0085315D01*
X0240595Y0087006D01*
X0239495Y0088105D01*
X0239495Y0109390D01*
X0243895Y0113790D01*
X0243895Y0088105D01*
X0242796Y0087006D01*
X0242095Y0085315D01*
X0242095Y0078285D01*
X0242796Y0076594D01*
X0244090Y0075300D01*
X0245780Y0074600D01*
X0247610Y0074600D01*
X0249301Y0075300D01*
X0250595Y0076594D01*
X0251295Y0078285D01*
X0251295Y0085315D01*
X0250595Y0087006D01*
X0249495Y0088105D01*
X0249495Y0144300D01*
X0250016Y0144300D01*
X0252945Y0147229D01*
X0252945Y0151371D01*
X0250745Y0153571D01*
X0250745Y0156890D01*
X0253281Y0159426D01*
X0254069Y0160214D01*
X0254495Y0161243D01*
X0254495Y0175640D01*
X0259069Y0180214D01*
X0259495Y0181243D01*
X0259495Y0196100D01*
X0261224Y0196100D01*
X0262395Y0197272D01*
X0262395Y0206328D01*
X0261224Y0207500D01*
X0252167Y0207500D01*
X0250995Y0206328D01*
X0250995Y0205561D01*
X0249924Y0206632D01*
X0247829Y0207500D01*
X0245561Y0207500D01*
X0243466Y0206632D01*
X0241863Y0205029D01*
X0241695Y0204624D01*
X0241527Y0205029D01*
X0239924Y0206632D01*
X0237829Y0207500D01*
X0235561Y0207500D01*
X0233466Y0206632D01*
X0231863Y0205029D01*
X0231695Y0204624D01*
X0231527Y0205029D01*
X0229924Y0206632D01*
X0227829Y0207500D01*
X0225561Y0207500D01*
X0223466Y0206632D01*
X0221863Y0205029D01*
X0221695Y0204624D01*
X0221527Y0205029D01*
X0219924Y0206632D01*
X0217829Y0207500D01*
X0215561Y0207500D01*
X0213466Y0206632D01*
X0211863Y0205029D01*
X0211695Y0204624D01*
X0211527Y0205029D01*
X0209924Y0206632D01*
X0207829Y0207500D01*
X0205561Y0207500D01*
X0203466Y0206632D01*
X0201863Y0205029D01*
X0201695Y0204624D01*
X0201527Y0205029D01*
X0199924Y0206632D01*
X0197829Y0207500D01*
X0195561Y0207500D01*
X0193466Y0206632D01*
X0191863Y0205029D01*
X0191695Y0204624D01*
X0191527Y0205029D01*
X0189924Y0206632D01*
X0187829Y0207500D01*
X0185561Y0207500D01*
X0183466Y0206632D01*
X0181863Y0205029D01*
X0180995Y0202934D01*
X0180995Y0200666D01*
X0181863Y0198571D01*
X0183466Y0196968D01*
X0185561Y0196100D01*
X0187829Y0196100D01*
X0188258Y0196278D01*
X0204935Y0179600D01*
X0177855Y0179600D01*
X0173495Y0183960D01*
X0173495Y0196100D01*
X0175224Y0196100D01*
X0176395Y0197272D01*
X0176395Y0206328D01*
X0175224Y0207500D01*
X0166167Y0207500D01*
X0164995Y0206328D01*
X0164995Y0205561D01*
X0163924Y0206632D01*
X0161829Y0207500D01*
X0159561Y0207500D01*
X0157466Y0206632D01*
X0155863Y0205029D01*
X0155695Y0204624D01*
X0155527Y0205029D01*
X0153924Y0206632D01*
X0151829Y0207500D01*
X0149561Y0207500D01*
X0147466Y0206632D01*
X0145863Y0205029D01*
X0145695Y0204624D01*
X0145527Y0205029D01*
X0143924Y0206632D01*
X0141829Y0207500D01*
X0139561Y0207500D01*
X0137466Y0206632D01*
X0135863Y0205029D01*
X0135695Y0204624D01*
X0135527Y0205029D01*
X0133924Y0206632D01*
X0131829Y0207500D01*
X0129561Y0207500D01*
X0127466Y0206632D01*
X0125863Y0205029D01*
X0125695Y0204624D01*
X0125527Y0205029D01*
X0123924Y0206632D01*
X0121829Y0207500D01*
X0119561Y0207500D01*
X0117466Y0206632D01*
X0115863Y0205029D01*
X0115576Y0204336D01*
X0115399Y0204683D01*
X0114890Y0205383D01*
X0114278Y0205995D01*
X0113578Y0206504D01*
X0112807Y0206897D01*
X0111983Y0207165D01*
X0111128Y0207300D01*
X0110895Y0207300D01*
X0110895Y0202000D01*
X0110495Y0202000D01*
X0110495Y0207300D01*
X0110262Y0207300D01*
X0109407Y0207165D01*
X0108584Y0206897D01*
X0107813Y0206504D01*
X0107112Y0205995D01*
X0106500Y0205383D01*
X0105991Y0204683D01*
X0105815Y0204336D01*
X0105527Y0205029D01*
X0103924Y0206632D01*
X0101829Y0207500D01*
X0099561Y0207500D01*
X0097466Y0206632D01*
X0095863Y0205029D01*
X0094995Y0202934D01*
X0094995Y0200666D01*
X0095863Y0198571D01*
X0097466Y0196968D01*
X0097895Y0196790D01*
X0097895Y0192243D01*
X0098322Y0191214D01*
X0101822Y0187714D01*
X0102609Y0186926D01*
X0103638Y0186500D01*
X0120535Y0186500D01*
X0138895Y0168140D01*
X0138895Y0137960D01*
X0132609Y0131674D01*
X0131822Y0130886D01*
X0131395Y0129857D01*
X0131395Y0121710D01*
X0113859Y0104174D01*
X0113072Y0103386D01*
X0112645Y0102357D01*
X0112645Y0095375D01*
X0110489Y0097532D01*
X0111527Y0098571D01*
X0112395Y0100666D01*
X0112395Y0102934D01*
X0111527Y0105029D01*
X0109924Y0106632D01*
X0107829Y0107500D01*
X0105561Y0107500D01*
X0103466Y0106632D01*
X0101863Y0105029D01*
X0100995Y0102934D01*
X0100995Y0100666D01*
X0101863Y0098571D01*
X0103466Y0096968D01*
X0103495Y0096956D01*
X0103495Y0096163D01*
X0103982Y0094987D01*
X0108495Y0090475D01*
X0108495Y0036095D01*
X0107202Y0034802D01*
X0106395Y0032854D01*
X0106395Y0030746D01*
X0107202Y0028798D01*
X0108100Y0027900D01*
X0098186Y0027900D01*
X0092795Y0033291D01*
X0092795Y0037516D01*
X0092247Y0038839D01*
X0091235Y0039852D01*
X0087886Y0043200D01*
X0089911Y0043200D01*
X0091235Y0043748D01*
X0093586Y0046100D01*
X0095329Y0046100D01*
X0096195Y0046459D01*
X0096195Y0046367D01*
X0096331Y0045512D01*
X0096598Y0044689D01*
X0096991Y0043917D01*
X0097500Y0043217D01*
X0098112Y0042605D01*
X0098813Y0042096D01*
X0099584Y0041703D01*
X0100407Y0041435D01*
X0101262Y0041300D01*
X0101695Y0041300D01*
X0101695Y0046800D01*
X0101695Y0046800D01*
X0101695Y0041300D01*
X0102128Y0041300D01*
X0102983Y0041435D01*
X0103807Y0041703D01*
X0104578Y0042096D01*
X0105278Y0042605D01*
X0105890Y0043217D01*
X0106399Y0043917D01*
X0106792Y0044689D01*
X0107060Y0045512D01*
X0107195Y0046367D01*
X0107195Y0046800D01*
X0107195Y0047233D01*
X0107060Y0048088D01*
X0106792Y0048911D01*
X0106399Y0049683D01*
X0105890Y0050383D01*
X0105278Y0050995D01*
X0104578Y0051504D01*
X0104231Y0051681D01*
X0104924Y0051968D01*
X0106527Y0053571D01*
X0107395Y0055666D01*
X0107395Y0057934D01*
X0106527Y0060029D01*
X0105295Y0061261D01*
X0105295Y0067905D01*
X0106188Y0068798D01*
X0106995Y0070746D01*
X0106995Y0072854D01*
X0106188Y0074802D01*
X0104697Y0076293D01*
X0103715Y0076700D01*
X0103808Y0076700D01*
X0106795Y0079688D01*
X0106795Y0081800D01*
X0106795Y0083912D01*
X0103808Y0086900D01*
X0101695Y0086900D01*
X0099583Y0086900D01*
X0096595Y0083912D01*
X0096595Y0081800D01*
X0096595Y0079688D01*
X0099583Y0076700D01*
X0099675Y0076700D01*
X0098693Y0076293D01*
X0097800Y0075400D01*
X0093479Y0075400D01*
X0092156Y0074852D01*
X0091143Y0073839D01*
X0090204Y0072900D01*
X0089866Y0072900D01*
X0091695Y0074729D01*
X0091695Y0077840D01*
X0095319Y0081464D01*
X0095745Y0082493D01*
X0095745Y0091890D01*
X0099069Y0095214D01*
X0099495Y0096243D01*
X0099495Y0124390D01*
X0109069Y0133964D01*
X0109495Y0134993D01*
X0109495Y0135132D01*
X0110780Y0134600D01*
X0112610Y0134600D01*
X0114301Y0135300D01*
X0115595Y0136594D01*
X0116295Y0138285D01*
X0116295Y0145315D01*
X0115595Y0147006D01*
X0114301Y0148300D01*
X0112610Y0149000D01*
X0110780Y0149000D01*
X0109495Y0148468D01*
X0109495Y0155640D01*
X0114069Y0160214D01*
X0114495Y0161243D01*
X0114495Y0165495D01*
X0115595Y0166594D01*
X0116295Y0168285D01*
X0116295Y0175315D01*
X0115595Y0177006D01*
X0114301Y0178300D01*
X0112610Y0179000D01*
X0110780Y0179000D01*
X0109090Y0178300D01*
X0107796Y0177006D01*
X0107095Y0175315D01*
X0107095Y0168285D01*
X0107796Y0166594D01*
X0108895Y0165495D01*
X0108895Y0162960D01*
X0105109Y0159174D01*
X0104322Y0158386D01*
X0103895Y0157357D01*
X0103895Y0148468D01*
X0102610Y0149000D01*
X0100780Y0149000D01*
X0099495Y0148468D01*
X0099495Y0155640D01*
X0104069Y0160214D01*
X0104495Y0161243D01*
X0104495Y0165495D01*
X0105595Y0166594D01*
X0106295Y0168285D01*
X0106295Y0175315D01*
X0105595Y0177006D01*
X0104301Y0178300D01*
X0102610Y0179000D01*
X0100780Y0179000D01*
X0099090Y0178300D01*
X0097796Y0177006D01*
X0097095Y0175315D01*
X0097095Y0168285D01*
X0097796Y0166594D01*
X0098895Y0165495D01*
X0098895Y0162960D01*
X0095109Y0159174D01*
X0094322Y0158386D01*
X0093895Y0157357D01*
X0093895Y0148468D01*
X0092610Y0149000D01*
X0090780Y0149000D01*
X0089090Y0148300D01*
X0087796Y0147006D01*
X0087095Y0145315D01*
X0087095Y0138285D01*
X0087796Y0136594D01*
X0088895Y0135495D01*
X0088895Y0132960D01*
X0087735Y0131800D01*
X0084624Y0131800D01*
X0081695Y0128871D01*
X0081695Y0125760D01*
X0078035Y0122100D01*
X0076753Y0122100D01*
X0076341Y0122512D01*
X0074949Y0123089D01*
X0073442Y0123089D01*
X0072049Y0122512D01*
X0071545Y0122008D01*
X0071545Y0131266D01*
X0070997Y0132589D01*
X0069985Y0133602D01*
X0066004Y0137582D01*
X0066295Y0138285D01*
X0066295Y0145315D01*
X0065595Y0147006D01*
X0065295Y0147305D01*
X0065295Y0147809D01*
X0068186Y0150700D01*
X0082353Y0150700D01*
X0082470Y0150660D01*
X0083065Y0150700D01*
X0083661Y0150700D01*
X0083776Y0150747D01*
X0083899Y0150756D01*
X0084434Y0151020D01*
X0084985Y0151248D01*
X0085072Y0151336D01*
X0085183Y0151390D01*
X0085576Y0151839D01*
X0085997Y0152261D01*
X0086045Y0152375D01*
X0094326Y0161839D01*
X0094747Y0162261D01*
X0094795Y0162375D01*
X0094876Y0162468D01*
X0095067Y0163033D01*
X0095295Y0163584D01*
X0095295Y0163708D01*
X0095335Y0163825D01*
X0095295Y0164420D01*
X0095295Y0166295D01*
X0095595Y0166594D01*
X0096295Y0168285D01*
X0096295Y0175315D01*
X0095595Y0177006D01*
X0094301Y0178300D01*
X0092610Y0179000D01*
X0090780Y0179000D01*
X0089090Y0178300D01*
X0087796Y0177006D01*
X0087095Y0175315D01*
X0087095Y0168285D01*
X0087796Y0166594D01*
X0088095Y0166295D01*
X0088095Y0165653D01*
X0081312Y0157900D01*
X0069255Y0157900D01*
X0074069Y0162714D01*
X0074495Y0163743D01*
X0074495Y0165495D01*
X0075595Y0166594D01*
X0076295Y0168285D01*
X0076295Y0175315D01*
X0075595Y0177006D01*
X0074301Y0178300D01*
X0072610Y0179000D01*
X0070780Y0179000D01*
X0069090Y0178300D01*
X0067796Y0177006D01*
X0067095Y0175315D01*
X0067095Y0168285D01*
X0067796Y0166594D01*
X0068895Y0165495D01*
X0068895Y0165460D01*
X0065535Y0162100D01*
X0062855Y0162100D01*
X0059652Y0165303D01*
X0060006Y0165122D01*
X0060665Y0164908D01*
X0061349Y0164800D01*
X0061695Y0164800D01*
X0061695Y0171800D01*
X0061695Y0171800D01*
X0057295Y0171800D01*
X0057295Y0168854D01*
X0057404Y0168170D01*
X0057618Y0167511D01*
X0057798Y0167157D01*
X0057031Y0167924D01*
X0056002Y0168350D01*
X0048638Y0168350D01*
X0047609Y0167924D01*
X0044894Y0165209D01*
X0043841Y0166262D01*
X0042449Y0166839D01*
X0040942Y0166839D01*
X0039549Y0166262D01*
X0038570Y0165283D01*
X0037591Y0166262D01*
X0036199Y0166839D01*
X0034692Y0166839D01*
X0033299Y0166262D01*
X0032233Y0165196D01*
X0031657Y0163804D01*
X0031657Y0162296D01*
X0032233Y0160904D01*
X0032248Y0160889D01*
X0030778Y0159418D01*
X0029116Y0159418D01*
X0029286Y0159829D01*
X0029286Y0161290D01*
X0028727Y0162641D01*
X0027693Y0163674D01*
X0026343Y0164233D01*
X0024882Y0164233D01*
X0023532Y0163674D01*
X0022499Y0162641D01*
X0021939Y0161290D01*
X0021939Y0159829D01*
X0021991Y0159705D01*
X0021339Y0159705D01*
X0020168Y0158534D01*
X0020168Y0147625D01*
X0020368Y0147425D01*
X0020368Y0146682D01*
X0021111Y0146682D01*
X0021111Y0146682D01*
X0020368Y0146682D01*
X0020368Y0145658D01*
X0020490Y0145200D01*
X0020727Y0144789D01*
X0021062Y0144454D01*
X0021473Y0144217D01*
X0021931Y0144094D01*
X0022073Y0144094D01*
X0021939Y0143771D01*
X0021939Y0142309D01*
X0022499Y0140959D01*
X0023532Y0139926D01*
X0024882Y0139367D01*
X0026343Y0139367D01*
X0027693Y0139926D01*
X0028727Y0140959D01*
X0029286Y0142309D01*
X0029286Y0143771D01*
X0028881Y0144747D01*
X0028923Y0144789D01*
X0029160Y0145200D01*
X0029283Y0145658D01*
X0029283Y0146682D01*
X0029283Y0147425D01*
X0029483Y0147625D01*
X0029483Y0149300D01*
X0035943Y0149300D01*
X0036861Y0149681D01*
X0037565Y0150384D01*
X0047557Y0160376D01*
X0048281Y0160676D01*
X0050355Y0162750D01*
X0054285Y0162750D01*
X0060109Y0156926D01*
X0061138Y0156500D01*
X0063804Y0156500D01*
X0059656Y0152352D01*
X0058643Y0151339D01*
X0058095Y0150016D01*
X0058095Y0147305D01*
X0057796Y0147006D01*
X0057440Y0146147D01*
X0056495Y0147091D01*
X0056495Y0148788D01*
X0053683Y0151600D01*
X0049707Y0151600D01*
X0046895Y0148788D01*
X0046895Y0144812D01*
X0049707Y0142000D01*
X0051404Y0142000D01*
X0053643Y0139761D01*
X0054656Y0138748D01*
X0055979Y0138200D01*
X0057130Y0138200D01*
X0057386Y0137582D01*
X0053643Y0133839D01*
X0053095Y0132516D01*
X0053095Y0130271D01*
X0051916Y0129091D01*
X0051527Y0130029D01*
X0049924Y0131632D01*
X0047829Y0132500D01*
X0045561Y0132500D01*
X0043466Y0131632D01*
X0041863Y0130029D01*
X0041695Y0129624D01*
X0041527Y0130029D01*
X0039924Y0131632D01*
X0037829Y0132500D01*
X0035561Y0132500D01*
X0033466Y0131632D01*
X0031863Y0130029D01*
X0030995Y0127934D01*
X0030995Y0125666D01*
X0031863Y0123571D01*
X0033095Y0122339D01*
X0033095Y0111261D01*
X0031863Y0110029D01*
X0030995Y0107934D01*
X0030995Y0105666D01*
X0031863Y0103571D01*
X0033095Y0102339D01*
X0033095Y0091261D01*
X0031863Y0090029D01*
X0030995Y0087934D01*
X0030995Y0086191D01*
X0024893Y0080089D01*
X0024345Y0078766D01*
X0024345Y0062334D01*
X0024893Y0061011D01*
X0025906Y0059998D01*
X0032156Y0053748D01*
X0033479Y0053200D01*
X0051161Y0053200D01*
X0052485Y0053748D01*
X0053497Y0054761D01*
X0059436Y0060700D01*
X0075883Y0060700D01*
X0074095Y0058912D01*
X0074095Y0056800D01*
X0074095Y0054688D01*
X0077083Y0051700D01*
X0077175Y0051700D01*
X0076193Y0051293D01*
X0075300Y0050400D01*
X0068186Y0050400D01*
X0067395Y0051191D01*
X0067395Y0052934D01*
X0066527Y0055029D01*
X0064924Y0056632D01*
X0062829Y0057500D01*
X0060561Y0057500D01*
X0058466Y0056632D01*
X0056863Y0055029D01*
X0055995Y0052934D01*
X0055995Y0050666D01*
X0056863Y0048571D01*
X0058466Y0046968D01*
X0060561Y0046100D01*
X0062304Y0046100D01*
X0063643Y0044761D01*
X0063643Y0044761D01*
X0064656Y0043748D01*
X0065979Y0043200D01*
X0075300Y0043200D01*
X0075595Y0042905D01*
X0075595Y0040164D02*
X0034470Y0040164D01*
X0033864Y0038566D02*
X0075595Y0038566D01*
X0075595Y0036967D02*
X0064115Y0036967D01*
X0066188Y0035369D02*
X0075595Y0035369D01*
X0075595Y0033770D02*
X0067049Y0033770D01*
X0067395Y0032172D02*
X0076232Y0032172D01*
X0076467Y0030573D02*
X0067357Y0030573D01*
X0066695Y0028975D02*
X0077129Y0028975D01*
X0078095Y0027376D02*
X0065332Y0027376D01*
X0058058Y0027376D02*
X0047363Y0027376D01*
X0045764Y0025778D02*
X0078095Y0025778D01*
X0078095Y0024179D02*
X0044166Y0024179D01*
X0042567Y0022581D02*
X0078095Y0022581D01*
X0078095Y0020982D02*
X0040969Y0020982D01*
X0039370Y0019384D02*
X0058317Y0019384D01*
X0055944Y0017785D02*
X0033434Y0017785D01*
X0031689Y0016187D02*
X0054529Y0016187D01*
X0065074Y0019384D02*
X0077029Y0019384D01*
X0076395Y0017785D02*
X0067447Y0017785D01*
X0068861Y0016187D02*
X0076395Y0016187D01*
X0076875Y0014588D02*
X0069523Y0014588D01*
X0069994Y0012990D02*
X0078010Y0012990D01*
X0085380Y0012990D02*
X0108293Y0012990D01*
X0107098Y0014588D02*
X0086516Y0014588D01*
X0086995Y0016187D02*
X0106629Y0016187D01*
X0106688Y0017785D02*
X0086995Y0017785D01*
X0086362Y0019384D02*
X0107288Y0019384D01*
X0111695Y0016800D02*
X0111695Y0016800D01*
X0111695Y0016187D02*
X0111695Y0016187D01*
X0111695Y0014588D02*
X0111695Y0014588D01*
X0111695Y0012990D02*
X0111695Y0012990D01*
X0115097Y0012990D02*
X0131018Y0012990D01*
X0130995Y0012934D02*
X0130995Y0010666D01*
X0131863Y0008571D01*
X0133466Y0006968D01*
X0135561Y0006100D01*
X0137829Y0006100D01*
X0139924Y0006968D01*
X0141527Y0008571D01*
X0141695Y0008976D01*
X0141863Y0008571D01*
X0143466Y0006968D01*
X0145561Y0006100D01*
X0147829Y0006100D01*
X0149924Y0006968D01*
X0151527Y0008571D01*
X0151695Y0008976D01*
X0151863Y0008571D01*
X0153466Y0006968D01*
X0155561Y0006100D01*
X0157829Y0006100D01*
X0159924Y0006968D01*
X0161527Y0008571D01*
X0161815Y0009264D01*
X0161991Y0008917D01*
X0162500Y0008217D01*
X0163112Y0007605D01*
X0163813Y0007096D01*
X0164584Y0006703D01*
X0165407Y0006435D01*
X0166262Y0006300D01*
X0166495Y0006300D01*
X0166495Y0011600D01*
X0166895Y0011600D01*
X0166895Y0012000D01*
X0166495Y0012000D01*
X0166495Y0017300D01*
X0166262Y0017300D01*
X0165407Y0017165D01*
X0164584Y0016897D01*
X0163813Y0016504D01*
X0163112Y0015995D01*
X0162500Y0015383D01*
X0161991Y0014683D01*
X0161815Y0014336D01*
X0161527Y0015029D01*
X0159924Y0016632D01*
X0157829Y0017500D01*
X0155561Y0017500D01*
X0153466Y0016632D01*
X0151863Y0015029D01*
X0151695Y0014624D01*
X0151527Y0015029D01*
X0149924Y0016632D01*
X0147829Y0017500D01*
X0145561Y0017500D01*
X0143466Y0016632D01*
X0141863Y0015029D01*
X0141695Y0014624D01*
X0141527Y0015029D01*
X0139924Y0016632D01*
X0137829Y0017500D01*
X0135561Y0017500D01*
X0133466Y0016632D01*
X0131863Y0015029D01*
X0130995Y0012934D01*
X0130995Y0011391D02*
X0069994Y0011391D01*
X0069847Y0009793D02*
X0131357Y0009793D01*
X0132240Y0008194D02*
X0069185Y0008194D01*
X0068228Y0006596D02*
X0134365Y0006596D01*
X0139025Y0006596D02*
X0144365Y0006596D01*
X0142240Y0008194D02*
X0141150Y0008194D01*
X0149025Y0006596D02*
X0154365Y0006596D01*
X0152240Y0008194D02*
X0151150Y0008194D01*
X0159025Y0006596D02*
X0164915Y0006596D01*
X0166495Y0006596D02*
X0166895Y0006596D01*
X0168476Y0006596D02*
X0174915Y0006596D01*
X0176495Y0006596D02*
X0176895Y0006596D01*
X0178476Y0006596D02*
X0184365Y0006596D01*
X0182240Y0008194D02*
X0180867Y0008194D01*
X0176895Y0008194D02*
X0176495Y0008194D01*
X0176495Y0009793D02*
X0176895Y0009793D01*
X0176895Y0011391D02*
X0176495Y0011391D01*
X0176495Y0012000D02*
X0166895Y0012000D01*
X0166895Y0017300D01*
X0167128Y0017300D01*
X0167983Y0017165D01*
X0168807Y0016897D01*
X0169578Y0016504D01*
X0170278Y0015995D01*
X0170890Y0015383D01*
X0171399Y0014683D01*
X0171695Y0014102D01*
X0171991Y0014683D01*
X0172500Y0015383D01*
X0173112Y0015995D01*
X0173813Y0016504D01*
X0174584Y0016897D01*
X0175407Y0017165D01*
X0176262Y0017300D01*
X0176495Y0017300D01*
X0176495Y0012000D01*
X0176495Y0012990D02*
X0176895Y0012990D01*
X0176895Y0014588D02*
X0176495Y0014588D01*
X0176495Y0016187D02*
X0176895Y0016187D01*
X0180015Y0016187D02*
X0183021Y0016187D01*
X0183095Y0017785D02*
X0116703Y0017785D01*
X0116762Y0016187D02*
X0133021Y0016187D01*
X0131681Y0014588D02*
X0116292Y0014588D01*
X0116103Y0019384D02*
X0181520Y0019384D01*
X0181447Y0014588D02*
X0181681Y0014588D01*
X0173376Y0016187D02*
X0170015Y0016187D01*
X0171447Y0014588D02*
X0171943Y0014588D01*
X0166895Y0014588D02*
X0166495Y0014588D01*
X0166495Y0012990D02*
X0166895Y0012990D01*
X0166895Y0011391D02*
X0166495Y0011391D01*
X0166495Y0009793D02*
X0166895Y0009793D01*
X0166895Y0008194D02*
X0166495Y0008194D01*
X0162523Y0008194D02*
X0161150Y0008194D01*
X0161710Y0014588D02*
X0161943Y0014588D01*
X0163376Y0016187D02*
X0160370Y0016187D01*
X0166495Y0016187D02*
X0166895Y0016187D01*
X0170867Y0008194D02*
X0172523Y0008194D01*
X0189025Y0006596D02*
X0204365Y0006596D01*
X0203466Y0006968D02*
X0205561Y0006100D01*
X0207829Y0006100D01*
X0209924Y0006968D01*
X0211527Y0008571D01*
X0211695Y0008976D01*
X0211863Y0008571D01*
X0213466Y0006968D01*
X0215561Y0006100D01*
X0217829Y0006100D01*
X0219924Y0006968D01*
X0221527Y0008571D01*
X0221695Y0008976D01*
X0221863Y0008571D01*
X0223466Y0006968D01*
X0225561Y0006100D01*
X0227829Y0006100D01*
X0229924Y0006968D01*
X0231527Y0008571D01*
X0231695Y0008976D01*
X0231863Y0008571D01*
X0233466Y0006968D01*
X0235561Y0006100D01*
X0237829Y0006100D01*
X0239924Y0006968D01*
X0241527Y0008571D01*
X0241695Y0008976D01*
X0241863Y0008571D01*
X0243466Y0006968D01*
X0245561Y0006100D01*
X0247829Y0006100D01*
X0249924Y0006968D01*
X0251527Y0008571D01*
X0251695Y0008976D01*
X0251863Y0008571D01*
X0253466Y0006968D01*
X0255561Y0006100D01*
X0257829Y0006100D01*
X0259924Y0006968D01*
X0261527Y0008571D01*
X0262395Y0010666D01*
X0262395Y0012934D01*
X0261527Y0015029D01*
X0259924Y0016632D01*
X0257829Y0017500D01*
X0255561Y0017500D01*
X0253466Y0016632D01*
X0251863Y0015029D01*
X0251695Y0014624D01*
X0251527Y0015029D01*
X0249924Y0016632D01*
X0247829Y0017500D01*
X0245561Y0017500D01*
X0243466Y0016632D01*
X0241863Y0015029D01*
X0241695Y0014624D01*
X0241527Y0015029D01*
X0239924Y0016632D01*
X0237829Y0017500D01*
X0235561Y0017500D01*
X0233466Y0016632D01*
X0231863Y0015029D01*
X0231695Y0014624D01*
X0231527Y0015029D01*
X0229924Y0016632D01*
X0227829Y0017500D01*
X0225561Y0017500D01*
X0223466Y0016632D01*
X0221863Y0015029D01*
X0221695Y0014624D01*
X0221527Y0015029D01*
X0219924Y0016632D01*
X0217829Y0017500D01*
X0215561Y0017500D01*
X0213466Y0016632D01*
X0211863Y0015029D01*
X0211695Y0014624D01*
X0211527Y0015029D01*
X0209924Y0016632D01*
X0207829Y0017500D01*
X0205561Y0017500D01*
X0203466Y0016632D01*
X0201863Y0015029D01*
X0200995Y0012934D01*
X0200995Y0010666D01*
X0201863Y0008571D01*
X0203466Y0006968D01*
X0202240Y0008194D02*
X0191150Y0008194D01*
X0192033Y0009793D02*
X0201357Y0009793D01*
X0200995Y0011391D02*
X0192395Y0011391D01*
X0192372Y0012990D02*
X0201018Y0012990D01*
X0201681Y0014588D02*
X0191710Y0014588D01*
X0190370Y0016187D02*
X0203021Y0016187D01*
X0210370Y0016187D02*
X0213021Y0016187D01*
X0220370Y0016187D02*
X0223021Y0016187D01*
X0230370Y0016187D02*
X0233021Y0016187D01*
X0240370Y0016187D02*
X0243021Y0016187D01*
X0250370Y0016187D02*
X0253021Y0016187D01*
X0260370Y0016187D02*
X0267546Y0016187D01*
X0269145Y0017785D02*
X0190295Y0017785D01*
X0190295Y0019384D02*
X0270743Y0019384D01*
X0272342Y0020982D02*
X0189895Y0020982D01*
X0188506Y0022581D02*
X0273940Y0022581D01*
X0274195Y0024179D02*
X0269984Y0024179D01*
X0272410Y0025778D02*
X0274195Y0025778D01*
X0274195Y0027376D02*
X0273846Y0027376D01*
X0263407Y0024179D02*
X0186907Y0024179D01*
X0183875Y0033770D02*
X0238895Y0033770D01*
X0238895Y0035369D02*
X0185474Y0035369D01*
X0181695Y0035550D02*
X0161695Y0035550D01*
X0156695Y0040550D01*
X0120445Y0040550D01*
X0115445Y0045550D01*
X0115445Y0101800D01*
X0134195Y0120550D01*
X0134195Y0129300D01*
X0141695Y0136800D01*
X0141695Y0169300D01*
X0121695Y0189300D01*
X0104195Y0189300D01*
X0100695Y0192800D01*
X0100695Y0201800D01*
X0105815Y0199264D02*
X0105991Y0198917D01*
X0106500Y0198217D01*
X0107112Y0197605D01*
X0107813Y0197096D01*
X0108584Y0196703D01*
X0109407Y0196435D01*
X0110262Y0196300D01*
X0110495Y0196300D01*
X0110495Y0201600D01*
X0110895Y0201600D01*
X0110895Y0196300D01*
X0111128Y0196300D01*
X0111983Y0196435D01*
X0112807Y0196703D01*
X0113578Y0197096D01*
X0114278Y0197605D01*
X0114890Y0198217D01*
X0115399Y0198917D01*
X0115576Y0199264D01*
X0115863Y0198571D01*
X0117466Y0196968D01*
X0119561Y0196100D01*
X0120935Y0196100D01*
X0147645Y0169390D01*
X0147645Y0136710D01*
X0142609Y0131674D01*
X0141822Y0130886D01*
X0141395Y0129857D01*
X0141395Y0118108D01*
X0140983Y0117696D01*
X0140407Y0116304D01*
X0140407Y0114796D01*
X0140983Y0113404D01*
X0142049Y0112338D01*
X0143442Y0111761D01*
X0144949Y0111761D01*
X0145372Y0111937D01*
X0128035Y0094600D01*
X0126566Y0094600D01*
X0126695Y0094729D01*
X0126695Y0098871D01*
X0123766Y0101800D01*
X0119624Y0101800D01*
X0118245Y0100421D01*
X0118245Y0100640D01*
X0136569Y0118964D01*
X0136995Y0119993D01*
X0136995Y0128140D01*
X0144069Y0135214D01*
X0144495Y0136243D01*
X0144495Y0169857D01*
X0144069Y0170886D01*
X0143281Y0171674D01*
X0123281Y0191674D01*
X0122252Y0192100D01*
X0105355Y0192100D01*
X0103495Y0193960D01*
X0103495Y0196790D01*
X0103924Y0196968D01*
X0105527Y0198571D01*
X0105815Y0199264D01*
X0105373Y0198417D02*
X0106355Y0198417D01*
X0108357Y0196818D02*
X0103563Y0196818D01*
X0103495Y0195220D02*
X0121816Y0195220D01*
X0123414Y0193621D02*
X0103834Y0193621D01*
X0099111Y0190424D02*
X0009195Y0190424D01*
X0009195Y0188826D02*
X0100710Y0188826D01*
X0102308Y0187227D02*
X0048300Y0187227D01*
X0046877Y0188650D02*
X0050245Y0185282D01*
X0050245Y0180518D01*
X0046877Y0177150D01*
X0042114Y0177150D01*
X0038745Y0180518D01*
X0038745Y0185282D01*
X0042114Y0188650D01*
X0046877Y0188650D01*
X0049898Y0185629D02*
X0121407Y0185629D01*
X0123005Y0184030D02*
X0050245Y0184030D01*
X0050245Y0182432D02*
X0124604Y0182432D01*
X0126202Y0180833D02*
X0050245Y0180833D01*
X0048962Y0179235D02*
X0127801Y0179235D01*
X0129399Y0177636D02*
X0124964Y0177636D01*
X0125595Y0177006D02*
X0124301Y0178300D01*
X0122610Y0179000D01*
X0120780Y0179000D01*
X0119090Y0178300D01*
X0117796Y0177006D01*
X0117095Y0175315D01*
X0117095Y0168285D01*
X0117796Y0166594D01*
X0119090Y0165300D01*
X0120780Y0164600D01*
X0122610Y0164600D01*
X0124301Y0165300D01*
X0125595Y0166594D01*
X0126295Y0168285D01*
X0126295Y0175315D01*
X0125595Y0177006D01*
X0125996Y0176038D02*
X0130998Y0176038D01*
X0132596Y0174439D02*
X0126295Y0174439D01*
X0126295Y0172841D02*
X0134195Y0172841D01*
X0135793Y0171242D02*
X0126295Y0171242D01*
X0126295Y0169644D02*
X0137392Y0169644D01*
X0138895Y0168045D02*
X0126196Y0168045D01*
X0125447Y0166447D02*
X0138895Y0166447D01*
X0138895Y0164848D02*
X0123209Y0164848D01*
X0120181Y0164848D02*
X0114495Y0164848D01*
X0114495Y0163250D02*
X0138895Y0163250D01*
X0138895Y0161651D02*
X0114495Y0161651D01*
X0113908Y0160053D02*
X0138895Y0160053D01*
X0138895Y0158454D02*
X0112309Y0158454D01*
X0110711Y0156856D02*
X0138895Y0156856D01*
X0138895Y0155257D02*
X0109495Y0155257D01*
X0109495Y0153659D02*
X0138895Y0153659D01*
X0138895Y0152060D02*
X0109495Y0152060D01*
X0109495Y0150462D02*
X0138895Y0150462D01*
X0138895Y0148863D02*
X0122941Y0148863D01*
X0122610Y0149000D02*
X0120780Y0149000D01*
X0119090Y0148300D01*
X0117796Y0147006D01*
X0117095Y0145315D01*
X0117095Y0138285D01*
X0117796Y0136594D01*
X0119090Y0135300D01*
X0120780Y0134600D01*
X0122610Y0134600D01*
X0124301Y0135300D01*
X0125595Y0136594D01*
X0126295Y0138285D01*
X0126295Y0145315D01*
X0125595Y0147006D01*
X0124301Y0148300D01*
X0122610Y0149000D01*
X0120450Y0148863D02*
X0112941Y0148863D01*
X0110450Y0148863D02*
X0109495Y0148863D01*
X0103895Y0148863D02*
X0102941Y0148863D01*
X0103895Y0150462D02*
X0099495Y0150462D01*
X0099495Y0152060D02*
X0103895Y0152060D01*
X0103895Y0153659D02*
X0099495Y0153659D01*
X0099495Y0155257D02*
X0103895Y0155257D01*
X0103895Y0156856D02*
X0100711Y0156856D01*
X0102309Y0158454D02*
X0104390Y0158454D01*
X0103908Y0160053D02*
X0105988Y0160053D01*
X0104495Y0161651D02*
X0107587Y0161651D01*
X0108895Y0163250D02*
X0104495Y0163250D01*
X0104495Y0164848D02*
X0108895Y0164848D01*
X0107943Y0166447D02*
X0105447Y0166447D01*
X0106196Y0168045D02*
X0107195Y0168045D01*
X0107095Y0169644D02*
X0106295Y0169644D01*
X0106295Y0171242D02*
X0107095Y0171242D01*
X0107095Y0172841D02*
X0106295Y0172841D01*
X0106295Y0174439D02*
X0107095Y0174439D01*
X0107395Y0176038D02*
X0105996Y0176038D01*
X0104964Y0177636D02*
X0108426Y0177636D01*
X0111695Y0171800D02*
X0111695Y0161800D01*
X0106695Y0156800D01*
X0106695Y0135550D01*
X0096695Y0125550D01*
X0096695Y0096800D01*
X0092945Y0093050D01*
X0092945Y0083050D01*
X0086695Y0076800D01*
X0091695Y0076930D02*
X0099353Y0076930D01*
X0097754Y0078529D02*
X0092384Y0078529D01*
X0093982Y0080127D02*
X0096595Y0080127D01*
X0096595Y0081726D02*
X0095427Y0081726D01*
X0096595Y0081800D02*
X0101695Y0081800D01*
X0101695Y0081800D01*
X0096595Y0081800D01*
X0096595Y0083324D02*
X0095745Y0083324D01*
X0095745Y0084923D02*
X0097605Y0084923D01*
X0099204Y0086521D02*
X0095745Y0086521D01*
X0095745Y0088120D02*
X0108495Y0088120D01*
X0108495Y0089718D02*
X0095745Y0089718D01*
X0095745Y0091317D02*
X0107653Y0091317D01*
X0106055Y0092915D02*
X0096770Y0092915D01*
X0098369Y0094514D02*
X0104456Y0094514D01*
X0103517Y0096112D02*
X0099441Y0096112D01*
X0099495Y0097711D02*
X0102724Y0097711D01*
X0101557Y0099309D02*
X0099495Y0099309D01*
X0099495Y0100908D02*
X0100995Y0100908D01*
X0100995Y0102506D02*
X0099495Y0102506D01*
X0099495Y0104105D02*
X0101480Y0104105D01*
X0102537Y0105703D02*
X0099495Y0105703D01*
X0099495Y0107302D02*
X0105083Y0107302D01*
X0108308Y0107302D02*
X0116987Y0107302D01*
X0118586Y0108900D02*
X0099495Y0108900D01*
X0099495Y0110499D02*
X0120184Y0110499D01*
X0121783Y0112097D02*
X0099495Y0112097D01*
X0099495Y0113696D02*
X0123381Y0113696D01*
X0124980Y0115294D02*
X0099495Y0115294D01*
X0099495Y0116893D02*
X0103647Y0116893D01*
X0103466Y0116968D02*
X0105561Y0116100D01*
X0107829Y0116100D01*
X0109924Y0116968D01*
X0111527Y0118571D01*
X0112395Y0120666D01*
X0112395Y0122934D01*
X0111527Y0125029D01*
X0109924Y0126632D01*
X0107829Y0127500D01*
X0105561Y0127500D01*
X0103466Y0126632D01*
X0101863Y0125029D01*
X0100995Y0122934D01*
X0100995Y0120666D01*
X0101863Y0118571D01*
X0103466Y0116968D01*
X0101943Y0118491D02*
X0099495Y0118491D01*
X0099495Y0120090D02*
X0101234Y0120090D01*
X0100995Y0121688D02*
X0099495Y0121688D01*
X0099495Y0123287D02*
X0101142Y0123287D01*
X0101804Y0124885D02*
X0099990Y0124885D01*
X0101589Y0126484D02*
X0103318Y0126484D01*
X0103187Y0128082D02*
X0131395Y0128082D01*
X0131395Y0126484D02*
X0110072Y0126484D01*
X0111587Y0124885D02*
X0131395Y0124885D01*
X0131395Y0123287D02*
X0112249Y0123287D01*
X0112395Y0121688D02*
X0131374Y0121688D01*
X0129775Y0120090D02*
X0112157Y0120090D01*
X0111448Y0118491D02*
X0128177Y0118491D01*
X0126578Y0116893D02*
X0109743Y0116893D01*
X0110853Y0105703D02*
X0115389Y0105703D01*
X0113790Y0104105D02*
X0111910Y0104105D01*
X0112395Y0102506D02*
X0112707Y0102506D01*
X0112645Y0100908D02*
X0112395Y0100908D01*
X0112645Y0099309D02*
X0111833Y0099309D01*
X0112645Y0097711D02*
X0110667Y0097711D01*
X0111909Y0096112D02*
X0112645Y0096112D01*
X0118245Y0092915D02*
X0118509Y0092915D01*
X0118245Y0091317D02*
X0121002Y0091317D01*
X0119404Y0089718D02*
X0118245Y0089718D01*
X0118245Y0088120D02*
X0118895Y0088120D01*
X0118895Y0086521D02*
X0118245Y0086521D01*
X0118245Y0084923D02*
X0118895Y0084923D01*
X0118895Y0083324D02*
X0118245Y0083324D01*
X0118245Y0081726D02*
X0118895Y0081726D01*
X0118895Y0080127D02*
X0118245Y0080127D01*
X0118245Y0078529D02*
X0118895Y0078529D01*
X0118895Y0076930D02*
X0118245Y0076930D01*
X0118245Y0075332D02*
X0118895Y0075332D01*
X0118895Y0073733D02*
X0118245Y0073733D01*
X0118245Y0072134D02*
X0118895Y0072134D01*
X0118895Y0070536D02*
X0118245Y0070536D01*
X0118245Y0068937D02*
X0118895Y0068937D01*
X0118245Y0067339D02*
X0119697Y0067339D01*
X0118245Y0065740D02*
X0121295Y0065740D01*
X0122894Y0064142D02*
X0118245Y0064142D01*
X0118245Y0062543D02*
X0123895Y0062543D01*
X0123895Y0060945D02*
X0118245Y0060945D01*
X0118245Y0059346D02*
X0123895Y0059346D01*
X0123538Y0057748D02*
X0118245Y0057748D01*
X0118245Y0056149D02*
X0122441Y0056149D01*
X0122095Y0054551D02*
X0118245Y0054551D01*
X0118245Y0052952D02*
X0122095Y0052952D01*
X0122095Y0051354D02*
X0118245Y0051354D01*
X0118245Y0049755D02*
X0122095Y0049755D01*
X0122148Y0048157D02*
X0118245Y0048157D01*
X0118397Y0046558D02*
X0122832Y0046558D01*
X0124912Y0044960D02*
X0119995Y0044960D01*
X0121594Y0043361D02*
X0163001Y0043361D01*
X0162095Y0041763D02*
X0159442Y0041763D01*
X0161041Y0040164D02*
X0162095Y0040164D01*
X0162095Y0040550D02*
X0166695Y0040550D01*
X0166695Y0040550D01*
X0162095Y0040550D01*
X0166695Y0040550D02*
X0171295Y0040550D01*
X0166695Y0040550D01*
X0166695Y0040550D01*
X0171295Y0040164D02*
X0171895Y0040164D01*
X0171895Y0038566D02*
X0171216Y0038566D01*
X0171295Y0041763D02*
X0171895Y0041763D01*
X0172718Y0043361D02*
X0170389Y0043361D01*
X0168791Y0044960D02*
X0174317Y0044960D01*
X0172832Y0046558D02*
X0170559Y0046558D01*
X0171242Y0048157D02*
X0172148Y0048157D01*
X0172095Y0049755D02*
X0171295Y0049755D01*
X0171295Y0051354D02*
X0172095Y0051354D01*
X0172095Y0052952D02*
X0171295Y0052952D01*
X0171295Y0054551D02*
X0172095Y0054551D01*
X0172441Y0056149D02*
X0170950Y0056149D01*
X0169853Y0057748D02*
X0173538Y0057748D01*
X0179853Y0057748D02*
X0183538Y0057748D01*
X0182441Y0056149D02*
X0180950Y0056149D01*
X0181295Y0054551D02*
X0182095Y0054551D01*
X0182095Y0052952D02*
X0181295Y0052952D01*
X0181295Y0051354D02*
X0182095Y0051354D01*
X0182095Y0049755D02*
X0181295Y0049755D01*
X0181242Y0048157D02*
X0182148Y0048157D01*
X0182832Y0046558D02*
X0180559Y0046558D01*
X0179074Y0044960D02*
X0183895Y0044960D01*
X0182718Y0043361D02*
X0180672Y0043361D01*
X0181495Y0041763D02*
X0181895Y0041763D01*
X0181895Y0040164D02*
X0181495Y0040164D01*
X0181695Y0035550D02*
X0186695Y0040550D01*
X0186695Y0051800D01*
X0191295Y0051354D02*
X0192295Y0051354D01*
X0192295Y0051800D02*
X0192295Y0048854D01*
X0192404Y0048170D01*
X0192618Y0047511D01*
X0192932Y0046894D01*
X0193339Y0046334D01*
X0193829Y0045844D01*
X0194389Y0045437D01*
X0194952Y0045150D01*
X0194790Y0045150D01*
X0192095Y0042455D01*
X0192095Y0040550D01*
X0192095Y0038645D01*
X0194790Y0035950D01*
X0196695Y0035950D01*
X0196695Y0040550D01*
X0196695Y0040550D01*
X0192095Y0040550D01*
X0196695Y0040550D01*
X0196695Y0045150D01*
X0196695Y0051800D01*
X0196695Y0051800D01*
X0192295Y0051800D01*
X0196695Y0051800D01*
X0196695Y0058800D01*
X0196349Y0058800D01*
X0195665Y0058692D01*
X0195006Y0058478D01*
X0194389Y0058163D01*
X0193829Y0057756D01*
X0193339Y0057266D01*
X0192932Y0056706D01*
X0192618Y0056089D01*
X0192404Y0055430D01*
X0192295Y0054746D01*
X0192295Y0051800D01*
X0192295Y0052952D02*
X0191295Y0052952D01*
X0191295Y0054551D02*
X0192295Y0054551D01*
X0192648Y0056149D02*
X0190950Y0056149D01*
X0189853Y0057748D02*
X0193821Y0057748D01*
X0196695Y0057748D02*
X0196695Y0057748D01*
X0196695Y0058800D02*
X0196695Y0051800D01*
X0196695Y0051800D01*
X0196695Y0051800D01*
X0196695Y0040550D01*
X0196695Y0040550D01*
X0196695Y0040550D01*
X0196695Y0035950D01*
X0198601Y0035950D01*
X0201295Y0038645D01*
X0201295Y0040550D01*
X0201295Y0042455D01*
X0198601Y0045150D01*
X0198438Y0045150D01*
X0199001Y0045437D01*
X0199562Y0045844D01*
X0200051Y0046334D01*
X0200458Y0046894D01*
X0200773Y0047511D01*
X0200987Y0048170D01*
X0201095Y0048854D01*
X0201095Y0051800D01*
X0201095Y0054746D01*
X0200987Y0055430D01*
X0200773Y0056089D01*
X0200458Y0056706D01*
X0200051Y0057266D01*
X0199562Y0057756D01*
X0199001Y0058163D01*
X0198384Y0058478D01*
X0197726Y0058692D01*
X0197042Y0058800D01*
X0196695Y0058800D01*
X0199570Y0057748D02*
X0203538Y0057748D01*
X0204090Y0058300D02*
X0202796Y0057006D01*
X0202095Y0055315D01*
X0202095Y0048285D01*
X0202796Y0046594D01*
X0204090Y0045300D01*
X0205780Y0044600D01*
X0207610Y0044600D01*
X0209301Y0045300D01*
X0210595Y0046594D01*
X0211295Y0048285D01*
X0211295Y0055315D01*
X0210595Y0057006D01*
X0209301Y0058300D01*
X0207610Y0059000D01*
X0205780Y0059000D01*
X0204090Y0058300D01*
X0202441Y0056149D02*
X0200742Y0056149D01*
X0201095Y0054551D02*
X0202095Y0054551D01*
X0202095Y0052952D02*
X0201095Y0052952D01*
X0201095Y0051800D02*
X0196695Y0051800D01*
X0196695Y0051800D01*
X0201095Y0051800D01*
X0201095Y0051354D02*
X0202095Y0051354D01*
X0202095Y0049755D02*
X0201095Y0049755D01*
X0200983Y0048157D02*
X0202148Y0048157D01*
X0202832Y0046558D02*
X0200215Y0046558D01*
X0198791Y0044960D02*
X0204912Y0044960D01*
X0206695Y0042621D02*
X0206695Y0038479D01*
X0209624Y0035550D01*
X0213766Y0035550D01*
X0216695Y0038479D01*
X0216695Y0042621D01*
X0213766Y0045550D01*
X0209624Y0045550D01*
X0206695Y0042621D01*
X0206695Y0041763D02*
X0201295Y0041763D01*
X0201295Y0040550D02*
X0196695Y0040550D01*
X0196695Y0040550D01*
X0201295Y0040550D01*
X0201295Y0040164D02*
X0206695Y0040164D01*
X0206695Y0038566D02*
X0201216Y0038566D01*
X0199618Y0036967D02*
X0208207Y0036967D01*
X0207436Y0043361D02*
X0200389Y0043361D01*
X0196695Y0043361D02*
X0196695Y0043361D01*
X0196695Y0041763D02*
X0196695Y0041763D01*
X0196695Y0040164D02*
X0196695Y0040164D01*
X0196695Y0038566D02*
X0196695Y0038566D01*
X0196695Y0036967D02*
X0196695Y0036967D01*
X0193773Y0036967D02*
X0189901Y0036967D01*
X0191495Y0038566D02*
X0192174Y0038566D01*
X0192095Y0040164D02*
X0191495Y0040164D01*
X0191495Y0041763D02*
X0192095Y0041763D01*
X0193001Y0043361D02*
X0190672Y0043361D01*
X0189495Y0044960D02*
X0194600Y0044960D01*
X0196695Y0044960D02*
X0196695Y0044960D01*
X0196695Y0046558D02*
X0196695Y0046558D01*
X0196695Y0048157D02*
X0196695Y0048157D01*
X0196695Y0049755D02*
X0196695Y0049755D01*
X0196695Y0051354D02*
X0196695Y0051354D01*
X0196695Y0052952D02*
X0196695Y0052952D01*
X0196695Y0054551D02*
X0196695Y0054551D01*
X0196695Y0056149D02*
X0196695Y0056149D01*
X0192295Y0049755D02*
X0191295Y0049755D01*
X0191242Y0048157D02*
X0192408Y0048157D01*
X0193176Y0046558D02*
X0190559Y0046558D01*
X0208479Y0044960D02*
X0209034Y0044960D01*
X0210559Y0046558D02*
X0212832Y0046558D01*
X0212796Y0046594D02*
X0214090Y0045300D01*
X0215780Y0044600D01*
X0217610Y0044600D01*
X0219301Y0045300D01*
X0220595Y0046594D01*
X0221295Y0048285D01*
X0221295Y0055315D01*
X0220595Y0057006D01*
X0219301Y0058300D01*
X0217610Y0059000D01*
X0215780Y0059000D01*
X0214090Y0058300D01*
X0212796Y0057006D01*
X0212095Y0055315D01*
X0212095Y0048285D01*
X0212796Y0046594D01*
X0212148Y0048157D02*
X0211242Y0048157D01*
X0211295Y0049755D02*
X0212095Y0049755D01*
X0212095Y0051354D02*
X0211295Y0051354D01*
X0211295Y0052952D02*
X0212095Y0052952D01*
X0212095Y0054551D02*
X0211295Y0054551D01*
X0210950Y0056149D02*
X0212441Y0056149D01*
X0213538Y0057748D02*
X0209853Y0057748D01*
X0219853Y0057748D02*
X0223538Y0057748D01*
X0224090Y0058300D02*
X0222796Y0057006D01*
X0222095Y0055315D01*
X0222095Y0048285D01*
X0222796Y0046594D01*
X0224090Y0045300D01*
X0225780Y0044600D01*
X0227610Y0044600D01*
X0229301Y0045300D01*
X0230595Y0046594D01*
X0231295Y0048285D01*
X0231295Y0055315D01*
X0230595Y0057006D01*
X0229301Y0058300D01*
X0227610Y0059000D01*
X0225780Y0059000D01*
X0224090Y0058300D01*
X0222441Y0056149D02*
X0220950Y0056149D01*
X0221295Y0054551D02*
X0222095Y0054551D01*
X0222095Y0052952D02*
X0221295Y0052952D01*
X0221295Y0051354D02*
X0222095Y0051354D01*
X0222095Y0049755D02*
X0221295Y0049755D01*
X0221242Y0048157D02*
X0222148Y0048157D01*
X0222832Y0046558D02*
X0220559Y0046558D01*
X0218479Y0044960D02*
X0224912Y0044960D01*
X0228479Y0044960D02*
X0234912Y0044960D01*
X0234090Y0045300D02*
X0235780Y0044600D01*
X0237610Y0044600D01*
X0239301Y0045300D01*
X0240595Y0046594D01*
X0241295Y0048285D01*
X0241295Y0055315D01*
X0240595Y0057006D01*
X0239301Y0058300D01*
X0237610Y0059000D01*
X0235780Y0059000D01*
X0234090Y0058300D01*
X0232796Y0057006D01*
X0232095Y0055315D01*
X0232095Y0048285D01*
X0232796Y0046594D01*
X0234090Y0045300D01*
X0232832Y0046558D02*
X0230559Y0046558D01*
X0231242Y0048157D02*
X0232148Y0048157D01*
X0232095Y0049755D02*
X0231295Y0049755D01*
X0231295Y0051354D02*
X0232095Y0051354D01*
X0232095Y0052952D02*
X0231295Y0052952D01*
X0231295Y0054551D02*
X0232095Y0054551D01*
X0232441Y0056149D02*
X0230950Y0056149D01*
X0229853Y0057748D02*
X0233538Y0057748D01*
X0239853Y0057748D02*
X0243538Y0057748D01*
X0244090Y0058300D02*
X0242796Y0057006D01*
X0242095Y0055315D01*
X0242095Y0048285D01*
X0242796Y0046594D01*
X0244090Y0045300D01*
X0245780Y0044600D01*
X0247610Y0044600D01*
X0249301Y0045300D01*
X0250595Y0046594D01*
X0251295Y0048285D01*
X0251295Y0055315D01*
X0250595Y0057006D01*
X0249301Y0058300D01*
X0247610Y0059000D01*
X0245780Y0059000D01*
X0244090Y0058300D01*
X0242441Y0056149D02*
X0240950Y0056149D01*
X0241295Y0054551D02*
X0242095Y0054551D01*
X0242095Y0052952D02*
X0241295Y0052952D01*
X0241295Y0051354D02*
X0242095Y0051354D01*
X0242095Y0049755D02*
X0241295Y0049755D01*
X0241242Y0048157D02*
X0242148Y0048157D01*
X0242832Y0046558D02*
X0240559Y0046558D01*
X0239034Y0044960D02*
X0238479Y0044960D01*
X0237436Y0043361D02*
X0215955Y0043361D01*
X0216695Y0041763D02*
X0236695Y0041763D01*
X0236695Y0040164D02*
X0216695Y0040164D01*
X0216695Y0038566D02*
X0236695Y0038566D01*
X0238207Y0036967D02*
X0215184Y0036967D01*
X0214912Y0044960D02*
X0214357Y0044960D01*
X0238107Y0032172D02*
X0140124Y0032172D01*
X0138821Y0033770D02*
X0159515Y0033770D01*
X0157917Y0035369D02*
X0115622Y0035369D01*
X0114895Y0036967D02*
X0156318Y0036967D01*
X0155780Y0044600D02*
X0157610Y0044600D01*
X0159301Y0045300D01*
X0160595Y0046594D01*
X0161295Y0048285D01*
X0161295Y0055315D01*
X0160595Y0057006D01*
X0159301Y0058300D01*
X0157610Y0059000D01*
X0155780Y0059000D01*
X0154090Y0058300D01*
X0152796Y0057006D01*
X0152095Y0055315D01*
X0152095Y0048285D01*
X0152796Y0046594D01*
X0154090Y0045300D01*
X0155780Y0044600D01*
X0154912Y0044960D02*
X0148479Y0044960D01*
X0149301Y0045300D02*
X0150595Y0046594D01*
X0151295Y0048285D01*
X0151295Y0055315D01*
X0150595Y0057006D01*
X0149301Y0058300D01*
X0147610Y0059000D01*
X0145780Y0059000D01*
X0144090Y0058300D01*
X0142796Y0057006D01*
X0142095Y0055315D01*
X0142095Y0048285D01*
X0142796Y0046594D01*
X0144090Y0045300D01*
X0145780Y0044600D01*
X0147610Y0044600D01*
X0149301Y0045300D01*
X0150559Y0046558D02*
X0152832Y0046558D01*
X0152148Y0048157D02*
X0151242Y0048157D01*
X0151295Y0049755D02*
X0152095Y0049755D01*
X0152095Y0051354D02*
X0151295Y0051354D01*
X0151295Y0052952D02*
X0152095Y0052952D01*
X0152095Y0054551D02*
X0151295Y0054551D01*
X0150950Y0056149D02*
X0152441Y0056149D01*
X0153538Y0057748D02*
X0149853Y0057748D01*
X0143538Y0057748D02*
X0139853Y0057748D01*
X0139301Y0058300D02*
X0137610Y0059000D01*
X0135780Y0059000D01*
X0134090Y0058300D01*
X0132796Y0057006D01*
X0132095Y0055315D01*
X0132095Y0048285D01*
X0132796Y0046594D01*
X0134090Y0045300D01*
X0135780Y0044600D01*
X0137610Y0044600D01*
X0139301Y0045300D01*
X0140595Y0046594D01*
X0141295Y0048285D01*
X0141295Y0055315D01*
X0140595Y0057006D01*
X0139301Y0058300D01*
X0140950Y0056149D02*
X0142441Y0056149D01*
X0142095Y0054551D02*
X0141295Y0054551D01*
X0141295Y0052952D02*
X0142095Y0052952D01*
X0142095Y0051354D02*
X0141295Y0051354D01*
X0141295Y0049755D02*
X0142095Y0049755D01*
X0142148Y0048157D02*
X0141242Y0048157D01*
X0140559Y0046558D02*
X0142832Y0046558D01*
X0144912Y0044960D02*
X0138479Y0044960D01*
X0134912Y0044960D02*
X0128479Y0044960D01*
X0130559Y0046558D02*
X0132832Y0046558D01*
X0132148Y0048157D02*
X0131242Y0048157D01*
X0131295Y0049755D02*
X0132095Y0049755D01*
X0132095Y0051354D02*
X0131295Y0051354D01*
X0131295Y0052952D02*
X0132095Y0052952D01*
X0132095Y0054551D02*
X0131295Y0054551D01*
X0130950Y0056149D02*
X0132441Y0056149D01*
X0133538Y0057748D02*
X0129853Y0057748D01*
X0129495Y0059346D02*
X0274195Y0059346D01*
X0274195Y0057748D02*
X0259853Y0057748D01*
X0259301Y0058300D02*
X0257610Y0059000D01*
X0255780Y0059000D01*
X0254090Y0058300D01*
X0252796Y0057006D01*
X0252095Y0055315D01*
X0252095Y0048285D01*
X0252796Y0046594D01*
X0254090Y0045300D01*
X0255780Y0044600D01*
X0257610Y0044600D01*
X0259301Y0045300D01*
X0260595Y0046594D01*
X0261295Y0048285D01*
X0261295Y0055315D01*
X0260595Y0057006D01*
X0259301Y0058300D01*
X0260950Y0056149D02*
X0274195Y0056149D01*
X0274195Y0054551D02*
X0261295Y0054551D01*
X0261295Y0052952D02*
X0274195Y0052952D01*
X0274195Y0051354D02*
X0261295Y0051354D01*
X0261295Y0049755D02*
X0274195Y0049755D01*
X0274195Y0048157D02*
X0261242Y0048157D01*
X0260559Y0046558D02*
X0274195Y0046558D01*
X0274195Y0044960D02*
X0258479Y0044960D01*
X0254912Y0044960D02*
X0248479Y0044960D01*
X0250559Y0046558D02*
X0252832Y0046558D01*
X0252148Y0048157D02*
X0251242Y0048157D01*
X0251295Y0049755D02*
X0252095Y0049755D01*
X0252095Y0051354D02*
X0251295Y0051354D01*
X0251295Y0052952D02*
X0252095Y0052952D01*
X0252095Y0054551D02*
X0251295Y0054551D01*
X0250950Y0056149D02*
X0252441Y0056149D01*
X0253538Y0057748D02*
X0249853Y0057748D01*
X0244912Y0044960D02*
X0244357Y0044960D01*
X0245955Y0043361D02*
X0274195Y0043361D01*
X0274195Y0041763D02*
X0246695Y0041763D01*
X0246695Y0040164D02*
X0274195Y0040164D01*
X0274195Y0038566D02*
X0271666Y0038566D01*
X0273265Y0036967D02*
X0274195Y0036967D01*
X0261724Y0038566D02*
X0246695Y0038566D01*
X0245184Y0036967D02*
X0260126Y0036967D01*
X0259190Y0035369D02*
X0244495Y0035369D01*
X0244495Y0033770D02*
X0258528Y0033770D01*
X0258396Y0032172D02*
X0244495Y0032172D01*
X0244218Y0030573D02*
X0258396Y0030573D01*
X0258883Y0028975D02*
X0242830Y0028975D01*
X0241231Y0027376D02*
X0259545Y0027376D01*
X0260981Y0025778D02*
X0239633Y0025778D01*
X0237945Y0028050D02*
X0241695Y0031800D01*
X0241695Y0040550D01*
X0237945Y0028050D02*
X0139195Y0028050D01*
X0136695Y0030550D01*
X0134569Y0033770D02*
X0116616Y0033770D01*
X0116995Y0032172D02*
X0133266Y0032172D01*
X0132907Y0030573D02*
X0116924Y0030573D01*
X0116262Y0028975D02*
X0133247Y0028975D01*
X0118470Y0038566D02*
X0114895Y0038566D01*
X0114895Y0040164D02*
X0116871Y0040164D01*
X0115273Y0041763D02*
X0114895Y0041763D01*
X0108495Y0041763D02*
X0103924Y0041763D01*
X0101695Y0041763D02*
X0101695Y0041763D01*
X0101695Y0043361D02*
X0101695Y0043361D01*
X0101695Y0044960D02*
X0101695Y0044960D01*
X0101695Y0046558D02*
X0101695Y0046558D01*
X0101695Y0046800D02*
X0101695Y0046800D01*
X0107195Y0046800D01*
X0101695Y0046800D01*
X0096510Y0044960D02*
X0092446Y0044960D01*
X0090301Y0043361D02*
X0097395Y0043361D01*
X0099467Y0041763D02*
X0089324Y0041763D01*
X0090922Y0040164D02*
X0108495Y0040164D01*
X0108495Y0038566D02*
X0092360Y0038566D01*
X0092795Y0036967D02*
X0108495Y0036967D01*
X0107769Y0035369D02*
X0092795Y0035369D01*
X0092795Y0033770D02*
X0106775Y0033770D01*
X0106395Y0032172D02*
X0093915Y0032172D01*
X0095513Y0030573D02*
X0106467Y0030573D01*
X0107129Y0028975D02*
X0097112Y0028975D01*
X0091725Y0024179D02*
X0085295Y0024179D01*
X0085295Y0022581D02*
X0093323Y0022581D01*
X0095298Y0020982D02*
X0085295Y0020982D01*
X0085295Y0025778D02*
X0090126Y0025778D01*
X0088528Y0027376D02*
X0085295Y0027376D01*
X0086262Y0028975D02*
X0086929Y0028975D01*
X0105995Y0043361D02*
X0108495Y0043361D01*
X0108495Y0044960D02*
X0106880Y0044960D01*
X0107195Y0046558D02*
X0108495Y0046558D01*
X0108495Y0048157D02*
X0107037Y0048157D01*
X0106346Y0049755D02*
X0108495Y0049755D01*
X0108495Y0051354D02*
X0104785Y0051354D01*
X0105909Y0052952D02*
X0108495Y0052952D01*
X0108495Y0054551D02*
X0106933Y0054551D01*
X0107395Y0056149D02*
X0108495Y0056149D01*
X0108495Y0057748D02*
X0107395Y0057748D01*
X0106810Y0059346D02*
X0108495Y0059346D01*
X0108495Y0060945D02*
X0105611Y0060945D01*
X0105295Y0062543D02*
X0108495Y0062543D01*
X0108495Y0064142D02*
X0105295Y0064142D01*
X0105295Y0065740D02*
X0108495Y0065740D01*
X0108495Y0067339D02*
X0105295Y0067339D01*
X0106246Y0068937D02*
X0108495Y0068937D01*
X0108495Y0070536D02*
X0106908Y0070536D01*
X0106995Y0072134D02*
X0108495Y0072134D01*
X0108495Y0073733D02*
X0106631Y0073733D01*
X0105659Y0075332D02*
X0108495Y0075332D01*
X0108495Y0076930D02*
X0104038Y0076930D01*
X0105636Y0078529D02*
X0108495Y0078529D01*
X0108495Y0080127D02*
X0106795Y0080127D01*
X0106795Y0081726D02*
X0108495Y0081726D01*
X0108495Y0083324D02*
X0106795Y0083324D01*
X0106795Y0081800D02*
X0101695Y0081800D01*
X0101695Y0086900D01*
X0101695Y0081800D01*
X0101695Y0081800D01*
X0101695Y0081800D01*
X0106795Y0081800D01*
X0105785Y0084923D02*
X0108495Y0084923D01*
X0108495Y0086521D02*
X0104187Y0086521D01*
X0101695Y0086521D02*
X0101695Y0086521D01*
X0101695Y0084923D02*
X0101695Y0084923D01*
X0101695Y0083324D02*
X0101695Y0083324D01*
X0093314Y0075332D02*
X0091695Y0075332D01*
X0091037Y0073733D02*
X0090699Y0073733D01*
X0083524Y0072900D02*
X0078027Y0072900D01*
X0071545Y0078456D01*
X0071545Y0116592D01*
X0072049Y0116088D01*
X0073442Y0115511D01*
X0074949Y0115511D01*
X0076341Y0116088D01*
X0076753Y0116500D01*
X0079752Y0116500D01*
X0080781Y0116926D01*
X0081569Y0117714D01*
X0085655Y0121800D01*
X0088766Y0121800D01*
X0090145Y0123179D01*
X0090145Y0115138D01*
X0088683Y0116600D01*
X0086695Y0116600D01*
X0084707Y0116600D01*
X0081895Y0113788D01*
X0081895Y0111800D01*
X0081895Y0109812D01*
X0084707Y0107000D01*
X0086695Y0107000D01*
X0086695Y0111800D01*
X0086695Y0111800D01*
X0081895Y0111800D01*
X0086695Y0111800D01*
X0086695Y0116600D01*
X0086695Y0111800D01*
X0086695Y0111800D01*
X0086695Y0111800D01*
X0086695Y0107000D01*
X0088683Y0107000D01*
X0090145Y0108462D01*
X0090145Y0099210D01*
X0087735Y0096800D01*
X0084624Y0096800D01*
X0081695Y0093871D01*
X0081695Y0089729D01*
X0084624Y0086800D01*
X0088766Y0086800D01*
X0090145Y0088179D01*
X0090145Y0084210D01*
X0087735Y0081800D01*
X0084624Y0081800D01*
X0081695Y0078871D01*
X0081695Y0074729D01*
X0083524Y0072900D01*
X0082691Y0073733D02*
X0077055Y0073733D01*
X0075190Y0075332D02*
X0081695Y0075332D01*
X0081695Y0076930D02*
X0073325Y0076930D01*
X0071545Y0078529D02*
X0081695Y0078529D01*
X0082951Y0080127D02*
X0071545Y0080127D01*
X0071545Y0081726D02*
X0084550Y0081726D01*
X0089260Y0083324D02*
X0071545Y0083324D01*
X0071545Y0084923D02*
X0090145Y0084923D01*
X0090145Y0086521D02*
X0071545Y0086521D01*
X0071545Y0088120D02*
X0083305Y0088120D01*
X0081706Y0089718D02*
X0071545Y0089718D01*
X0071545Y0091317D02*
X0081695Y0091317D01*
X0081695Y0092915D02*
X0071545Y0092915D01*
X0071545Y0094514D02*
X0082338Y0094514D01*
X0083936Y0096112D02*
X0071545Y0096112D01*
X0071545Y0097711D02*
X0088646Y0097711D01*
X0090145Y0099309D02*
X0071545Y0099309D01*
X0071545Y0100908D02*
X0090145Y0100908D01*
X0090145Y0102506D02*
X0071545Y0102506D01*
X0071545Y0104105D02*
X0090145Y0104105D01*
X0090145Y0105703D02*
X0071545Y0105703D01*
X0071545Y0107302D02*
X0084405Y0107302D01*
X0082807Y0108900D02*
X0071545Y0108900D01*
X0071545Y0110499D02*
X0081895Y0110499D01*
X0081895Y0112097D02*
X0071545Y0112097D01*
X0071545Y0113696D02*
X0081895Y0113696D01*
X0083401Y0115294D02*
X0071545Y0115294D01*
X0074195Y0119300D02*
X0079195Y0119300D01*
X0086695Y0126800D01*
X0091695Y0131800D01*
X0091695Y0141800D01*
X0087095Y0142469D02*
X0086295Y0142469D01*
X0086295Y0140870D02*
X0087095Y0140870D01*
X0087095Y0139272D02*
X0086295Y0139272D01*
X0086295Y0138285D02*
X0086295Y0145315D01*
X0085595Y0147006D01*
X0084301Y0148300D01*
X0082610Y0149000D01*
X0080780Y0149000D01*
X0079090Y0148300D01*
X0077796Y0147006D01*
X0077095Y0145315D01*
X0077095Y0138285D01*
X0077796Y0136594D01*
X0079090Y0135300D01*
X0080780Y0134600D01*
X0082610Y0134600D01*
X0084301Y0135300D01*
X0085595Y0136594D01*
X0086295Y0138285D01*
X0086042Y0137673D02*
X0087349Y0137673D01*
X0088315Y0136075D02*
X0085076Y0136075D01*
X0088895Y0134476D02*
X0069110Y0134476D01*
X0069090Y0135300D02*
X0070780Y0134600D01*
X0072610Y0134600D01*
X0074301Y0135300D01*
X0075595Y0136594D01*
X0076295Y0138285D01*
X0076295Y0145315D01*
X0075595Y0147006D01*
X0074301Y0148300D01*
X0072610Y0149000D01*
X0070780Y0149000D01*
X0069090Y0148300D01*
X0067796Y0147006D01*
X0067095Y0145315D01*
X0067095Y0138285D01*
X0067796Y0136594D01*
X0069090Y0135300D01*
X0068315Y0136075D02*
X0067511Y0136075D01*
X0067349Y0137673D02*
X0066042Y0137673D01*
X0066295Y0139272D02*
X0067095Y0139272D01*
X0067095Y0140870D02*
X0066295Y0140870D01*
X0066295Y0142469D02*
X0067095Y0142469D01*
X0067095Y0144068D02*
X0066295Y0144068D01*
X0066150Y0145666D02*
X0067241Y0145666D01*
X0068054Y0147265D02*
X0065336Y0147265D01*
X0066349Y0148863D02*
X0070450Y0148863D01*
X0072941Y0148863D02*
X0080450Y0148863D01*
X0082941Y0148863D02*
X0090450Y0148863D01*
X0092941Y0148863D02*
X0093895Y0148863D01*
X0093895Y0150462D02*
X0067948Y0150462D01*
X0062561Y0155257D02*
X0056295Y0155257D01*
X0056295Y0154895D02*
X0056295Y0156800D01*
X0056295Y0158705D01*
X0053601Y0161400D01*
X0051695Y0161400D01*
X0049790Y0161400D01*
X0047095Y0158705D01*
X0047095Y0156800D01*
X0047095Y0154895D01*
X0049790Y0152200D01*
X0051695Y0152200D01*
X0051695Y0156800D01*
X0051695Y0156800D01*
X0047095Y0156800D01*
X0051695Y0156800D01*
X0051695Y0161400D01*
X0051695Y0156800D01*
X0051695Y0156800D01*
X0051695Y0156800D01*
X0051695Y0152200D01*
X0053601Y0152200D01*
X0056295Y0154895D01*
X0055059Y0153659D02*
X0060963Y0153659D01*
X0059364Y0152060D02*
X0039241Y0152060D01*
X0040839Y0153659D02*
X0048331Y0153659D01*
X0047095Y0155257D02*
X0042438Y0155257D01*
X0044036Y0156856D02*
X0047095Y0156856D01*
X0047095Y0158454D02*
X0045635Y0158454D01*
X0047233Y0160053D02*
X0048443Y0160053D01*
X0049256Y0161651D02*
X0055384Y0161651D01*
X0054948Y0160053D02*
X0056983Y0160053D01*
X0056295Y0158454D02*
X0058581Y0158454D01*
X0060280Y0156856D02*
X0056295Y0156856D01*
X0056295Y0156800D02*
X0051695Y0156800D01*
X0051695Y0156800D01*
X0056295Y0156800D01*
X0051695Y0156856D02*
X0051695Y0156856D01*
X0051695Y0158454D02*
X0051695Y0158454D01*
X0051695Y0160053D02*
X0051695Y0160053D01*
X0051695Y0155257D02*
X0051695Y0155257D01*
X0051695Y0153659D02*
X0051695Y0153659D01*
X0048569Y0150462D02*
X0037642Y0150462D01*
X0029483Y0148863D02*
X0046970Y0148863D01*
X0046895Y0147265D02*
X0029283Y0147265D01*
X0029283Y0146682D02*
X0028539Y0146682D01*
X0028539Y0146682D01*
X0029283Y0146682D01*
X0029283Y0145666D02*
X0046895Y0145666D01*
X0047640Y0144068D02*
X0029163Y0144068D01*
X0029286Y0142469D02*
X0049238Y0142469D01*
X0052534Y0140870D02*
X0028638Y0140870D01*
X0022588Y0140870D02*
X0017107Y0140870D01*
X0014872Y0140870D02*
X0013519Y0140870D01*
X0013519Y0139272D02*
X0014872Y0139272D01*
X0014872Y0137673D02*
X0013519Y0137673D01*
X0013519Y0136075D02*
X0014872Y0136075D01*
X0014872Y0134687D02*
X0020395Y0134687D01*
X0020271Y0133904D01*
X0019968Y0132972D01*
X0019523Y0132098D01*
X0018947Y0131305D01*
X0018253Y0130612D01*
X0017460Y0130035D01*
X0016586Y0129590D01*
X0015654Y0129287D01*
X0014872Y0129163D01*
X0014872Y0134687D01*
X0014872Y0134476D02*
X0013519Y0134476D01*
X0013519Y0132878D02*
X0014872Y0132878D01*
X0014872Y0131279D02*
X0013519Y0131279D01*
X0013519Y0129681D02*
X0014872Y0129681D01*
X0016764Y0129681D02*
X0031719Y0129681D01*
X0031057Y0128082D02*
X0009195Y0128082D01*
X0009195Y0126484D02*
X0030995Y0126484D01*
X0031319Y0124885D02*
X0009195Y0124885D01*
X0009195Y0123287D02*
X0032147Y0123287D01*
X0033095Y0121688D02*
X0019789Y0121688D01*
X0019924Y0121632D02*
X0017829Y0122500D01*
X0015561Y0122500D01*
X0013466Y0121632D01*
X0011863Y0120029D01*
X0010995Y0117934D01*
X0010995Y0115666D01*
X0011863Y0113571D01*
X0013411Y0112023D01*
X0012466Y0111632D01*
X0010863Y0110029D01*
X0009995Y0107934D01*
X0009995Y0105666D01*
X0010863Y0103571D01*
X0012466Y0101968D01*
X0013730Y0101444D01*
X0013112Y0100995D01*
X0012500Y0100383D01*
X0011991Y0099683D01*
X0011598Y0098911D01*
X0011331Y0098088D01*
X0011195Y0097233D01*
X0011195Y0097000D01*
X0016495Y0097000D01*
X0016495Y0096600D01*
X0011195Y0096600D01*
X0011195Y0096367D01*
X0011331Y0095512D01*
X0011598Y0094689D01*
X0011991Y0093917D01*
X0012500Y0093217D01*
X0013112Y0092605D01*
X0013730Y0092156D01*
X0012466Y0091632D01*
X0010863Y0090029D01*
X0009995Y0087934D01*
X0009995Y0085666D01*
X0010863Y0083571D01*
X0012466Y0081968D01*
X0013411Y0081577D01*
X0011863Y0080029D01*
X0010995Y0077934D01*
X0010995Y0075666D01*
X0011863Y0073571D01*
X0013411Y0072023D01*
X0012466Y0071632D01*
X0010863Y0070029D01*
X0009995Y0067934D01*
X0009995Y0065666D01*
X0010863Y0063571D01*
X0012466Y0061968D01*
X0014561Y0061100D01*
X0016829Y0061100D01*
X0018924Y0061968D01*
X0020527Y0063571D01*
X0021395Y0065666D01*
X0021395Y0067934D01*
X0020527Y0070029D01*
X0018980Y0071577D01*
X0019924Y0071968D01*
X0021527Y0073571D01*
X0022395Y0075666D01*
X0022395Y0077934D01*
X0021527Y0080029D01*
X0019924Y0081632D01*
X0018980Y0082023D01*
X0020527Y0083571D01*
X0021395Y0085666D01*
X0021395Y0087934D01*
X0020527Y0090029D01*
X0018924Y0091632D01*
X0018777Y0091693D01*
X0018807Y0091703D01*
X0019578Y0092096D01*
X0020278Y0092605D01*
X0020890Y0093217D01*
X0021399Y0093917D01*
X0021792Y0094689D01*
X0022060Y0095512D01*
X0022195Y0096367D01*
X0022195Y0096600D01*
X0016895Y0096600D01*
X0016895Y0097000D01*
X0022195Y0097000D01*
X0022195Y0097233D01*
X0022060Y0098088D01*
X0021792Y0098911D01*
X0021399Y0099683D01*
X0020890Y0100383D01*
X0020278Y0100995D01*
X0019578Y0101504D01*
X0018807Y0101897D01*
X0018777Y0101907D01*
X0018924Y0101968D01*
X0020527Y0103571D01*
X0021395Y0105666D01*
X0021395Y0107934D01*
X0020527Y0110029D01*
X0018980Y0111577D01*
X0019924Y0111968D01*
X0021527Y0113571D01*
X0022395Y0115666D01*
X0022395Y0117934D01*
X0021527Y0120029D01*
X0019924Y0121632D01*
X0021466Y0120090D02*
X0033095Y0120090D01*
X0033095Y0118491D02*
X0022164Y0118491D01*
X0022395Y0116893D02*
X0033095Y0116893D01*
X0033095Y0115294D02*
X0022241Y0115294D01*
X0021579Y0113696D02*
X0033095Y0113696D01*
X0033095Y0112097D02*
X0020054Y0112097D01*
X0020058Y0110499D02*
X0032333Y0110499D01*
X0031396Y0108900D02*
X0020995Y0108900D01*
X0021395Y0107302D02*
X0030995Y0107302D01*
X0030995Y0105703D02*
X0021395Y0105703D01*
X0020748Y0104105D02*
X0031642Y0104105D01*
X0032928Y0102506D02*
X0019463Y0102506D01*
X0020366Y0100908D02*
X0033095Y0100908D01*
X0033095Y0099309D02*
X0021590Y0099309D01*
X0022120Y0097711D02*
X0033095Y0097711D01*
X0033095Y0096112D02*
X0022155Y0096112D01*
X0021703Y0094514D02*
X0033095Y0094514D01*
X0033095Y0092915D02*
X0020589Y0092915D01*
X0019240Y0091317D02*
X0033095Y0091317D01*
X0031734Y0089718D02*
X0020656Y0089718D01*
X0021318Y0088120D02*
X0031072Y0088120D01*
X0030995Y0086521D02*
X0021395Y0086521D01*
X0021087Y0084923D02*
X0029727Y0084923D01*
X0028128Y0083324D02*
X0020280Y0083324D01*
X0019699Y0081726D02*
X0026530Y0081726D01*
X0024931Y0080127D02*
X0021429Y0080127D01*
X0022149Y0078529D02*
X0024345Y0078529D01*
X0024345Y0076930D02*
X0022395Y0076930D01*
X0022257Y0075332D02*
X0024345Y0075332D01*
X0024345Y0073733D02*
X0021595Y0073733D01*
X0020091Y0072134D02*
X0024345Y0072134D01*
X0024345Y0070536D02*
X0020020Y0070536D01*
X0020980Y0068937D02*
X0024345Y0068937D01*
X0024345Y0067339D02*
X0021395Y0067339D01*
X0021395Y0065740D02*
X0024345Y0065740D01*
X0024345Y0064142D02*
X0020764Y0064142D01*
X0019500Y0062543D02*
X0024345Y0062543D01*
X0024959Y0060945D02*
X0009195Y0060945D01*
X0009195Y0062543D02*
X0011891Y0062543D01*
X0010627Y0064142D02*
X0009195Y0064142D01*
X0009195Y0065740D02*
X0009995Y0065740D01*
X0009995Y0067339D02*
X0009195Y0067339D01*
X0009195Y0068937D02*
X0010411Y0068937D01*
X0011370Y0070536D02*
X0009195Y0070536D01*
X0009195Y0072134D02*
X0013300Y0072134D01*
X0011796Y0073733D02*
X0009195Y0073733D01*
X0009195Y0075332D02*
X0011134Y0075332D01*
X0010995Y0076930D02*
X0009195Y0076930D01*
X0009195Y0078529D02*
X0011242Y0078529D01*
X0011961Y0080127D02*
X0009195Y0080127D01*
X0009195Y0081726D02*
X0013051Y0081726D01*
X0011110Y0083324D02*
X0009195Y0083324D01*
X0009195Y0084923D02*
X0010303Y0084923D01*
X0009995Y0086521D02*
X0009195Y0086521D01*
X0009195Y0088120D02*
X0010072Y0088120D01*
X0010734Y0089718D02*
X0009195Y0089718D01*
X0009195Y0091317D02*
X0012151Y0091317D01*
X0012802Y0092915D02*
X0009195Y0092915D01*
X0009195Y0094514D02*
X0011687Y0094514D01*
X0011236Y0096112D02*
X0009195Y0096112D01*
X0009195Y0097711D02*
X0011271Y0097711D01*
X0011801Y0099309D02*
X0009195Y0099309D01*
X0009195Y0100908D02*
X0013025Y0100908D01*
X0011928Y0102506D02*
X0009195Y0102506D01*
X0009195Y0104105D02*
X0010642Y0104105D01*
X0009995Y0105703D02*
X0009195Y0105703D01*
X0009195Y0107302D02*
X0009995Y0107302D01*
X0010396Y0108900D02*
X0009195Y0108900D01*
X0009195Y0110499D02*
X0011333Y0110499D01*
X0013337Y0112097D02*
X0009195Y0112097D01*
X0009195Y0113696D02*
X0011811Y0113696D01*
X0011149Y0115294D02*
X0009195Y0115294D01*
X0009195Y0116893D02*
X0010995Y0116893D01*
X0011226Y0118491D02*
X0009195Y0118491D01*
X0009195Y0120090D02*
X0011924Y0120090D01*
X0013602Y0121688D02*
X0009195Y0121688D01*
X0009195Y0129681D02*
X0011626Y0129681D01*
X0009470Y0131279D02*
X0009195Y0131279D01*
X0018921Y0131279D02*
X0033114Y0131279D01*
X0040277Y0131279D02*
X0043114Y0131279D01*
X0041719Y0129681D02*
X0041672Y0129681D01*
X0041695Y0123976D02*
X0041863Y0123571D01*
X0043466Y0121968D01*
X0045561Y0121100D01*
X0047829Y0121100D01*
X0048258Y0121278D01*
X0053680Y0115856D01*
X0051695Y0113871D01*
X0051695Y0109729D01*
X0054624Y0106800D01*
X0058766Y0106800D01*
X0061695Y0109729D01*
X0061695Y0113871D01*
X0059495Y0116071D01*
X0059495Y0117357D01*
X0059069Y0118386D01*
X0058281Y0119174D01*
X0055655Y0121800D01*
X0058766Y0121800D01*
X0061695Y0124729D01*
X0061695Y0128871D01*
X0060295Y0130271D01*
X0060295Y0130309D01*
X0061695Y0131709D01*
X0064345Y0129059D01*
X0064345Y0077373D01*
X0064301Y0077238D01*
X0064345Y0076662D01*
X0064345Y0076084D01*
X0064400Y0075952D01*
X0064411Y0075810D01*
X0064672Y0075295D01*
X0064893Y0074761D01*
X0064994Y0074660D01*
X0065059Y0074533D01*
X0065497Y0074157D01*
X0065906Y0073748D01*
X0066038Y0073693D01*
X0072797Y0067900D01*
X0057229Y0067900D01*
X0055906Y0067352D01*
X0048954Y0060400D01*
X0035686Y0060400D01*
X0034580Y0061507D01*
X0035561Y0061100D01*
X0037829Y0061100D01*
X0039924Y0061968D01*
X0041527Y0063571D01*
X0041815Y0064264D01*
X0041991Y0063917D01*
X0042500Y0063217D01*
X0043112Y0062605D01*
X0043813Y0062096D01*
X0044584Y0061703D01*
X0045407Y0061435D01*
X0046262Y0061300D01*
X0046695Y0061300D01*
X0046695Y0066800D01*
X0046695Y0072300D01*
X0046262Y0072300D01*
X0045407Y0072165D01*
X0044584Y0071897D01*
X0043813Y0071504D01*
X0043112Y0070995D01*
X0042500Y0070383D01*
X0041991Y0069683D01*
X0041815Y0069336D01*
X0041527Y0070029D01*
X0039924Y0071632D01*
X0037829Y0072500D01*
X0035561Y0072500D01*
X0033466Y0071632D01*
X0031863Y0070029D01*
X0031545Y0069262D01*
X0031545Y0076559D01*
X0036086Y0081100D01*
X0037829Y0081100D01*
X0039924Y0081968D01*
X0041527Y0083571D01*
X0041695Y0083976D01*
X0041863Y0083571D01*
X0043466Y0081968D01*
X0045561Y0081100D01*
X0047829Y0081100D01*
X0048258Y0081278D01*
X0051695Y0077840D01*
X0051695Y0074729D01*
X0054624Y0071800D01*
X0058766Y0071800D01*
X0061695Y0074729D01*
X0061695Y0078871D01*
X0058766Y0081800D01*
X0055655Y0081800D01*
X0052218Y0085237D01*
X0052395Y0085666D01*
X0052395Y0087934D01*
X0051527Y0090029D01*
X0049924Y0091632D01*
X0047829Y0092500D01*
X0045561Y0092500D01*
X0043466Y0091632D01*
X0041863Y0090029D01*
X0041695Y0089624D01*
X0041527Y0090029D01*
X0040295Y0091261D01*
X0040295Y0102339D01*
X0041527Y0103571D01*
X0041695Y0103976D01*
X0041863Y0103571D01*
X0043466Y0101968D01*
X0045561Y0101100D01*
X0047829Y0101100D01*
X0048258Y0101278D01*
X0053680Y0095856D01*
X0051695Y0093871D01*
X0051695Y0089729D01*
X0054624Y0086800D01*
X0058766Y0086800D01*
X0061695Y0089729D01*
X0061695Y0093871D01*
X0059495Y0096071D01*
X0059495Y0097357D01*
X0059069Y0098386D01*
X0052218Y0105237D01*
X0052395Y0105666D01*
X0052395Y0107934D01*
X0051527Y0110029D01*
X0049924Y0111632D01*
X0047829Y0112500D01*
X0045561Y0112500D01*
X0043466Y0111632D01*
X0041863Y0110029D01*
X0041695Y0109624D01*
X0041527Y0110029D01*
X0040295Y0111261D01*
X0040295Y0122339D01*
X0041527Y0123571D01*
X0041695Y0123976D01*
X0041243Y0123287D02*
X0042147Y0123287D01*
X0040295Y0121688D02*
X0044141Y0121688D01*
X0040295Y0120090D02*
X0049446Y0120090D01*
X0051044Y0118491D02*
X0040295Y0118491D01*
X0040295Y0116893D02*
X0052643Y0116893D01*
X0053119Y0115294D02*
X0040295Y0115294D01*
X0040295Y0113696D02*
X0051695Y0113696D01*
X0051695Y0112097D02*
X0048801Y0112097D01*
X0051058Y0110499D02*
X0051695Y0110499D01*
X0051995Y0108900D02*
X0052524Y0108900D01*
X0052395Y0107302D02*
X0054122Y0107302D01*
X0052395Y0105703D02*
X0064345Y0105703D01*
X0064345Y0104105D02*
X0053350Y0104105D01*
X0054949Y0102506D02*
X0064345Y0102506D01*
X0064345Y0100908D02*
X0056547Y0100908D01*
X0058146Y0099309D02*
X0064345Y0099309D01*
X0064345Y0097711D02*
X0059349Y0097711D01*
X0059495Y0096112D02*
X0064345Y0096112D01*
X0064345Y0094514D02*
X0061053Y0094514D01*
X0061695Y0092915D02*
X0064345Y0092915D01*
X0064345Y0091317D02*
X0061695Y0091317D01*
X0061684Y0089718D02*
X0064345Y0089718D01*
X0064345Y0088120D02*
X0060086Y0088120D01*
X0064345Y0086521D02*
X0052395Y0086521D01*
X0052318Y0088120D02*
X0053305Y0088120D01*
X0051706Y0089718D02*
X0051656Y0089718D01*
X0051695Y0091317D02*
X0050240Y0091317D01*
X0051695Y0092915D02*
X0040295Y0092915D01*
X0040295Y0091317D02*
X0043151Y0091317D01*
X0041734Y0089718D02*
X0041656Y0089718D01*
X0040295Y0094514D02*
X0052338Y0094514D01*
X0053423Y0096112D02*
X0040295Y0096112D01*
X0040295Y0097711D02*
X0051825Y0097711D01*
X0050226Y0099309D02*
X0040295Y0099309D01*
X0040295Y0100908D02*
X0048628Y0100908D01*
X0042928Y0102506D02*
X0040463Y0102506D01*
X0046695Y0106800D02*
X0056695Y0096800D01*
X0056695Y0091800D01*
X0052532Y0084923D02*
X0064345Y0084923D01*
X0064345Y0083324D02*
X0054131Y0083324D01*
X0058841Y0081726D02*
X0064345Y0081726D01*
X0064345Y0080127D02*
X0060439Y0080127D01*
X0061695Y0078529D02*
X0064345Y0078529D01*
X0064325Y0076930D02*
X0061695Y0076930D01*
X0061695Y0075332D02*
X0064653Y0075332D01*
X0065942Y0073733D02*
X0060699Y0073733D01*
X0059101Y0072134D02*
X0067857Y0072134D01*
X0069722Y0070536D02*
X0050737Y0070536D01*
X0050890Y0070383D02*
X0050278Y0070995D01*
X0049578Y0071504D01*
X0048807Y0071897D01*
X0047983Y0072165D01*
X0047128Y0072300D01*
X0046695Y0072300D01*
X0046695Y0066800D01*
X0046695Y0066800D01*
X0046695Y0066800D01*
X0046695Y0061300D01*
X0047128Y0061300D01*
X0047983Y0061435D01*
X0048807Y0061703D01*
X0049578Y0062096D01*
X0050278Y0062605D01*
X0050890Y0063217D01*
X0051399Y0063917D01*
X0051792Y0064689D01*
X0052060Y0065512D01*
X0052195Y0066367D01*
X0052195Y0066800D01*
X0046695Y0066800D01*
X0052195Y0066800D01*
X0052195Y0067233D01*
X0052060Y0068088D01*
X0051792Y0068911D01*
X0051399Y0069683D01*
X0050890Y0070383D01*
X0051779Y0068937D02*
X0071586Y0068937D01*
X0074529Y0059346D02*
X0058083Y0059346D01*
X0056484Y0057748D02*
X0074095Y0057748D01*
X0074095Y0056800D02*
X0079195Y0056800D01*
X0079195Y0056800D01*
X0074095Y0056800D01*
X0074095Y0056149D02*
X0065407Y0056149D01*
X0066725Y0054551D02*
X0074232Y0054551D01*
X0075830Y0052952D02*
X0067388Y0052952D01*
X0067395Y0051354D02*
X0076340Y0051354D01*
X0081215Y0051700D02*
X0081308Y0051700D01*
X0084295Y0054688D01*
X0084295Y0056800D01*
X0084295Y0058912D01*
X0082508Y0060700D01*
X0094911Y0060700D01*
X0096235Y0061248D01*
X0098095Y0063109D01*
X0098095Y0061261D01*
X0096863Y0060029D01*
X0095995Y0057934D01*
X0095995Y0057224D01*
X0095329Y0057500D01*
X0093061Y0057500D01*
X0090966Y0056632D01*
X0089363Y0055029D01*
X0088495Y0052934D01*
X0088495Y0051191D01*
X0087704Y0050400D01*
X0083091Y0050400D01*
X0082197Y0051293D01*
X0081215Y0051700D01*
X0082051Y0051354D02*
X0088495Y0051354D01*
X0088503Y0052952D02*
X0082560Y0052952D01*
X0084159Y0054551D02*
X0089165Y0054551D01*
X0090484Y0056149D02*
X0084295Y0056149D01*
X0084295Y0056800D02*
X0079195Y0056800D01*
X0084295Y0056800D01*
X0084295Y0057748D02*
X0095995Y0057748D01*
X0096580Y0059346D02*
X0083861Y0059346D01*
X0079195Y0056800D02*
X0079195Y0056800D01*
X0095503Y0060945D02*
X0097779Y0060945D01*
X0097530Y0062543D02*
X0098095Y0062543D01*
X0121695Y0069300D02*
X0121695Y0088050D01*
X0125445Y0091800D01*
X0129195Y0091800D01*
X0160445Y0123050D01*
X0209195Y0123050D01*
X0212945Y0126800D01*
X0212945Y0165550D01*
X0205445Y0173050D01*
X0175445Y0173050D01*
X0160695Y0187800D01*
X0160695Y0201800D01*
X0156017Y0198417D02*
X0155373Y0198417D01*
X0155527Y0198571D02*
X0155695Y0198976D01*
X0155863Y0198571D01*
X0157466Y0196968D01*
X0157895Y0196790D01*
X0157895Y0187243D01*
X0158322Y0186214D01*
X0173859Y0170676D01*
X0174888Y0170250D01*
X0204285Y0170250D01*
X0205235Y0169300D01*
X0203374Y0169300D01*
X0200445Y0166371D01*
X0200445Y0162229D01*
X0203374Y0159300D01*
X0207516Y0159300D01*
X0210145Y0161929D01*
X0210145Y0154171D01*
X0210016Y0154300D01*
X0205874Y0154300D01*
X0202945Y0151371D01*
X0202945Y0147229D01*
X0205874Y0144300D01*
X0210016Y0144300D01*
X0210145Y0144429D01*
X0210145Y0127960D01*
X0208035Y0125850D01*
X0159888Y0125850D01*
X0158859Y0125424D01*
X0158072Y0124636D01*
X0147809Y0114373D01*
X0147984Y0114796D01*
X0147984Y0116304D01*
X0147407Y0117696D01*
X0146995Y0118108D01*
X0146995Y0118642D01*
X0147049Y0118588D01*
X0148442Y0118011D01*
X0149949Y0118011D01*
X0151341Y0118588D01*
X0152407Y0119654D01*
X0152984Y0121046D01*
X0152984Y0122554D01*
X0152660Y0123335D01*
X0153442Y0123011D01*
X0154949Y0123011D01*
X0156341Y0123588D01*
X0157407Y0124654D01*
X0157984Y0126046D01*
X0157984Y0127554D01*
X0157523Y0128668D01*
X0158496Y0129641D01*
X0159549Y0128588D01*
X0160942Y0128011D01*
X0162449Y0128011D01*
X0163841Y0128588D01*
X0164907Y0129654D01*
X0165484Y0131046D01*
X0165484Y0132554D01*
X0164907Y0133946D01*
X0164495Y0134358D01*
X0164495Y0174857D01*
X0164069Y0175886D01*
X0163281Y0176674D01*
X0153495Y0186460D01*
X0153495Y0196790D01*
X0153924Y0196968D01*
X0155527Y0198571D01*
X0153563Y0196818D02*
X0157827Y0196818D01*
X0157895Y0195220D02*
X0153495Y0195220D01*
X0153495Y0193621D02*
X0157895Y0193621D01*
X0157895Y0192023D02*
X0153495Y0192023D01*
X0153495Y0190424D02*
X0157895Y0190424D01*
X0157895Y0188826D02*
X0153495Y0188826D01*
X0153495Y0187227D02*
X0157902Y0187227D01*
X0158907Y0185629D02*
X0154326Y0185629D01*
X0155925Y0184030D02*
X0160505Y0184030D01*
X0162104Y0182432D02*
X0157523Y0182432D01*
X0159122Y0180833D02*
X0163702Y0180833D01*
X0165301Y0179235D02*
X0160720Y0179235D01*
X0162319Y0177636D02*
X0166899Y0177636D01*
X0168498Y0176038D02*
X0163917Y0176038D01*
X0163281Y0176674D02*
X0163281Y0176674D01*
X0164495Y0174439D02*
X0170096Y0174439D01*
X0171695Y0172841D02*
X0164495Y0172841D01*
X0164495Y0171242D02*
X0173293Y0171242D01*
X0176695Y0176800D02*
X0206695Y0176800D01*
X0216695Y0166800D01*
X0216695Y0125550D01*
X0210445Y0119300D01*
X0161695Y0119300D01*
X0126695Y0084300D01*
X0126695Y0081800D01*
X0131295Y0081726D02*
X0132095Y0081726D01*
X0132095Y0083324D02*
X0131295Y0083324D01*
X0131295Y0084923D02*
X0132095Y0084923D01*
X0136695Y0081800D02*
X0136695Y0089300D01*
X0162945Y0115550D01*
X0211695Y0115550D01*
X0220445Y0124300D01*
X0220445Y0168050D01*
X0186695Y0201800D01*
X0181265Y0200015D02*
X0176395Y0200015D01*
X0176395Y0198417D02*
X0182017Y0198417D01*
X0183827Y0196818D02*
X0175942Y0196818D01*
X0173495Y0195220D02*
X0189316Y0195220D01*
X0190914Y0193621D02*
X0173495Y0193621D01*
X0173495Y0192023D02*
X0192513Y0192023D01*
X0194111Y0190424D02*
X0173495Y0190424D01*
X0173495Y0188826D02*
X0195710Y0188826D01*
X0197308Y0187227D02*
X0173495Y0187227D01*
X0173495Y0185629D02*
X0198907Y0185629D01*
X0200505Y0184030D02*
X0173495Y0184030D01*
X0175023Y0182432D02*
X0202104Y0182432D01*
X0203702Y0180833D02*
X0176622Y0180833D01*
X0176695Y0176800D02*
X0170695Y0182800D01*
X0170695Y0201800D01*
X0176395Y0201614D02*
X0180995Y0201614D01*
X0181111Y0203212D02*
X0176395Y0203212D01*
X0176395Y0204811D02*
X0181773Y0204811D01*
X0183244Y0206409D02*
X0176314Y0206409D01*
X0165076Y0206409D02*
X0164147Y0206409D01*
X0157244Y0206409D02*
X0154147Y0206409D01*
X0155618Y0204811D02*
X0155773Y0204811D01*
X0150695Y0201800D02*
X0150695Y0185300D01*
X0161695Y0174300D01*
X0161695Y0131800D01*
X0165350Y0132878D02*
X0210145Y0132878D01*
X0210145Y0134476D02*
X0164495Y0134476D01*
X0164495Y0136075D02*
X0210145Y0136075D01*
X0210145Y0137673D02*
X0164495Y0137673D01*
X0164495Y0139272D02*
X0210145Y0139272D01*
X0210145Y0140870D02*
X0164495Y0140870D01*
X0164495Y0142469D02*
X0210145Y0142469D01*
X0210145Y0144068D02*
X0164495Y0144068D01*
X0164495Y0145666D02*
X0178541Y0145666D01*
X0179707Y0144500D02*
X0183683Y0144500D01*
X0186495Y0147312D01*
X0186495Y0151288D01*
X0183683Y0154100D01*
X0179707Y0154100D01*
X0176895Y0151288D01*
X0176895Y0147312D01*
X0179707Y0144500D01*
X0176943Y0147265D02*
X0164495Y0147265D01*
X0164495Y0148863D02*
X0176895Y0148863D01*
X0176895Y0150462D02*
X0164495Y0150462D01*
X0164495Y0152060D02*
X0177667Y0152060D01*
X0179266Y0153659D02*
X0164495Y0153659D01*
X0164495Y0155257D02*
X0210145Y0155257D01*
X0210145Y0156856D02*
X0164495Y0156856D01*
X0164495Y0158454D02*
X0210145Y0158454D01*
X0210145Y0160053D02*
X0208269Y0160053D01*
X0209867Y0161651D02*
X0210145Y0161651D01*
X0202622Y0160053D02*
X0164495Y0160053D01*
X0164495Y0161651D02*
X0201023Y0161651D01*
X0200445Y0163250D02*
X0164495Y0163250D01*
X0164495Y0164848D02*
X0200445Y0164848D01*
X0200521Y0166447D02*
X0164495Y0166447D01*
X0164495Y0168045D02*
X0202119Y0168045D01*
X0204892Y0169644D02*
X0164495Y0169644D01*
X0157945Y0173050D02*
X0157945Y0133050D01*
X0154195Y0129300D01*
X0154195Y0126800D01*
X0157765Y0128082D02*
X0160770Y0128082D01*
X0162621Y0128082D02*
X0210145Y0128082D01*
X0210145Y0129681D02*
X0164918Y0129681D01*
X0165484Y0131279D02*
X0210145Y0131279D01*
X0208669Y0126484D02*
X0157984Y0126484D01*
X0158321Y0124885D02*
X0157503Y0124885D01*
X0156722Y0123287D02*
X0155614Y0123287D01*
X0155124Y0121688D02*
X0152984Y0121688D01*
X0152776Y0123287D02*
X0152680Y0123287D01*
X0152588Y0120090D02*
X0153525Y0120090D01*
X0151927Y0118491D02*
X0151108Y0118491D01*
X0150328Y0116893D02*
X0147740Y0116893D01*
X0147984Y0115294D02*
X0148730Y0115294D01*
X0147283Y0118491D02*
X0146995Y0118491D01*
X0144195Y0115550D02*
X0144195Y0129300D01*
X0150445Y0135550D01*
X0150445Y0170550D01*
X0120695Y0200300D01*
X0120695Y0201800D01*
X0117827Y0196818D02*
X0113033Y0196818D01*
X0110895Y0196818D02*
X0110495Y0196818D01*
X0110495Y0198417D02*
X0110895Y0198417D01*
X0110895Y0200015D02*
X0110495Y0200015D01*
X0110495Y0203212D02*
X0110895Y0203212D01*
X0110895Y0204811D02*
X0110495Y0204811D01*
X0110495Y0206409D02*
X0110895Y0206409D01*
X0113708Y0206409D02*
X0117244Y0206409D01*
X0115773Y0204811D02*
X0115306Y0204811D01*
X0115036Y0198417D02*
X0116017Y0198417D01*
X0122438Y0192023D02*
X0125013Y0192023D01*
X0124531Y0190424D02*
X0126611Y0190424D01*
X0126129Y0188826D02*
X0128210Y0188826D01*
X0127728Y0187227D02*
X0129808Y0187227D01*
X0129326Y0185629D02*
X0131407Y0185629D01*
X0130925Y0184030D02*
X0133005Y0184030D01*
X0132523Y0182432D02*
X0134604Y0182432D01*
X0134122Y0180833D02*
X0136202Y0180833D01*
X0135720Y0179235D02*
X0137801Y0179235D01*
X0137319Y0177636D02*
X0139399Y0177636D01*
X0138917Y0176038D02*
X0140998Y0176038D01*
X0140516Y0174439D02*
X0142596Y0174439D01*
X0142114Y0172841D02*
X0144195Y0172841D01*
X0143713Y0171242D02*
X0145793Y0171242D01*
X0144495Y0169644D02*
X0147392Y0169644D01*
X0147645Y0168045D02*
X0144495Y0168045D01*
X0144495Y0166447D02*
X0147645Y0166447D01*
X0147645Y0164848D02*
X0144495Y0164848D01*
X0144495Y0163250D02*
X0147645Y0163250D01*
X0147645Y0161651D02*
X0144495Y0161651D01*
X0144495Y0160053D02*
X0147645Y0160053D01*
X0147645Y0158454D02*
X0144495Y0158454D01*
X0144495Y0156856D02*
X0147645Y0156856D01*
X0147645Y0155257D02*
X0144495Y0155257D01*
X0144495Y0153659D02*
X0147645Y0153659D01*
X0147645Y0152060D02*
X0144495Y0152060D01*
X0144495Y0150462D02*
X0147645Y0150462D01*
X0147645Y0148863D02*
X0144495Y0148863D01*
X0144495Y0147265D02*
X0147645Y0147265D01*
X0147645Y0145666D02*
X0144495Y0145666D01*
X0144495Y0144068D02*
X0147645Y0144068D01*
X0147645Y0142469D02*
X0144495Y0142469D01*
X0144495Y0140870D02*
X0147645Y0140870D01*
X0147645Y0139272D02*
X0144495Y0139272D01*
X0144495Y0137673D02*
X0147645Y0137673D01*
X0147010Y0136075D02*
X0144426Y0136075D01*
X0145412Y0134476D02*
X0143332Y0134476D01*
X0143813Y0132878D02*
X0141733Y0132878D01*
X0142215Y0131279D02*
X0140134Y0131279D01*
X0141395Y0129681D02*
X0138536Y0129681D01*
X0136995Y0128082D02*
X0141395Y0128082D01*
X0141395Y0126484D02*
X0136995Y0126484D01*
X0136995Y0124885D02*
X0141395Y0124885D01*
X0141395Y0123287D02*
X0136995Y0123287D01*
X0136995Y0121688D02*
X0141395Y0121688D01*
X0141395Y0120090D02*
X0136995Y0120090D01*
X0136096Y0118491D02*
X0141395Y0118491D01*
X0140651Y0116893D02*
X0134498Y0116893D01*
X0132899Y0115294D02*
X0140407Y0115294D01*
X0140862Y0113696D02*
X0131301Y0113696D01*
X0129702Y0112097D02*
X0142630Y0112097D01*
X0143934Y0110499D02*
X0128104Y0110499D01*
X0126505Y0108900D02*
X0142336Y0108900D01*
X0140737Y0107302D02*
X0124907Y0107302D01*
X0123308Y0105703D02*
X0139139Y0105703D01*
X0137540Y0104105D02*
X0121710Y0104105D01*
X0120111Y0102506D02*
X0135942Y0102506D01*
X0134343Y0100908D02*
X0124659Y0100908D01*
X0126257Y0099309D02*
X0132745Y0099309D01*
X0131146Y0097711D02*
X0126695Y0097711D01*
X0126695Y0096112D02*
X0129548Y0096112D01*
X0118732Y0100908D02*
X0118513Y0100908D01*
X0139495Y0088120D02*
X0143895Y0088120D01*
X0143895Y0089718D02*
X0141073Y0089718D01*
X0142672Y0091317D02*
X0143895Y0091317D01*
X0146695Y0094300D02*
X0164195Y0111800D01*
X0212945Y0111800D01*
X0224195Y0123050D01*
X0224195Y0169300D01*
X0196695Y0196800D01*
X0196695Y0201800D01*
X0193244Y0206409D02*
X0190147Y0206409D01*
X0191618Y0204811D02*
X0191773Y0204811D01*
X0200147Y0206409D02*
X0203244Y0206409D01*
X0201773Y0204811D02*
X0201618Y0204811D01*
X0206695Y0201800D02*
X0206695Y0191800D01*
X0227945Y0170550D01*
X0227945Y0121800D01*
X0214195Y0108050D01*
X0165445Y0108050D01*
X0156695Y0099300D01*
X0156695Y0081800D01*
X0161295Y0081726D02*
X0162095Y0081726D01*
X0162095Y0083324D02*
X0161295Y0083324D01*
X0161295Y0084923D02*
X0162095Y0084923D01*
X0162095Y0085315D02*
X0162095Y0078285D01*
X0162796Y0076594D01*
X0164090Y0075300D01*
X0165780Y0074600D01*
X0167610Y0074600D01*
X0169301Y0075300D01*
X0170595Y0076594D01*
X0171295Y0078285D01*
X0171295Y0082440D01*
X0172095Y0083240D01*
X0172095Y0078285D01*
X0172796Y0076594D01*
X0174090Y0075300D01*
X0175780Y0074600D01*
X0177610Y0074600D01*
X0179301Y0075300D01*
X0180595Y0076594D01*
X0181295Y0078285D01*
X0181295Y0082440D01*
X0182295Y0083440D01*
X0182295Y0081800D01*
X0182295Y0078854D01*
X0182404Y0078170D01*
X0182618Y0077511D01*
X0182932Y0076894D01*
X0183339Y0076334D01*
X0183829Y0075844D01*
X0184389Y0075437D01*
X0185006Y0075122D01*
X0185665Y0074908D01*
X0186349Y0074800D01*
X0186695Y0074800D01*
X0186695Y0081800D01*
X0186695Y0081800D01*
X0182295Y0081800D01*
X0186695Y0081800D01*
X0186695Y0081800D01*
X0186695Y0074800D01*
X0187042Y0074800D01*
X0187726Y0074908D01*
X0188384Y0075122D01*
X0189001Y0075437D01*
X0189562Y0075844D01*
X0190051Y0076334D01*
X0190458Y0076894D01*
X0190773Y0077511D01*
X0190987Y0078170D01*
X0191095Y0078854D01*
X0191095Y0081800D01*
X0191095Y0084746D01*
X0190987Y0085430D01*
X0190773Y0086089D01*
X0190458Y0086706D01*
X0190051Y0087266D01*
X0189562Y0087756D01*
X0189001Y0088163D01*
X0188384Y0088478D01*
X0187726Y0088692D01*
X0187571Y0088716D01*
X0189090Y0090235D01*
X0190623Y0089600D01*
X0192453Y0089600D01*
X0194143Y0090300D01*
X0195437Y0091594D01*
X0196138Y0093285D01*
X0196138Y0100315D01*
X0195437Y0102006D01*
X0194143Y0103300D01*
X0192453Y0104000D01*
X0190623Y0104000D01*
X0188932Y0103300D01*
X0187638Y0102006D01*
X0186938Y0100315D01*
X0186938Y0096002D01*
X0186095Y0095160D01*
X0186095Y0096800D01*
X0186095Y0099746D01*
X0185987Y0100430D01*
X0185773Y0101089D01*
X0185458Y0101706D01*
X0185051Y0102266D01*
X0184562Y0102756D01*
X0184001Y0103163D01*
X0183384Y0103478D01*
X0182726Y0103692D01*
X0182042Y0103800D01*
X0181695Y0103800D01*
X0181349Y0103800D01*
X0180665Y0103692D01*
X0180006Y0103478D01*
X0179389Y0103163D01*
X0178829Y0102756D01*
X0178339Y0102266D01*
X0177932Y0101706D01*
X0177618Y0101089D01*
X0177404Y0100430D01*
X0177295Y0099746D01*
X0177295Y0096800D01*
X0177295Y0093854D01*
X0177404Y0093170D01*
X0177618Y0092511D01*
X0177932Y0091894D01*
X0178339Y0091334D01*
X0178829Y0090844D01*
X0179389Y0090437D01*
X0180006Y0090122D01*
X0180665Y0089908D01*
X0180819Y0089884D01*
X0179254Y0088319D01*
X0177610Y0089000D01*
X0175780Y0089000D01*
X0174653Y0088533D01*
X0174653Y0090495D01*
X0175752Y0091594D01*
X0176453Y0093285D01*
X0176453Y0100315D01*
X0175752Y0102006D01*
X0174458Y0103300D01*
X0172768Y0104000D01*
X0170938Y0104000D01*
X0169247Y0103300D01*
X0167953Y0102006D01*
X0167253Y0100315D01*
X0167253Y0093285D01*
X0167953Y0091594D01*
X0169053Y0090495D01*
X0169053Y0088402D01*
X0167610Y0089000D01*
X0165780Y0089000D01*
X0164090Y0088300D01*
X0162796Y0087006D01*
X0162095Y0085315D01*
X0162595Y0086521D02*
X0160796Y0086521D01*
X0159495Y0088120D02*
X0163910Y0088120D01*
X0159495Y0089718D02*
X0169053Y0089718D01*
X0168231Y0091317D02*
X0159495Y0091317D01*
X0153895Y0091317D02*
X0149495Y0091317D01*
X0149495Y0092915D02*
X0153895Y0092915D01*
X0153895Y0094514D02*
X0150869Y0094514D01*
X0152467Y0096112D02*
X0153895Y0096112D01*
X0153895Y0089718D02*
X0149495Y0089718D01*
X0149495Y0088120D02*
X0153895Y0088120D01*
X0152595Y0086521D02*
X0150796Y0086521D01*
X0151295Y0084923D02*
X0152095Y0084923D01*
X0152095Y0083324D02*
X0151295Y0083324D01*
X0151295Y0081726D02*
X0152095Y0081726D01*
X0152095Y0080127D02*
X0151295Y0080127D01*
X0151295Y0078529D02*
X0152095Y0078529D01*
X0152657Y0076930D02*
X0150734Y0076930D01*
X0149332Y0075332D02*
X0154058Y0075332D01*
X0159332Y0075332D02*
X0164058Y0075332D01*
X0162657Y0076930D02*
X0160734Y0076930D01*
X0161295Y0078529D02*
X0162095Y0078529D01*
X0162095Y0080127D02*
X0161295Y0080127D01*
X0166695Y0081800D02*
X0171853Y0086957D01*
X0171853Y0096800D01*
X0167253Y0096112D02*
X0166695Y0096112D01*
X0166695Y0097711D02*
X0167253Y0097711D01*
X0167253Y0099309D02*
X0166257Y0099309D01*
X0167498Y0100908D02*
X0164659Y0100908D01*
X0163861Y0102506D02*
X0168454Y0102506D01*
X0165460Y0104105D02*
X0211290Y0104105D01*
X0209692Y0102506D02*
X0194937Y0102506D01*
X0195892Y0100908D02*
X0208093Y0100908D01*
X0206495Y0099309D02*
X0196138Y0099309D01*
X0196138Y0097711D02*
X0199568Y0097711D01*
X0197969Y0096112D02*
X0196138Y0096112D01*
X0196138Y0094514D02*
X0196895Y0094514D01*
X0196895Y0092915D02*
X0195985Y0092915D01*
X0195160Y0091317D02*
X0196895Y0091317D01*
X0198239Y0089718D02*
X0192738Y0089718D01*
X0194090Y0088300D02*
X0192796Y0087006D01*
X0192095Y0085315D01*
X0192095Y0078285D01*
X0192796Y0076594D01*
X0194090Y0075300D01*
X0195780Y0074600D01*
X0197610Y0074600D01*
X0199301Y0075300D01*
X0200595Y0076594D01*
X0201295Y0078285D01*
X0201295Y0085315D01*
X0200595Y0087006D01*
X0199301Y0088300D01*
X0197610Y0089000D01*
X0195780Y0089000D01*
X0194090Y0088300D01*
X0193910Y0088120D02*
X0189061Y0088120D01*
X0188573Y0089718D02*
X0190338Y0089718D01*
X0190553Y0086521D02*
X0192595Y0086521D01*
X0192095Y0084923D02*
X0191067Y0084923D01*
X0191095Y0083324D02*
X0192095Y0083324D01*
X0192095Y0081726D02*
X0191095Y0081726D01*
X0191095Y0081800D02*
X0186695Y0081800D01*
X0191095Y0081800D01*
X0191095Y0080127D02*
X0192095Y0080127D01*
X0192095Y0078529D02*
X0191044Y0078529D01*
X0190477Y0076930D02*
X0192657Y0076930D01*
X0194058Y0075332D02*
X0188795Y0075332D01*
X0186695Y0075332D02*
X0186695Y0075332D01*
X0186695Y0076930D02*
X0186695Y0076930D01*
X0186695Y0078529D02*
X0186695Y0078529D01*
X0186695Y0080127D02*
X0186695Y0080127D01*
X0186695Y0081726D02*
X0186695Y0081726D01*
X0186695Y0081800D02*
X0186695Y0081800D01*
X0182295Y0081726D02*
X0181295Y0081726D01*
X0181295Y0080127D02*
X0182295Y0080127D01*
X0182347Y0078529D02*
X0181295Y0078529D01*
X0180734Y0076930D02*
X0182914Y0076930D01*
X0184596Y0075332D02*
X0179332Y0075332D01*
X0174058Y0075332D02*
X0169332Y0075332D01*
X0170734Y0076930D02*
X0172657Y0076930D01*
X0172095Y0078529D02*
X0171295Y0078529D01*
X0171295Y0080127D02*
X0172095Y0080127D01*
X0172095Y0081726D02*
X0171295Y0081726D01*
X0176695Y0081800D02*
X0191538Y0096643D01*
X0191538Y0096800D01*
X0186938Y0096112D02*
X0186095Y0096112D01*
X0186095Y0096800D02*
X0181695Y0096800D01*
X0181695Y0096800D01*
X0177295Y0096800D01*
X0181695Y0096800D01*
X0181695Y0103800D01*
X0181695Y0096800D01*
X0181695Y0096800D01*
X0186095Y0096800D01*
X0186095Y0097711D02*
X0186938Y0097711D01*
X0186938Y0099309D02*
X0186095Y0099309D01*
X0185832Y0100908D02*
X0187183Y0100908D01*
X0188139Y0102506D02*
X0184812Y0102506D01*
X0181695Y0102506D02*
X0181695Y0102506D01*
X0181695Y0100908D02*
X0181695Y0100908D01*
X0181695Y0099309D02*
X0181695Y0099309D01*
X0181695Y0097711D02*
X0181695Y0097711D01*
X0181695Y0096800D02*
X0181695Y0096800D01*
X0177295Y0096112D02*
X0176453Y0096112D01*
X0176453Y0094514D02*
X0177295Y0094514D01*
X0177486Y0092915D02*
X0176300Y0092915D01*
X0175475Y0091317D02*
X0178356Y0091317D01*
X0180654Y0089718D02*
X0174653Y0089718D01*
X0167406Y0092915D02*
X0164881Y0092915D01*
X0166480Y0094514D02*
X0167253Y0094514D01*
X0176453Y0097711D02*
X0177295Y0097711D01*
X0177295Y0099309D02*
X0176453Y0099309D01*
X0176207Y0100908D02*
X0177559Y0100908D01*
X0178579Y0102506D02*
X0175252Y0102506D01*
X0182179Y0083324D02*
X0182295Y0083324D01*
X0199481Y0088120D02*
X0203895Y0088120D01*
X0202595Y0086521D02*
X0200796Y0086521D01*
X0201295Y0084923D02*
X0202095Y0084923D01*
X0202095Y0083324D02*
X0201295Y0083324D01*
X0201295Y0081726D02*
X0202095Y0081726D01*
X0202095Y0080127D02*
X0201295Y0080127D01*
X0201295Y0078529D02*
X0202095Y0078529D01*
X0202657Y0076930D02*
X0200734Y0076930D01*
X0199332Y0075332D02*
X0204058Y0075332D01*
X0209332Y0075332D02*
X0214058Y0075332D01*
X0212657Y0076930D02*
X0210734Y0076930D01*
X0211295Y0078529D02*
X0212095Y0078529D01*
X0212095Y0080127D02*
X0211295Y0080127D01*
X0211295Y0081726D02*
X0212095Y0081726D01*
X0212095Y0083324D02*
X0211295Y0083324D01*
X0211295Y0084923D02*
X0212095Y0084923D01*
X0212595Y0086521D02*
X0210796Y0086521D01*
X0209495Y0088120D02*
X0213910Y0088120D01*
X0214869Y0089718D02*
X0218895Y0089718D01*
X0218895Y0091317D02*
X0216295Y0091317D01*
X0216295Y0092915D02*
X0218895Y0092915D01*
X0218895Y0094514D02*
X0216295Y0094514D01*
X0216295Y0093050D02*
X0211695Y0093050D01*
X0211695Y0093050D01*
X0216295Y0093050D01*
X0211695Y0092915D02*
X0211695Y0092915D01*
X0211695Y0091317D02*
X0211695Y0091317D01*
X0211695Y0089718D02*
X0211695Y0089718D01*
X0206695Y0095550D02*
X0206695Y0081800D01*
X0216695Y0081800D02*
X0221695Y0086800D01*
X0221695Y0105550D01*
X0235445Y0119300D01*
X0235445Y0173050D01*
X0226695Y0181800D01*
X0226695Y0201800D01*
X0223895Y0196790D02*
X0223895Y0183560D01*
X0219495Y0187960D01*
X0219495Y0196790D01*
X0219924Y0196968D01*
X0221527Y0198571D01*
X0221695Y0198976D01*
X0221863Y0198571D01*
X0223466Y0196968D01*
X0223895Y0196790D01*
X0223827Y0196818D02*
X0219563Y0196818D01*
X0219495Y0195220D02*
X0223895Y0195220D01*
X0223895Y0193621D02*
X0219495Y0193621D01*
X0219495Y0192023D02*
X0223895Y0192023D01*
X0223895Y0190424D02*
X0219495Y0190424D01*
X0219495Y0188826D02*
X0223895Y0188826D01*
X0223895Y0187227D02*
X0220228Y0187227D01*
X0221826Y0185629D02*
X0223895Y0185629D01*
X0223895Y0184030D02*
X0223425Y0184030D01*
X0229495Y0184030D02*
X0233895Y0184030D01*
X0233895Y0182432D02*
X0230023Y0182432D01*
X0229495Y0182960D02*
X0229495Y0196790D01*
X0229924Y0196968D01*
X0231527Y0198571D01*
X0231695Y0198976D01*
X0231863Y0198571D01*
X0233466Y0196968D01*
X0233895Y0196790D01*
X0233895Y0178560D01*
X0229495Y0182960D01*
X0229495Y0185629D02*
X0233895Y0185629D01*
X0233895Y0187227D02*
X0229495Y0187227D01*
X0229495Y0188826D02*
X0233895Y0188826D01*
X0233895Y0190424D02*
X0229495Y0190424D01*
X0229495Y0192023D02*
X0233895Y0192023D01*
X0233895Y0193621D02*
X0229495Y0193621D01*
X0229495Y0195220D02*
X0233895Y0195220D01*
X0233827Y0196818D02*
X0229563Y0196818D01*
X0231373Y0198417D02*
X0232017Y0198417D01*
X0236695Y0201800D02*
X0236695Y0176800D01*
X0239195Y0174300D01*
X0239195Y0118050D01*
X0226695Y0105550D01*
X0226695Y0081800D01*
X0222095Y0081726D02*
X0221295Y0081726D01*
X0221295Y0080127D02*
X0222095Y0080127D01*
X0222095Y0078529D02*
X0221295Y0078529D01*
X0220734Y0076930D02*
X0222657Y0076930D01*
X0224058Y0075332D02*
X0219332Y0075332D01*
X0229332Y0075332D02*
X0234058Y0075332D01*
X0232657Y0076930D02*
X0230734Y0076930D01*
X0231295Y0078529D02*
X0232095Y0078529D01*
X0232095Y0080127D02*
X0231295Y0080127D01*
X0231295Y0081726D02*
X0232095Y0081726D01*
X0232095Y0083324D02*
X0231295Y0083324D01*
X0231295Y0084923D02*
X0232095Y0084923D01*
X0232595Y0086521D02*
X0230796Y0086521D01*
X0229495Y0088120D02*
X0233895Y0088120D01*
X0233895Y0089718D02*
X0229495Y0089718D01*
X0229495Y0091317D02*
X0233895Y0091317D01*
X0233895Y0092915D02*
X0229495Y0092915D01*
X0229495Y0094514D02*
X0233895Y0094514D01*
X0233895Y0096112D02*
X0229495Y0096112D01*
X0229495Y0097711D02*
X0233895Y0097711D01*
X0233895Y0099309D02*
X0229495Y0099309D01*
X0229495Y0100908D02*
X0233895Y0100908D01*
X0233895Y0102506D02*
X0229495Y0102506D01*
X0229495Y0104105D02*
X0233895Y0104105D01*
X0233895Y0105703D02*
X0230808Y0105703D01*
X0232407Y0107302D02*
X0233895Y0107302D01*
X0236695Y0110550D02*
X0242945Y0116800D01*
X0242945Y0161800D01*
X0245445Y0164300D01*
X0246695Y0165550D01*
X0246695Y0201800D01*
X0250995Y0198039D02*
X0249924Y0196968D01*
X0249495Y0196790D01*
X0249495Y0178560D01*
X0253895Y0182960D01*
X0253895Y0196100D01*
X0252167Y0196100D01*
X0250995Y0197272D01*
X0250995Y0198039D01*
X0251448Y0196818D02*
X0249563Y0196818D01*
X0249495Y0195220D02*
X0253895Y0195220D01*
X0253895Y0193621D02*
X0249495Y0193621D01*
X0249495Y0192023D02*
X0253895Y0192023D01*
X0253895Y0190424D02*
X0249495Y0190424D01*
X0249495Y0188826D02*
X0253895Y0188826D01*
X0253895Y0187227D02*
X0249495Y0187227D01*
X0249495Y0185629D02*
X0253895Y0185629D01*
X0253895Y0184030D02*
X0249495Y0184030D01*
X0249495Y0182432D02*
X0253367Y0182432D01*
X0251769Y0180833D02*
X0249495Y0180833D01*
X0249495Y0179235D02*
X0250170Y0179235D01*
X0251695Y0176800D02*
X0256695Y0181800D01*
X0256695Y0201800D01*
X0262395Y0201614D02*
X0264195Y0201614D01*
X0264195Y0203212D02*
X0262395Y0203212D01*
X0262395Y0204811D02*
X0264149Y0204811D01*
X0262550Y0206409D02*
X0262314Y0206409D01*
X0260952Y0208008D02*
X0072224Y0208008D01*
X0073769Y0206409D02*
X0097244Y0206409D01*
X0095773Y0204811D02*
X0074431Y0204811D01*
X0074994Y0203212D02*
X0095111Y0203212D01*
X0094995Y0201614D02*
X0074994Y0201614D01*
X0074939Y0200015D02*
X0095265Y0200015D01*
X0096017Y0198417D02*
X0074277Y0198417D01*
X0073451Y0196818D02*
X0097827Y0196818D01*
X0097895Y0195220D02*
X0071852Y0195220D01*
X0068637Y0193621D02*
X0097895Y0193621D01*
X0097986Y0192023D02*
X0009195Y0192023D01*
X0009195Y0193621D02*
X0064753Y0193621D01*
X0061539Y0195220D02*
X0046864Y0195220D01*
X0046794Y0195150D02*
X0050045Y0198401D01*
X0050045Y0200250D01*
X0044945Y0200250D01*
X0044945Y0195150D01*
X0046794Y0195150D01*
X0044945Y0195220D02*
X0044045Y0195220D01*
X0044045Y0195150D02*
X0044045Y0200250D01*
X0038945Y0200250D01*
X0038945Y0198401D01*
X0042196Y0195150D01*
X0044045Y0195150D01*
X0044045Y0196818D02*
X0044945Y0196818D01*
X0044945Y0198417D02*
X0044045Y0198417D01*
X0044045Y0200015D02*
X0044945Y0200015D01*
X0044945Y0200250D02*
X0044045Y0200250D01*
X0044045Y0201150D01*
X0038945Y0201150D01*
X0038945Y0202999D01*
X0042196Y0206250D01*
X0044045Y0206250D01*
X0044045Y0201150D01*
X0044945Y0201150D01*
X0044945Y0206250D01*
X0046794Y0206250D01*
X0050045Y0202999D01*
X0050045Y0201150D01*
X0044945Y0201150D01*
X0044945Y0200250D01*
X0044945Y0201614D02*
X0044045Y0201614D01*
X0044045Y0203212D02*
X0044945Y0203212D01*
X0044945Y0204811D02*
X0044045Y0204811D01*
X0040757Y0204811D02*
X0022633Y0204811D01*
X0021194Y0206250D02*
X0024445Y0202999D01*
X0024445Y0201150D01*
X0019345Y0201150D01*
X0018445Y0201150D01*
X0018445Y0200250D01*
X0013345Y0200250D01*
X0013345Y0198401D01*
X0016596Y0195150D01*
X0018445Y0195150D01*
X0018445Y0200250D01*
X0019345Y0200250D01*
X0019345Y0195150D01*
X0021194Y0195150D01*
X0024445Y0198401D01*
X0024445Y0200250D01*
X0019345Y0200250D01*
X0019345Y0201150D01*
X0019345Y0206250D01*
X0021194Y0206250D01*
X0019345Y0204811D02*
X0018445Y0204811D01*
X0018445Y0206250D02*
X0016596Y0206250D01*
X0013345Y0202999D01*
X0013345Y0201150D01*
X0018445Y0201150D01*
X0018445Y0206250D01*
X0018445Y0203212D02*
X0019345Y0203212D01*
X0019345Y0201614D02*
X0018445Y0201614D01*
X0018445Y0200015D02*
X0019345Y0200015D01*
X0019345Y0198417D02*
X0018445Y0198417D01*
X0018445Y0196818D02*
X0019345Y0196818D01*
X0019345Y0195220D02*
X0018445Y0195220D01*
X0016527Y0195220D02*
X0009195Y0195220D01*
X0009195Y0196818D02*
X0014928Y0196818D01*
X0013345Y0198417D02*
X0009195Y0198417D01*
X0009195Y0200015D02*
X0013345Y0200015D01*
X0013345Y0201614D02*
X0009195Y0201614D01*
X0009195Y0203212D02*
X0013559Y0203212D01*
X0015157Y0204811D02*
X0009195Y0204811D01*
X0009195Y0206409D02*
X0059622Y0206409D01*
X0058959Y0204811D02*
X0048233Y0204811D01*
X0049832Y0203212D02*
X0058396Y0203212D01*
X0058396Y0201614D02*
X0050045Y0201614D01*
X0050045Y0200015D02*
X0058451Y0200015D01*
X0059114Y0198417D02*
X0050045Y0198417D01*
X0048463Y0196818D02*
X0059940Y0196818D01*
X0061166Y0208008D02*
X0009210Y0208008D01*
X0024232Y0203212D02*
X0039159Y0203212D01*
X0038945Y0201614D02*
X0024445Y0201614D01*
X0024445Y0200015D02*
X0038945Y0200015D01*
X0038945Y0198417D02*
X0024445Y0198417D01*
X0022863Y0196818D02*
X0040528Y0196818D01*
X0042127Y0195220D02*
X0021264Y0195220D01*
X0021277Y0188650D02*
X0016514Y0188650D01*
X0013145Y0185282D01*
X0013145Y0180518D01*
X0016514Y0177150D01*
X0021277Y0177150D01*
X0024645Y0180518D01*
X0024645Y0185282D01*
X0021277Y0188650D01*
X0022700Y0187227D02*
X0040691Y0187227D01*
X0039092Y0185629D02*
X0024298Y0185629D01*
X0024645Y0184030D02*
X0038745Y0184030D01*
X0038745Y0182432D02*
X0024645Y0182432D01*
X0024645Y0180833D02*
X0038745Y0180833D01*
X0040029Y0179235D02*
X0023362Y0179235D01*
X0021763Y0177636D02*
X0041627Y0177636D01*
X0047363Y0177636D02*
X0058709Y0177636D01*
X0058829Y0177756D02*
X0058339Y0177266D01*
X0057932Y0176706D01*
X0057618Y0176089D01*
X0057404Y0175430D01*
X0057295Y0174746D01*
X0057295Y0171800D01*
X0061695Y0171800D01*
X0061695Y0178800D01*
X0061349Y0178800D01*
X0060665Y0178692D01*
X0060006Y0178478D01*
X0059389Y0178163D01*
X0058829Y0177756D01*
X0057601Y0176038D02*
X0009195Y0176038D01*
X0009195Y0177636D02*
X0016027Y0177636D01*
X0014429Y0179235D02*
X0009195Y0179235D01*
X0009195Y0180833D02*
X0013145Y0180833D01*
X0013145Y0182432D02*
X0009195Y0182432D01*
X0009195Y0184030D02*
X0013145Y0184030D01*
X0013492Y0185629D02*
X0009195Y0185629D01*
X0009195Y0187227D02*
X0015091Y0187227D01*
X0009195Y0174439D02*
X0057295Y0174439D01*
X0057295Y0172841D02*
X0018401Y0172841D01*
X0019655Y0171242D02*
X0057295Y0171242D01*
X0057295Y0169644D02*
X0020279Y0169644D01*
X0020395Y0167561D02*
X0014872Y0167561D01*
X0014872Y0162037D01*
X0015654Y0162161D01*
X0016586Y0162464D01*
X0017460Y0162909D01*
X0018253Y0163486D01*
X0018947Y0164179D01*
X0019523Y0164972D01*
X0019968Y0165846D01*
X0020271Y0166778D01*
X0020395Y0167561D01*
X0020163Y0166447D02*
X0033745Y0166447D01*
X0032089Y0164848D02*
X0019433Y0164848D01*
X0017928Y0163250D02*
X0023108Y0163250D01*
X0022089Y0161651D02*
X0009195Y0161651D01*
X0009195Y0160053D02*
X0021939Y0160053D01*
X0020168Y0158454D02*
X0009195Y0158454D01*
X0009195Y0156856D02*
X0020168Y0156856D01*
X0020168Y0155257D02*
X0009195Y0155257D01*
X0009195Y0153659D02*
X0020168Y0153659D01*
X0020168Y0152060D02*
X0009195Y0152060D01*
X0009195Y0150462D02*
X0020168Y0150462D01*
X0020168Y0148863D02*
X0009195Y0148863D01*
X0009195Y0147265D02*
X0020368Y0147265D01*
X0020368Y0145666D02*
X0009195Y0145666D01*
X0009195Y0144068D02*
X0022062Y0144068D01*
X0021939Y0142469D02*
X0009195Y0142469D01*
X0009195Y0140870D02*
X0011284Y0140870D01*
X0009336Y0139272D02*
X0009195Y0139272D01*
X0019055Y0139272D02*
X0054132Y0139272D01*
X0057349Y0137673D02*
X0019994Y0137673D01*
X0020389Y0136075D02*
X0055879Y0136075D01*
X0054281Y0134476D02*
X0020362Y0134476D01*
X0019920Y0132878D02*
X0053245Y0132878D01*
X0053095Y0131279D02*
X0050277Y0131279D01*
X0051672Y0129681D02*
X0052505Y0129681D01*
X0046695Y0126800D02*
X0056695Y0116800D01*
X0056695Y0111800D01*
X0060867Y0108900D02*
X0064345Y0108900D01*
X0064345Y0107302D02*
X0059268Y0107302D01*
X0061695Y0110499D02*
X0064345Y0110499D01*
X0064345Y0112097D02*
X0061695Y0112097D01*
X0061695Y0113696D02*
X0064345Y0113696D01*
X0064345Y0115294D02*
X0060272Y0115294D01*
X0059495Y0116893D02*
X0064345Y0116893D01*
X0064345Y0118491D02*
X0058964Y0118491D01*
X0057365Y0120090D02*
X0064345Y0120090D01*
X0064345Y0121688D02*
X0055767Y0121688D01*
X0060253Y0123287D02*
X0064345Y0123287D01*
X0064345Y0124885D02*
X0061695Y0124885D01*
X0061695Y0126484D02*
X0064345Y0126484D01*
X0064345Y0128082D02*
X0061695Y0128082D01*
X0060885Y0129681D02*
X0063723Y0129681D01*
X0062125Y0131279D02*
X0061266Y0131279D01*
X0070709Y0132878D02*
X0088813Y0132878D01*
X0084104Y0131279D02*
X0071540Y0131279D01*
X0071545Y0129681D02*
X0082505Y0129681D01*
X0081695Y0128082D02*
X0071545Y0128082D01*
X0071545Y0126484D02*
X0081695Y0126484D01*
X0080821Y0124885D02*
X0071545Y0124885D01*
X0071545Y0123287D02*
X0079222Y0123287D01*
X0083945Y0120090D02*
X0090145Y0120090D01*
X0090145Y0121688D02*
X0085543Y0121688D01*
X0082346Y0118491D02*
X0090145Y0118491D01*
X0090145Y0116893D02*
X0080701Y0116893D01*
X0086695Y0115294D02*
X0086695Y0115294D01*
X0086695Y0113696D02*
X0086695Y0113696D01*
X0086695Y0112097D02*
X0086695Y0112097D01*
X0086695Y0110499D02*
X0086695Y0110499D01*
X0086695Y0108900D02*
X0086695Y0108900D01*
X0086695Y0107302D02*
X0086695Y0107302D01*
X0088985Y0107302D02*
X0090145Y0107302D01*
X0090145Y0115294D02*
X0089989Y0115294D01*
X0092945Y0126800D02*
X0092945Y0098050D01*
X0086695Y0091800D01*
X0090086Y0088120D02*
X0090145Y0088120D01*
X0121695Y0069300D02*
X0126695Y0064300D01*
X0126695Y0051800D01*
X0129495Y0060945D02*
X0274195Y0060945D01*
X0274195Y0062543D02*
X0129495Y0062543D01*
X0129495Y0064142D02*
X0274195Y0064142D01*
X0274195Y0065740D02*
X0129129Y0065740D01*
X0127616Y0067339D02*
X0274195Y0067339D01*
X0274195Y0068937D02*
X0126018Y0068937D01*
X0124495Y0070536D02*
X0274195Y0070536D01*
X0274195Y0072134D02*
X0124495Y0072134D01*
X0124495Y0073733D02*
X0274195Y0073733D01*
X0274195Y0075332D02*
X0259332Y0075332D01*
X0259301Y0075300D02*
X0260595Y0076594D01*
X0261295Y0078285D01*
X0261295Y0085315D01*
X0260595Y0087006D01*
X0259495Y0088105D01*
X0259495Y0096100D01*
X0259556Y0096100D01*
X0262337Y0098880D01*
X0264917Y0096300D01*
X0266995Y0096300D01*
X0266995Y0101600D01*
X0267395Y0101600D01*
X0267395Y0096300D01*
X0269473Y0096300D01*
X0272695Y0099522D01*
X0272695Y0101600D01*
X0267395Y0101600D01*
X0267395Y0102000D01*
X0272695Y0102000D01*
X0272695Y0104078D01*
X0270115Y0106659D01*
X0272895Y0109439D01*
X0272895Y0114161D01*
X0270256Y0116800D01*
X0272895Y0119439D01*
X0272895Y0124161D01*
X0269556Y0127500D01*
X0264834Y0127500D01*
X0262195Y0124861D01*
X0259556Y0127500D01*
X0254834Y0127500D01*
X0251495Y0124161D01*
X0251495Y0119439D01*
X0254134Y0116800D01*
X0251495Y0114161D01*
X0251495Y0109439D01*
X0254134Y0106800D01*
X0251495Y0104161D01*
X0251495Y0099439D01*
X0253895Y0097039D01*
X0253895Y0088105D01*
X0252796Y0087006D01*
X0252095Y0085315D01*
X0252095Y0078285D01*
X0252796Y0076594D01*
X0254090Y0075300D01*
X0255780Y0074600D01*
X0257610Y0074600D01*
X0259301Y0075300D01*
X0260734Y0076930D02*
X0274195Y0076930D01*
X0274195Y0078529D02*
X0261295Y0078529D01*
X0261295Y0080127D02*
X0274195Y0080127D01*
X0274195Y0081726D02*
X0261295Y0081726D01*
X0261295Y0083324D02*
X0274195Y0083324D01*
X0274195Y0084923D02*
X0261295Y0084923D01*
X0260796Y0086521D02*
X0274195Y0086521D01*
X0274195Y0088120D02*
X0259495Y0088120D01*
X0259495Y0089718D02*
X0274195Y0089718D01*
X0274195Y0091317D02*
X0259495Y0091317D01*
X0259495Y0092915D02*
X0274195Y0092915D01*
X0274195Y0094514D02*
X0259495Y0094514D01*
X0259568Y0096112D02*
X0274195Y0096112D01*
X0274195Y0097711D02*
X0270884Y0097711D01*
X0272483Y0099309D02*
X0274195Y0099309D01*
X0274195Y0100908D02*
X0272695Y0100908D01*
X0272695Y0102506D02*
X0274195Y0102506D01*
X0274195Y0104105D02*
X0272669Y0104105D01*
X0274195Y0105703D02*
X0271070Y0105703D01*
X0270758Y0107302D02*
X0274195Y0107302D01*
X0274195Y0108900D02*
X0272357Y0108900D01*
X0272895Y0110499D02*
X0274195Y0110499D01*
X0274195Y0112097D02*
X0272895Y0112097D01*
X0272895Y0113696D02*
X0274195Y0113696D01*
X0274195Y0115294D02*
X0271762Y0115294D01*
X0270349Y0116893D02*
X0274195Y0116893D01*
X0274195Y0118491D02*
X0271948Y0118491D01*
X0272895Y0120090D02*
X0274195Y0120090D01*
X0274195Y0121688D02*
X0272895Y0121688D01*
X0272895Y0123287D02*
X0274195Y0123287D01*
X0274195Y0124885D02*
X0272171Y0124885D01*
X0270572Y0126484D02*
X0274195Y0126484D01*
X0274195Y0128082D02*
X0249495Y0128082D01*
X0249495Y0126484D02*
X0253818Y0126484D01*
X0252220Y0124885D02*
X0249495Y0124885D01*
X0249495Y0123287D02*
X0251495Y0123287D01*
X0251495Y0121688D02*
X0249495Y0121688D01*
X0249495Y0120090D02*
X0251495Y0120090D01*
X0252443Y0118491D02*
X0249495Y0118491D01*
X0249495Y0116893D02*
X0254041Y0116893D01*
X0252629Y0115294D02*
X0249495Y0115294D01*
X0249495Y0113696D02*
X0251495Y0113696D01*
X0251495Y0112097D02*
X0249495Y0112097D01*
X0249495Y0110499D02*
X0251495Y0110499D01*
X0252034Y0108900D02*
X0249495Y0108900D01*
X0249495Y0107302D02*
X0253633Y0107302D01*
X0253037Y0105703D02*
X0249495Y0105703D01*
X0249495Y0104105D02*
X0251495Y0104105D01*
X0251495Y0102506D02*
X0249495Y0102506D01*
X0249495Y0100908D02*
X0251495Y0100908D01*
X0251625Y0099309D02*
X0249495Y0099309D01*
X0249495Y0097711D02*
X0253224Y0097711D01*
X0253895Y0096112D02*
X0249495Y0096112D01*
X0249495Y0094514D02*
X0253895Y0094514D01*
X0253895Y0092915D02*
X0249495Y0092915D01*
X0249495Y0091317D02*
X0253895Y0091317D01*
X0253895Y0089718D02*
X0249495Y0089718D01*
X0249495Y0088120D02*
X0253895Y0088120D01*
X0252595Y0086521D02*
X0250796Y0086521D01*
X0251295Y0084923D02*
X0252095Y0084923D01*
X0252095Y0083324D02*
X0251295Y0083324D01*
X0251295Y0081726D02*
X0252095Y0081726D01*
X0252095Y0080127D02*
X0251295Y0080127D01*
X0251295Y0078529D02*
X0252095Y0078529D01*
X0252657Y0076930D02*
X0250734Y0076930D01*
X0249332Y0075332D02*
X0254058Y0075332D01*
X0256695Y0081800D02*
X0256695Y0101300D01*
X0261167Y0097711D02*
X0263506Y0097711D01*
X0266995Y0097711D02*
X0267395Y0097711D01*
X0267395Y0099309D02*
X0266995Y0099309D01*
X0266995Y0100908D02*
X0267395Y0100908D01*
X0243895Y0100908D02*
X0239495Y0100908D01*
X0239495Y0102506D02*
X0243895Y0102506D01*
X0243895Y0104105D02*
X0239495Y0104105D01*
X0239495Y0105703D02*
X0243895Y0105703D01*
X0243895Y0107302D02*
X0239495Y0107302D01*
X0239495Y0108900D02*
X0243895Y0108900D01*
X0243895Y0110499D02*
X0240604Y0110499D01*
X0242202Y0112097D02*
X0243895Y0112097D01*
X0243895Y0113696D02*
X0243801Y0113696D01*
X0236695Y0110550D02*
X0236695Y0081800D01*
X0241295Y0081726D02*
X0242095Y0081726D01*
X0242095Y0083324D02*
X0241295Y0083324D01*
X0241295Y0084923D02*
X0242095Y0084923D01*
X0242595Y0086521D02*
X0240796Y0086521D01*
X0239495Y0088120D02*
X0243895Y0088120D01*
X0243895Y0089718D02*
X0239495Y0089718D01*
X0239495Y0091317D02*
X0243895Y0091317D01*
X0243895Y0092915D02*
X0239495Y0092915D01*
X0239495Y0094514D02*
X0243895Y0094514D01*
X0243895Y0096112D02*
X0239495Y0096112D01*
X0239495Y0097711D02*
X0243895Y0097711D01*
X0243895Y0099309D02*
X0239495Y0099309D01*
X0218895Y0099309D02*
X0214414Y0099309D01*
X0212816Y0097711D02*
X0218895Y0097711D01*
X0218895Y0096112D02*
X0215138Y0096112D01*
X0216013Y0100908D02*
X0218895Y0100908D01*
X0218895Y0102506D02*
X0217611Y0102506D01*
X0206695Y0095550D02*
X0231695Y0120550D01*
X0231695Y0171800D01*
X0216695Y0186800D01*
X0216695Y0201800D01*
X0211695Y0198976D02*
X0211863Y0198571D01*
X0213466Y0196968D01*
X0213895Y0196790D01*
X0213895Y0188560D01*
X0209495Y0192960D01*
X0209495Y0196790D01*
X0209924Y0196968D01*
X0211527Y0198571D01*
X0211695Y0198976D01*
X0211373Y0198417D02*
X0212017Y0198417D01*
X0213827Y0196818D02*
X0209563Y0196818D01*
X0209495Y0195220D02*
X0213895Y0195220D01*
X0213895Y0193621D02*
X0209495Y0193621D01*
X0210432Y0192023D02*
X0213895Y0192023D01*
X0213895Y0190424D02*
X0212031Y0190424D01*
X0213629Y0188826D02*
X0213895Y0188826D01*
X0221373Y0198417D02*
X0222017Y0198417D01*
X0221773Y0204811D02*
X0221618Y0204811D01*
X0220147Y0206409D02*
X0223244Y0206409D01*
X0230147Y0206409D02*
X0233244Y0206409D01*
X0231773Y0204811D02*
X0231618Y0204811D01*
X0240147Y0206409D02*
X0243244Y0206409D01*
X0241773Y0204811D02*
X0241618Y0204811D01*
X0241695Y0198976D02*
X0241863Y0198571D01*
X0243466Y0196968D01*
X0243895Y0196790D01*
X0243895Y0169300D01*
X0243374Y0169300D01*
X0241995Y0167921D01*
X0241995Y0174857D01*
X0241569Y0175886D01*
X0239495Y0177960D01*
X0239495Y0196790D01*
X0239924Y0196968D01*
X0241527Y0198571D01*
X0241695Y0198976D01*
X0241373Y0198417D02*
X0242017Y0198417D01*
X0243827Y0196818D02*
X0239563Y0196818D01*
X0239495Y0195220D02*
X0243895Y0195220D01*
X0243895Y0193621D02*
X0239495Y0193621D01*
X0239495Y0192023D02*
X0243895Y0192023D01*
X0243895Y0190424D02*
X0239495Y0190424D01*
X0239495Y0188826D02*
X0243895Y0188826D01*
X0243895Y0187227D02*
X0239495Y0187227D01*
X0239495Y0185629D02*
X0243895Y0185629D01*
X0243895Y0184030D02*
X0239495Y0184030D01*
X0239495Y0182432D02*
X0243895Y0182432D01*
X0243895Y0180833D02*
X0239495Y0180833D01*
X0239495Y0179235D02*
X0243895Y0179235D01*
X0243895Y0177636D02*
X0239819Y0177636D01*
X0241417Y0176038D02*
X0243895Y0176038D01*
X0243895Y0174439D02*
X0241995Y0174439D01*
X0241995Y0172841D02*
X0243895Y0172841D01*
X0243895Y0171242D02*
X0241995Y0171242D01*
X0241995Y0169644D02*
X0243895Y0169644D01*
X0242119Y0168045D02*
X0241995Y0168045D01*
X0251695Y0161800D02*
X0251695Y0176800D01*
X0254893Y0176038D02*
X0264195Y0176038D01*
X0264195Y0177636D02*
X0256491Y0177636D01*
X0258090Y0179235D02*
X0264195Y0179235D01*
X0264195Y0180833D02*
X0259326Y0180833D01*
X0259495Y0182432D02*
X0264195Y0182432D01*
X0264195Y0184030D02*
X0259495Y0184030D01*
X0259495Y0185629D02*
X0264195Y0185629D01*
X0264195Y0187227D02*
X0259495Y0187227D01*
X0259495Y0188826D02*
X0264195Y0188826D01*
X0264195Y0190424D02*
X0259495Y0190424D01*
X0259495Y0192023D02*
X0264195Y0192023D01*
X0264195Y0193621D02*
X0259495Y0193621D01*
X0259495Y0195220D02*
X0264195Y0195220D01*
X0264195Y0196818D02*
X0261942Y0196818D01*
X0262395Y0198417D02*
X0264195Y0198417D01*
X0264195Y0200015D02*
X0262395Y0200015D01*
X0251076Y0206409D02*
X0250147Y0206409D01*
X0233895Y0180833D02*
X0231622Y0180833D01*
X0233220Y0179235D02*
X0233895Y0179235D01*
X0254495Y0174439D02*
X0264195Y0174439D01*
X0264195Y0172841D02*
X0254495Y0172841D01*
X0254495Y0171242D02*
X0264195Y0171242D01*
X0264195Y0169644D02*
X0254495Y0169644D01*
X0254495Y0168045D02*
X0264195Y0168045D01*
X0264195Y0166447D02*
X0254495Y0166447D01*
X0254495Y0164848D02*
X0264195Y0164848D01*
X0264195Y0163250D02*
X0254495Y0163250D01*
X0254495Y0161651D02*
X0264195Y0161651D01*
X0264299Y0160053D02*
X0253908Y0160053D01*
X0252309Y0158454D02*
X0265506Y0158454D01*
X0267104Y0156856D02*
X0250745Y0156856D01*
X0250745Y0155257D02*
X0268703Y0155257D01*
X0270301Y0153659D02*
X0250745Y0153659D01*
X0252256Y0152060D02*
X0271900Y0152060D01*
X0273498Y0150462D02*
X0252945Y0150462D01*
X0252945Y0148863D02*
X0262060Y0148863D01*
X0260423Y0147265D02*
X0252945Y0147265D01*
X0251382Y0145666D02*
X0259314Y0145666D01*
X0258652Y0144068D02*
X0249495Y0144068D01*
X0249495Y0142469D02*
X0258396Y0142469D01*
X0258396Y0140870D02*
X0249495Y0140870D01*
X0249495Y0139272D02*
X0258759Y0139272D01*
X0259422Y0137673D02*
X0249495Y0137673D01*
X0249495Y0136075D02*
X0260683Y0136075D01*
X0262689Y0134476D02*
X0249495Y0134476D01*
X0249495Y0132878D02*
X0274195Y0132878D01*
X0274195Y0134476D02*
X0270702Y0134476D01*
X0272707Y0136075D02*
X0274195Y0136075D01*
X0274195Y0137673D02*
X0273969Y0137673D01*
X0274195Y0131279D02*
X0249495Y0131279D01*
X0249495Y0129681D02*
X0274195Y0129681D01*
X0263818Y0126484D02*
X0260572Y0126484D01*
X0262171Y0124885D02*
X0262220Y0124885D01*
X0274077Y0145666D02*
X0274195Y0145666D01*
X0274195Y0147265D02*
X0272968Y0147265D01*
X0274195Y0148863D02*
X0271330Y0148863D01*
X0251695Y0161800D02*
X0247945Y0158050D01*
X0247945Y0149300D01*
X0246695Y0148050D01*
X0246695Y0081800D01*
X0242095Y0080127D02*
X0241295Y0080127D01*
X0241295Y0078529D02*
X0242095Y0078529D01*
X0242657Y0076930D02*
X0240734Y0076930D01*
X0239332Y0075332D02*
X0244058Y0075332D01*
X0204896Y0097711D02*
X0203823Y0097711D01*
X0163538Y0057748D02*
X0159853Y0057748D01*
X0160950Y0056149D02*
X0162441Y0056149D01*
X0162095Y0054551D02*
X0161295Y0054551D01*
X0161295Y0052952D02*
X0162095Y0052952D01*
X0162095Y0051354D02*
X0161295Y0051354D01*
X0161295Y0049755D02*
X0162095Y0049755D01*
X0162148Y0048157D02*
X0161242Y0048157D01*
X0160559Y0046558D02*
X0162832Y0046558D01*
X0164600Y0044960D02*
X0158479Y0044960D01*
X0153021Y0016187D02*
X0150370Y0016187D01*
X0143021Y0016187D02*
X0140370Y0016187D01*
X0209025Y0006596D02*
X0214365Y0006596D01*
X0212240Y0008194D02*
X0211150Y0008194D01*
X0219025Y0006596D02*
X0224365Y0006596D01*
X0222240Y0008194D02*
X0221150Y0008194D01*
X0229025Y0006596D02*
X0234365Y0006596D01*
X0232240Y0008194D02*
X0231150Y0008194D01*
X0239025Y0006596D02*
X0244365Y0006596D01*
X0242240Y0008194D02*
X0241150Y0008194D01*
X0249025Y0006596D02*
X0254365Y0006596D01*
X0252240Y0008194D02*
X0251150Y0008194D01*
X0259025Y0006596D02*
X0264195Y0006596D01*
X0264195Y0008194D02*
X0261150Y0008194D01*
X0262033Y0009793D02*
X0264195Y0009793D01*
X0264195Y0011391D02*
X0262395Y0011391D01*
X0262372Y0012990D02*
X0264482Y0012990D01*
X0265279Y0013919D02*
X0265279Y0013919D01*
X0265948Y0014588D02*
X0261710Y0014588D01*
X0263977Y0004997D02*
X0066629Y0004997D01*
X0037180Y0027376D02*
X0032187Y0027376D01*
X0033786Y0025778D02*
X0035582Y0025778D01*
X0029794Y0035369D02*
X0045904Y0035369D01*
X0034405Y0043361D02*
X0065590Y0043361D01*
X0063444Y0044960D02*
X0033725Y0044960D01*
X0032398Y0046558D02*
X0059455Y0046558D01*
X0057277Y0048157D02*
X0009195Y0048157D01*
X0009195Y0049755D02*
X0056373Y0049755D01*
X0055995Y0051354D02*
X0009195Y0051354D01*
X0009195Y0052952D02*
X0056003Y0052952D01*
X0056665Y0054551D02*
X0053287Y0054551D01*
X0054886Y0056149D02*
X0057984Y0056149D01*
X0051098Y0062543D02*
X0050194Y0062543D01*
X0049499Y0060945D02*
X0035142Y0060945D01*
X0040500Y0062543D02*
X0043197Y0062543D01*
X0041877Y0064142D02*
X0041764Y0064142D01*
X0046695Y0064142D02*
X0046695Y0064142D01*
X0046695Y0065740D02*
X0046695Y0065740D01*
X0046695Y0066800D02*
X0046695Y0066800D01*
X0046695Y0067339D02*
X0046695Y0067339D01*
X0046695Y0068937D02*
X0046695Y0068937D01*
X0046695Y0070536D02*
X0046695Y0070536D01*
X0046695Y0072134D02*
X0046695Y0072134D01*
X0045315Y0072134D02*
X0038711Y0072134D01*
X0041020Y0070536D02*
X0042653Y0070536D01*
X0048076Y0072134D02*
X0054290Y0072134D01*
X0052691Y0073733D02*
X0031545Y0073733D01*
X0031545Y0072134D02*
X0034679Y0072134D01*
X0032370Y0070536D02*
X0031545Y0070536D01*
X0031545Y0075332D02*
X0051695Y0075332D01*
X0051695Y0076930D02*
X0031916Y0076930D01*
X0033515Y0078529D02*
X0051007Y0078529D01*
X0049408Y0080127D02*
X0035113Y0080127D01*
X0039339Y0081726D02*
X0044051Y0081726D01*
X0042110Y0083324D02*
X0041280Y0083324D01*
X0046695Y0086800D02*
X0056695Y0076800D01*
X0055893Y0067339D02*
X0052178Y0067339D01*
X0052096Y0065740D02*
X0054295Y0065740D01*
X0052696Y0064142D02*
X0051514Y0064142D01*
X0046695Y0062543D02*
X0046695Y0062543D01*
X0031353Y0054551D02*
X0009195Y0054551D01*
X0009195Y0056149D02*
X0029755Y0056149D01*
X0028156Y0057748D02*
X0009195Y0057748D01*
X0009195Y0059346D02*
X0026558Y0059346D01*
X0024045Y0046558D02*
X0022889Y0046558D01*
X0022889Y0044960D02*
X0024045Y0044960D01*
X0024045Y0043361D02*
X0022889Y0043361D01*
X0022889Y0040164D02*
X0024045Y0040164D01*
X0024045Y0038566D02*
X0022889Y0038566D01*
X0022889Y0036967D02*
X0024045Y0036967D01*
X0024045Y0035369D02*
X0022889Y0035369D01*
X0032648Y0036967D02*
X0059275Y0036967D01*
X0014535Y0046558D02*
X0009195Y0046558D01*
X0009195Y0044960D02*
X0013209Y0044960D01*
X0012529Y0043361D02*
X0009195Y0043361D01*
X0041058Y0110499D02*
X0042333Y0110499D01*
X0040295Y0112097D02*
X0044589Y0112097D01*
X0075076Y0136075D02*
X0078315Y0136075D01*
X0077349Y0137673D02*
X0076042Y0137673D01*
X0076295Y0139272D02*
X0077095Y0139272D01*
X0077095Y0140870D02*
X0076295Y0140870D01*
X0076295Y0142469D02*
X0077095Y0142469D01*
X0077095Y0144068D02*
X0076295Y0144068D01*
X0076150Y0145666D02*
X0077241Y0145666D01*
X0078054Y0147265D02*
X0075336Y0147265D01*
X0085336Y0147265D02*
X0088054Y0147265D01*
X0087241Y0145666D02*
X0086150Y0145666D01*
X0086295Y0144068D02*
X0087095Y0144068D01*
X0085797Y0152060D02*
X0093895Y0152060D01*
X0093895Y0153659D02*
X0087168Y0153659D01*
X0088566Y0155257D02*
X0093895Y0155257D01*
X0093895Y0156856D02*
X0089965Y0156856D01*
X0091364Y0158454D02*
X0094390Y0158454D01*
X0095988Y0160053D02*
X0092762Y0160053D01*
X0094161Y0161651D02*
X0097587Y0161651D01*
X0098895Y0163250D02*
X0095157Y0163250D01*
X0095295Y0164848D02*
X0098895Y0164848D01*
X0097943Y0166447D02*
X0095447Y0166447D01*
X0096196Y0168045D02*
X0097195Y0168045D01*
X0097095Y0169644D02*
X0096295Y0169644D01*
X0096295Y0171242D02*
X0097095Y0171242D01*
X0097095Y0172841D02*
X0096295Y0172841D01*
X0096295Y0174439D02*
X0097095Y0174439D01*
X0097395Y0176038D02*
X0095996Y0176038D01*
X0094964Y0177636D02*
X0098426Y0177636D01*
X0101695Y0171800D02*
X0101695Y0161800D01*
X0096695Y0156800D01*
X0096695Y0130550D01*
X0092945Y0126800D01*
X0104786Y0129681D02*
X0131395Y0129681D01*
X0132215Y0131279D02*
X0106384Y0131279D01*
X0107983Y0132878D02*
X0133813Y0132878D01*
X0135412Y0134476D02*
X0109281Y0134476D01*
X0115076Y0136075D02*
X0118315Y0136075D01*
X0117349Y0137673D02*
X0116042Y0137673D01*
X0116295Y0139272D02*
X0117095Y0139272D01*
X0117095Y0140870D02*
X0116295Y0140870D01*
X0116295Y0142469D02*
X0117095Y0142469D01*
X0117095Y0144068D02*
X0116295Y0144068D01*
X0116150Y0145666D02*
X0117241Y0145666D01*
X0118054Y0147265D02*
X0115336Y0147265D01*
X0125336Y0147265D02*
X0138895Y0147265D01*
X0138895Y0145666D02*
X0126150Y0145666D01*
X0126295Y0144068D02*
X0138895Y0144068D01*
X0138895Y0142469D02*
X0126295Y0142469D01*
X0126295Y0140870D02*
X0138895Y0140870D01*
X0138895Y0139272D02*
X0126295Y0139272D01*
X0126042Y0137673D02*
X0138609Y0137673D01*
X0137010Y0136075D02*
X0125076Y0136075D01*
X0100450Y0148863D02*
X0099495Y0148863D01*
X0084594Y0161651D02*
X0073006Y0161651D01*
X0074291Y0163250D02*
X0085993Y0163250D01*
X0087391Y0164848D02*
X0083209Y0164848D01*
X0082610Y0164600D02*
X0084301Y0165300D01*
X0085595Y0166594D01*
X0086295Y0168285D01*
X0086295Y0175315D01*
X0085595Y0177006D01*
X0084301Y0178300D01*
X0082610Y0179000D01*
X0080780Y0179000D01*
X0079090Y0178300D01*
X0077796Y0177006D01*
X0077095Y0175315D01*
X0077095Y0168285D01*
X0077796Y0166594D01*
X0079090Y0165300D01*
X0080780Y0164600D01*
X0082610Y0164600D01*
X0080181Y0164848D02*
X0074495Y0164848D01*
X0075447Y0166447D02*
X0077943Y0166447D01*
X0077195Y0168045D02*
X0076196Y0168045D01*
X0076295Y0169644D02*
X0077095Y0169644D01*
X0077095Y0171242D02*
X0076295Y0171242D01*
X0076295Y0172841D02*
X0077095Y0172841D01*
X0077095Y0174439D02*
X0076295Y0174439D01*
X0075996Y0176038D02*
X0077395Y0176038D01*
X0078426Y0177636D02*
X0074964Y0177636D01*
X0068426Y0177636D02*
X0064682Y0177636D01*
X0064562Y0177756D02*
X0064001Y0178163D01*
X0063384Y0178478D01*
X0062726Y0178692D01*
X0062042Y0178800D01*
X0061695Y0178800D01*
X0061695Y0171800D01*
X0061695Y0171800D01*
X0061695Y0171800D01*
X0061695Y0164800D01*
X0062042Y0164800D01*
X0062726Y0164908D01*
X0063384Y0165122D01*
X0064001Y0165437D01*
X0064562Y0165844D01*
X0065051Y0166334D01*
X0065458Y0166894D01*
X0065773Y0167511D01*
X0065987Y0168170D01*
X0066095Y0168854D01*
X0066095Y0171800D01*
X0066095Y0174746D01*
X0065987Y0175430D01*
X0065773Y0176089D01*
X0065458Y0176706D01*
X0065051Y0177266D01*
X0064562Y0177756D01*
X0065790Y0176038D02*
X0067395Y0176038D01*
X0067095Y0174439D02*
X0066095Y0174439D01*
X0066095Y0172841D02*
X0067095Y0172841D01*
X0066095Y0171800D02*
X0061695Y0171800D01*
X0061695Y0171800D01*
X0066095Y0171800D01*
X0066095Y0171242D02*
X0067095Y0171242D01*
X0067095Y0169644D02*
X0066095Y0169644D01*
X0065946Y0168045D02*
X0067195Y0168045D01*
X0067943Y0166447D02*
X0065134Y0166447D01*
X0062346Y0164848D02*
X0068284Y0164848D01*
X0066685Y0163250D02*
X0061705Y0163250D01*
X0061695Y0164848D02*
X0061695Y0164848D01*
X0061045Y0164848D02*
X0060107Y0164848D01*
X0061695Y0166447D02*
X0061695Y0166447D01*
X0061695Y0168045D02*
X0061695Y0168045D01*
X0061695Y0169644D02*
X0061695Y0169644D01*
X0061695Y0171242D02*
X0061695Y0171242D01*
X0061695Y0172841D02*
X0061695Y0172841D01*
X0061695Y0174439D02*
X0061695Y0174439D01*
X0061695Y0176038D02*
X0061695Y0176038D01*
X0061695Y0177636D02*
X0061695Y0177636D01*
X0071695Y0171800D02*
X0071695Y0164300D01*
X0066695Y0159300D01*
X0061695Y0159300D01*
X0055445Y0165550D01*
X0049195Y0165550D01*
X0046695Y0163050D01*
X0046132Y0166447D02*
X0043395Y0166447D01*
X0039995Y0166447D02*
X0037145Y0166447D01*
X0035445Y0163050D02*
X0035445Y0160550D01*
X0031924Y0161651D02*
X0029136Y0161651D01*
X0029286Y0160053D02*
X0031412Y0160053D01*
X0031657Y0163250D02*
X0028118Y0163250D01*
X0014872Y0163250D02*
X0013519Y0163250D01*
X0013519Y0164848D02*
X0014872Y0164848D01*
X0014872Y0166447D02*
X0013519Y0166447D01*
X0014872Y0168045D02*
X0047902Y0168045D01*
X0056738Y0168045D02*
X0057444Y0168045D01*
X0069809Y0158454D02*
X0081797Y0158454D01*
X0083195Y0160053D02*
X0071408Y0160053D01*
X0085447Y0166447D02*
X0087943Y0166447D01*
X0087195Y0168045D02*
X0086196Y0168045D01*
X0086295Y0169644D02*
X0087095Y0169644D01*
X0087095Y0171242D02*
X0086295Y0171242D01*
X0086295Y0172841D02*
X0087095Y0172841D01*
X0087095Y0174439D02*
X0086295Y0174439D01*
X0085996Y0176038D02*
X0087395Y0176038D01*
X0088426Y0177636D02*
X0084964Y0177636D01*
X0114964Y0177636D02*
X0118426Y0177636D01*
X0117395Y0176038D02*
X0115996Y0176038D01*
X0116295Y0174439D02*
X0117095Y0174439D01*
X0117095Y0172841D02*
X0116295Y0172841D01*
X0116295Y0171242D02*
X0117095Y0171242D01*
X0117095Y0169644D02*
X0116295Y0169644D01*
X0116196Y0168045D02*
X0117195Y0168045D01*
X0117943Y0166447D02*
X0115447Y0166447D01*
X0140695Y0190300D02*
X0157945Y0173050D01*
X0154195Y0171800D02*
X0154195Y0134300D01*
X0149195Y0129300D01*
X0149195Y0121800D01*
X0146695Y0094300D02*
X0146695Y0081800D01*
X0142095Y0081726D02*
X0141295Y0081726D01*
X0141295Y0083324D02*
X0142095Y0083324D01*
X0142095Y0084923D02*
X0141295Y0084923D01*
X0140796Y0086521D02*
X0142595Y0086521D01*
X0142095Y0080127D02*
X0141295Y0080127D01*
X0141295Y0078529D02*
X0142095Y0078529D01*
X0142657Y0076930D02*
X0140734Y0076930D01*
X0139332Y0075332D02*
X0144058Y0075332D01*
X0134058Y0075332D02*
X0129332Y0075332D01*
X0130734Y0076930D02*
X0132657Y0076930D01*
X0132095Y0078529D02*
X0131295Y0078529D01*
X0131295Y0080127D02*
X0132095Y0080127D01*
X0189707Y0144500D02*
X0193683Y0144500D01*
X0196495Y0147312D01*
X0196495Y0151288D01*
X0193683Y0154100D01*
X0189707Y0154100D01*
X0186895Y0151288D01*
X0186895Y0147312D01*
X0189707Y0144500D01*
X0188541Y0145666D02*
X0184850Y0145666D01*
X0186448Y0147265D02*
X0186943Y0147265D01*
X0186895Y0148863D02*
X0186495Y0148863D01*
X0186495Y0150462D02*
X0186895Y0150462D01*
X0187667Y0152060D02*
X0185723Y0152060D01*
X0184125Y0153659D02*
X0189266Y0153659D01*
X0194125Y0153659D02*
X0205233Y0153659D01*
X0203634Y0152060D02*
X0195723Y0152060D01*
X0196495Y0150462D02*
X0202945Y0150462D01*
X0202945Y0148863D02*
X0196495Y0148863D01*
X0196448Y0147265D02*
X0202945Y0147265D01*
X0204508Y0145666D02*
X0194850Y0145666D01*
X0154195Y0171800D02*
X0130695Y0195300D01*
X0130695Y0201800D01*
X0127244Y0206409D02*
X0124147Y0206409D01*
X0125618Y0204811D02*
X0125773Y0204811D01*
X0134147Y0206409D02*
X0137244Y0206409D01*
X0135773Y0204811D02*
X0135618Y0204811D01*
X0140695Y0201800D02*
X0140695Y0190300D01*
X0145618Y0204811D02*
X0145773Y0204811D01*
X0147244Y0206409D02*
X0144147Y0206409D01*
X0107682Y0206409D02*
X0104147Y0206409D01*
X0105618Y0204811D02*
X0106084Y0204811D01*
X0058280Y0150462D02*
X0054822Y0150462D01*
X0056420Y0148863D02*
X0058095Y0148863D01*
X0058054Y0147265D02*
X0056495Y0147265D01*
X0014872Y0169644D02*
X0013519Y0169644D01*
X0013519Y0171242D02*
X0014872Y0171242D01*
X0014872Y0172841D02*
X0013519Y0172841D01*
X0009990Y0172841D02*
X0009195Y0172841D01*
X0009195Y0163250D02*
X0010462Y0163250D01*
X0210147Y0206409D02*
X0213244Y0206409D01*
X0211773Y0204811D02*
X0211618Y0204811D01*
D26*
X0091695Y0171800D02*
X0091695Y0164300D01*
X0082945Y0154300D01*
X0066695Y0154300D01*
X0061695Y0149300D01*
X0061695Y0141800D01*
X0056695Y0141800D01*
X0051695Y0146800D01*
X0061695Y0141800D02*
X0061695Y0136800D01*
X0056695Y0131800D01*
X0056695Y0126800D01*
X0061695Y0136800D02*
X0067945Y0130550D01*
X0067945Y0076800D01*
X0076695Y0069300D01*
X0091695Y0069300D01*
X0094195Y0071800D01*
X0101695Y0071800D01*
X0094195Y0064300D01*
X0057945Y0064300D01*
X0050445Y0056800D01*
X0034195Y0056800D01*
X0027945Y0063050D01*
X0027945Y0078050D01*
X0036695Y0086800D01*
X0036695Y0106800D01*
X0036695Y0126800D01*
X0101695Y0071800D02*
X0101695Y0056800D01*
X0094195Y0051800D02*
X0089195Y0046800D01*
X0079195Y0046800D01*
X0089195Y0036800D01*
X0089195Y0031800D01*
X0096695Y0024300D01*
X0181695Y0024300D01*
X0186695Y0019300D01*
X0186695Y0011800D01*
X0081695Y0016800D02*
X0081695Y0031800D01*
X0079195Y0034300D01*
X0079195Y0046800D01*
X0066695Y0046800D01*
X0061695Y0051800D01*
X0061695Y0031800D02*
X0046695Y0031800D01*
X0036695Y0021800D01*
X0021695Y0021800D01*
X0021853Y0021957D01*
X0023467Y0021957D01*
D27*
X0111695Y0031800D02*
X0111695Y0091800D01*
X0106695Y0096800D01*
X0106695Y0101800D01*
M02*
