%
M48
M72
T01C0.01577
T02C0.03150
T03C0.03200
T04C0.03346
T05C0.04000
T06C0.05000
T07C0.05512
T08C0.05906
T09C0.12598
%
T01
X35445Y163050
X41695Y163050
X74195Y119300
X79195Y131800
X90445Y153050
X121695Y121800
X144195Y115550
X149195Y121800
X154195Y126800
X161695Y131800
X169195Y129300
X201695Y136800
X191695Y166800
X171695Y166800
X155445Y196800
X179195Y205550
X211695Y196800
X221695Y196800
X231695Y194300
X241695Y193050
X251695Y193050
X261695Y156800
X241695Y106800
X201695Y103050
X171695Y70550
X126695Y103050
X131695Y141800
X131695Y166800
X74195Y84300
X136695Y30550
X152945Y34300
X196695Y21800
X211695Y21800
X241695Y23050
X266695Y48050
X231695Y66800
X46695Y11800
T02
X106695Y121800
X106695Y101800
X61695Y51800
X61695Y31800
T03
X61695Y171800
X71695Y171800
X81695Y171800
X91695Y171800
X101695Y171800
X111695Y171800
X121695Y171800
X121695Y141800
X111695Y141800
X101695Y141800
X91695Y141800
X81695Y141800
X71695Y141800
X61695Y141800
X51695Y146800
X51695Y156800
X36695Y126800
X46695Y126800
X56695Y126800
X56695Y111800
X46695Y106800
X36695Y106800
X56695Y91800
X46695Y86800
X36695Y86800
X56695Y76800
X46695Y66800
X36695Y66800
X79195Y56800
X79195Y46800
X94195Y51800
X101695Y56800
X101695Y46800
X111695Y31800
X111695Y16800
X81695Y16800
X81695Y31800
X126695Y51800
X136695Y51800
X146695Y51800
X156695Y51800
X166695Y51800
X176695Y51800
X186695Y51800
X196695Y51800
X206695Y51800
X216695Y51800
X226695Y51800
X236695Y51800
X246695Y51800
X256695Y51800
X241695Y40550
X211695Y40550
X196695Y40550
X186695Y40550
X176695Y40550
X166695Y40550
X166695Y81800
X156695Y81800
X146695Y81800
X136695Y81800
X126695Y81800
X121695Y96800
X101695Y81800
X101695Y71800
X86695Y76800
X86695Y91800
X86695Y111800
X86695Y126800
X161695Y96800
X171853Y96800
X181695Y96800
X191538Y96800
X201695Y93050
X211695Y93050
X206695Y81800
X216695Y81800
X226695Y81800
X236695Y81800
X246695Y81800
X256695Y81800
X196695Y81800
X186695Y81800
X176695Y81800
X181695Y149300
X191695Y149300
X207945Y149300
X205445Y164300
X245445Y164300
X247945Y149300
T04
X25613Y160560
X25613Y143040
T05
X100695Y201800
X110695Y201800
X120695Y201800
X130695Y201800
X140695Y201800
X150695Y201800
X160695Y201800
X170695Y201800
X186695Y201800
X196695Y201800
X206695Y201800
X216695Y201800
X226695Y201800
X236695Y201800
X246695Y201800
X256695Y201800
X257195Y121800
X267195Y121800
X267195Y111800
X257195Y111800
X257195Y101800
X267195Y101800
X256695Y11800
X246695Y11800
X236695Y11800
X226695Y11800
X216695Y11800
X206695Y11800
X186695Y11800
X176695Y11800
X166695Y11800
X156695Y11800
X146695Y11800
X136695Y11800
X15695Y66800
X16695Y76800
X15695Y86800
X16695Y96800
X15695Y106800
X16695Y116800
T06
X18895Y200700
X18895Y182900
X44495Y182900
X44495Y200700
T07
X23467Y41643
X23467Y21957
T08
X14195Y168237
X14195Y135363
T09
X66695Y201800
X61695Y11800
X266695Y31800
X266695Y141800
M30
